<svg viewBox="0 0 330 200" xmlns="http://www.w3.org/2000/svg"><g><g><g><g><g><line x1="58.59375" y1="177" x2="53.59375" y2="177" style="visibility: inherit;" fill="rgb(0, 0, 0)" stroke="rgb(204, 204, 204)" stroke-width="1px"></line><line x1="58.59375" y1="157.33333333333334" x2="53.59375" y2="157.33333333333334" style="visibility: inherit;" fill="rgb(0, 0, 0)" stroke="rgb(204, 204, 204)" stroke-width="1px"></line><line x1="58.59375" y1="137.66666666666666" x2="53.59375" y2="137.66666666666666" style="visibility: inherit;" fill="rgb(0, 0, 0)" stroke="rgb(204, 204, 204)" stroke-width="1px"></line><line x1="58.59375" y1="118" x2="53.59375" y2="118" style="visibility: inherit;" fill="rgb(0, 0, 0)" stroke="rgb(204, 204, 204)" stroke-width="1px"></line><line x1="58.59375" y1="98.33333333333333" x2="53.59375" y2="98.33333333333333" style="visibility: inherit;" fill="rgb(0, 0, 0)" stroke="rgb(204, 204, 204)" stroke-width="1px"></line><line x1="58.59375" y1="78.66666666666666" x2="53.59375" y2="78.66666666666666" style="visibility: inherit;" fill="rgb(0, 0, 0)" stroke="rgb(204, 204, 204)" stroke-width="1px"></line><line x1="58.59375" y1="59" x2="53.59375" y2="59" style="visibility: inherit;" fill="rgb(0, 0, 0)" stroke="rgb(204, 204, 204)" stroke-width="1px"></line><line x1="58.59375" y1="39.33333333333334" x2="53.59375" y2="39.33333333333334" style="visibility: inherit;" fill="rgb(0, 0, 0)" stroke="rgb(204, 204, 204)" stroke-width="1px"></line><line x1="58.59375" y1="19.666666666666686" x2="53.59375" y2="19.666666666666686" style="visibility: inherit;" fill="rgb(0, 0, 0)" stroke="rgb(204, 204, 204)" stroke-width="1px"></line><line x1="58.59375" y1="0" x2="53.59375" y2="0" style="visibility: inherit;" fill="rgb(0, 0, 0)" stroke="rgb(204, 204, 204)" stroke-width="1px"></line></g><g transform="translate(48.59375, 0)"><text x="0" y="177" dx="0em" dy="0.3em" style="text-anchor: end; visibility: hidden; font-family: &quot;Helvetica Neue&quot;, sans-serif; font-size: 12px; font-weight: 200;" fill="rgb(50, 49, 63)" stroke="none" stroke-width="1px">-0.05</text><text x="0" y="157.33333333333334" dx="0em" dy="0.3em" style="text-anchor: end; visibility: inherit; font-family: &quot;Helvetica Neue&quot;, sans-serif; font-size: 12px; font-weight: 200;" fill="rgb(50, 49, 63)" stroke="none" stroke-width="1px">0</text><text x="0" y="137.66666666666666" dx="0em" dy="0.3em" style="text-anchor: end; visibility: hidden; font-family: &quot;Helvetica Neue&quot;, sans-serif; font-size: 12px; font-weight: 200;" fill="rgb(50, 49, 63)" stroke="none" stroke-width="1px">0.05</text><text x="0" y="118" dx="0em" dy="0.3em" style="text-anchor: end; visibility: inherit; font-family: &quot;Helvetica Neue&quot;, sans-serif; font-size: 12px; font-weight: 200;" fill="rgb(50, 49, 63)" stroke="none" stroke-width="1px">0.1</text><text x="0" y="98.33333333333333" dx="0em" dy="0.3em" style="text-anchor: end; visibility: hidden; font-family: &quot;Helvetica Neue&quot;, sans-serif; font-size: 12px; font-weight: 200;" fill="rgb(50, 49, 63)" stroke="none" stroke-width="1px">0.15</text><text x="0" y="78.66666666666666" dx="0em" dy="0.3em" style="text-anchor: end; visibility: inherit; font-family: &quot;Helvetica Neue&quot;, sans-serif; font-size: 12px; font-weight: 200;" fill="rgb(50, 49, 63)" stroke="none" stroke-width="1px">0.2</text><text x="0" y="59" dx="0em" dy="0.3em" style="text-anchor: end; visibility: hidden; font-family: &quot;Helvetica Neue&quot;, sans-serif; font-size: 12px; font-weight: 200;" fill="rgb(50, 49, 63)" stroke="none" stroke-width="1px">0.25</text><text x="0" y="39.33333333333334" dx="0em" dy="0.3em" style="text-anchor: end; visibility: inherit; font-family: &quot;Helvetica Neue&quot;, sans-serif; font-size: 12px; font-weight: 200;" fill="rgb(50, 49, 63)" stroke="none" stroke-width="1px">0.3</text><text x="0" y="19.666666666666686" dx="0em" dy="0.3em" style="text-anchor: end; visibility: hidden; font-family: &quot;Helvetica Neue&quot;, sans-serif; font-size: 12px; font-weight: 200;" fill="rgb(50, 49, 63)" stroke="none" stroke-width="1px">0.35</text><text x="0" y="0" dx="0em" dy="0.3em" style="text-anchor: end; visibility: hidden; font-family: &quot;Helvetica Neue&quot;, sans-serif; font-size: 12px; font-weight: 200;" fill="rgb(50, 49, 63)" stroke="none" stroke-width="1px">0.4</text></g><line x1="58.59375" y1="0" x2="58.59375" y2="177" fill="rgb(0, 0, 0)" stroke="rgb(204, 204, 204)" stroke-width="1px"></line></g></g><g transform="translate(58, 0)" clip-path="url(#clip_0)"><clipPath id="clip_0"><rect width="271" height="176"></rect></clipPath><g><g><g><line x1="0" y1="0" x2="0" y2="177" fill="rgb(0, 0, 0)" stroke="rgb(60, 60, 60)" stroke-width="1px" opacity="0.25"></line><line x1="30.15625" y1="0" x2="30.15625" y2="177" fill="rgb(0, 0, 0)" stroke="rgb(60, 60, 60)" stroke-width="1px" opacity="0.25"></line><line x1="60.3125" y1="0" x2="60.3125" y2="177" fill="rgb(0, 0, 0)" stroke="rgb(60, 60, 60)" stroke-width="1px" opacity="0.25"></line><line x1="90.46875" y1="0" x2="90.46875" y2="177" fill="rgb(0, 0, 0)" stroke="rgb(60, 60, 60)" stroke-width="1px" opacity="0.25"></line><line x1="120.625" y1="0" x2="120.625" y2="177" fill="rgb(0, 0, 0)" stroke="rgb(60, 60, 60)" stroke-width="1px" opacity="0.25"></line><line x1="150.78125" y1="0" x2="150.78125" y2="177" fill="rgb(0, 0, 0)" stroke="rgb(60, 60, 60)" stroke-width="1px" opacity="0.25"></line><line x1="180.9375" y1="0" x2="180.9375" y2="177" fill="rgb(0, 0, 0)" stroke="rgb(60, 60, 60)" stroke-width="1px" opacity="0.25"></line><line x1="211.09375" y1="0" x2="211.09375" y2="177" fill="rgb(0, 0, 0)" stroke="rgb(60, 60, 60)" stroke-width="1px" opacity="0.25"></line><line x1="241.25" y1="0" x2="241.25" y2="177" fill="rgb(0, 0, 0)" stroke="rgb(60, 60, 60)" stroke-width="1px" opacity="0.25"></line><line x1="271.40625" y1="0" x2="271.40625" y2="177" fill="rgb(0, 0, 0)" stroke="rgb(60, 60, 60)" stroke-width="1px" opacity="0.25"></line></g><g><line x1="0" y1="177" x2="271.40625" y2="177" fill="rgb(0, 0, 0)" stroke="rgb(60, 60, 60)" stroke-width="1px" opacity="0.25"></line><line x1="0" y1="157.33333333333334" x2="271.40625" y2="157.33333333333334" fill="rgb(0, 0, 0)" stroke="rgb(60, 60, 60)" stroke-width="1px" opacity="0.25"></line><line x1="0" y1="137.66666666666666" x2="271.40625" y2="137.66666666666666" fill="rgb(0, 0, 0)" stroke="rgb(60, 60, 60)" stroke-width="1px" opacity="0.25"></line><line x1="0" y1="118" x2="271.40625" y2="118" fill="rgb(0, 0, 0)" stroke="rgb(60, 60, 60)" stroke-width="1px" opacity="0.25"></line><line x1="0" y1="98.33333333333333" x2="271.40625" y2="98.33333333333333" fill="rgb(0, 0, 0)" stroke="rgb(60, 60, 60)" stroke-width="1px" opacity="0.25"></line><line x1="0" y1="78.66666666666666" x2="271.40625" y2="78.66666666666666" fill="rgb(0, 0, 0)" stroke="rgb(60, 60, 60)" stroke-width="1px" opacity="0.25"></line><line x1="0" y1="59" x2="271.40625" y2="59" fill="rgb(0, 0, 0)" stroke="rgb(60, 60, 60)" stroke-width="1px" opacity="0.25"></line><line x1="0" y1="39.33333333333334" x2="271.40625" y2="39.33333333333334" fill="rgb(0, 0, 0)" stroke="rgb(60, 60, 60)" stroke-width="1px" opacity="0.25"></line><line x1="0" y1="19.666666666666686" x2="271.40625" y2="19.666666666666686" fill="rgb(0, 0, 0)" stroke="rgb(60, 60, 60)" stroke-width="1px" opacity="0.25"></line><line x1="0" y1="0" x2="271.40625" y2="0" fill="rgb(0, 0, 0)" stroke="rgb(60, 60, 60)" stroke-width="1px" opacity="0.25"></line></g></g></g><g><g><line x1="0" y1="157.33333333333334" x2="271.40625" y2="157.33333333333334" fill="rgb(0, 0, 0)" stroke="rgb(153, 153, 153)" stroke-width="1.5px"></line></g></g><g><g><line x1="30.15625" y1="0" x2="30.15625" y2="177" fill="rgb(0, 0, 0)" stroke="rgb(153, 153, 153)" stroke-width="1.5px"></line></g></g><g><g><g><g><g><path stroke="rgb(255, 112, 67)" stroke-width="2px" d="M34.83046875,-1.0838853687487529L34.95109375,3.6118969236860607L35.388359375,20.084692327406145L35.689921875,23.336039408568524L36.504140625000005,29.8458954150301L36.51921875,6.966209912956231L36.820781249999996,15.109581309187007L37.092187499999994,29.836109920223578L37.1525,30.925715723762522L37.303281250000005,31.122185559109482L38.238125000000004,21.608004153553622L38.645234375,10.920011355768622L38.886484375,5.075086188630763L38.99203125,-9.950139349180859L39.007109375,-0.36281907424870496L39.504687499999996,14.492975709790386L39.71578125,21.21041287837113L39.83640625,19.195197020474836L39.911796875,1.1668211052926267L39.941953125,-11.987504198581917L41.04265625,-11.590652582576183L41.163281250000004,25.360560664622938L41.5553125,38.98375808332767L41.691015625,48.986501365132426L41.75132812499999,71.46050328445777L41.781484375,73.98578420527123L41.992578125,61.015307979416576L42.022734375,51.32701585714622L42.12828125,43.04996926320564L42.248906250000005,67.7319722015836L42.339375,56.0526812239159L42.761562500000004,61.94426894673245L43.862265625000006,55.74999313873904L44.35984375,31.70078893169753L44.405078125,54.78366877107257L44.661406250000006,46.4972100685701L44.797109375000005,56.21387946847503L44.81218749999999,46.730502114565724L44.90265625,39.53477276627618L44.917734375,66.3676377856101L44.993125,86.24672226128828L45.26453125,85.35416150697351L45.309765625000004,85.38373969897431L45.44546875,69.56503668747857L46.184296875,72.9351330965276L46.22953125,74.75566690431862L46.32,61.860687657469896L46.41046875000001,83.43198816226582L46.485859375,68.41596298086455L46.636640625,72.08063476201367L46.727109375,75.63580888676202L46.8025,93.22799741765942L47.5865625,107.15194976982212L47.661953125,101.53743821309757L47.67703125,112.54472416410383L47.9484375,90.04440213517664L48.144453125000005,71.03917551116923L48.34046875,74.1924252071379L48.9134375,92.22419890901679L49.169765625000004,58.774786485560895L49.471328125,80.48915684755634L49.66734375,95.22305371979903L49.9990625,76.96177066946457L50.044296875,63.03339844432851L50.255390625000004,37.64356510243405L50.315703125,33.01981885309476L51.039453125,46.35223083654628L51.144999999999996,40.34041230529411L51.47671875,22.81896057279627L51.657656249999995,52.663849384512915L51.8084375,44.91363062367259L52.26078125,54.14020514580285L52.426640625,30.902229987447356L52.547265625,28.93437657887722L52.637734375,42.069687210160566L53.120234374999995,52.41851007723557L53.180546875000005,45.099513825383326L53.5575,68.64371821183529L53.79875,72.47298132296338L53.813828125,87.802520123337L54.04,86.37055595873267L54.1003125,86.17755230894849L54.356640625,85.23901476441442L54.884375,83.99291772667473L55.004999999999995,83.25500191150077L55.3065625,83.67562472569224L55.517656249999995,83.77850416503301L55.653359375,83.95761860569188L55.743828125,68.5621320582248L55.81921875,72.64979701981619L55.924765625,75.09635354901108L56.06046875,77.27230820747432L56.2715625,63.79380859621895L56.30171875,68.91033593231221L56.346953125,41.799253535659574L56.48265625,52.212190322914154L57.010390625,60.85968849314702L57.372265625,50.47214566912845L57.68890625,59.352967662269265L57.9603125,81.6737876460514L58.096015625,95.25780820385836L58.29203125,89.48495172472039L58.337265625,72.71018615301898L58.457890625,75.49517860190284L59.061015625,77.92769531095537L59.31734375,79.68793872788302L59.468125,95.99813332404352L59.513359375,91.55001653568678L59.814921874999996,87.29482012730065L60.056171875,86.09733476095798L60.327578124999995,99.96080074677623L60.508515625,64.40193441209453L60.76484375,69.58543613859354L60.8553125,57.82361465954652L61.2171875,57.35893214073212L61.413203124999995,48.774534857327495L61.4584375,57.45672974164604L61.473515625000005,64.03356818695705L61.594140625,68.77220696830314L61.654453124999996,57.301024110048175L61.760000000000005,73.443216926792L62.498828125,75.7248208097795L62.559140625000005,77.35694335348197L62.6646875,79.00285461346294L62.800390625,65.2330175488153L63.132109375,69.69773472356965L63.192421875,88.58245227168148L63.313046875,72.13056367607382L63.433671875,89.9247184283986L63.493984375000004,88.44032081748702L63.795546875,56.23561566240406L63.870937500000004,63.03953092493063L63.886015625,68.57016497743608L63.961406249999996,57.208219296923744L64.14234375,64.33599104401269L64.187578125,56.74196111966603L64.26296875,47.636929635849526L64.549453125,71.19714189367937L64.79070312500001,88.2616108998426L64.941484375,56.1895207681721L65.122421875,63.53235235336287L65.514453125,53.29489444837168L65.65015625,45.48436139167535L66.177890625,39.785500134887L66.19296874999999,20.028860113072426L66.223125,36.11115822711403L66.8865625,16.774998728336385L67.0071875,49.664039157920996L67.14289062499999,57.39738667242389L67.173046875,48.78627160246137L67.24843750000001,57.313664714111226L67.62539062500001,64.52127367690127L67.64046875,54.24417205531461L67.79124999999999,46.49191257513618L67.82140625,71.4011172673514L67.89679687499999,90.1150708955229L68.10789062500001,89.38745239353167L68.198359375,56.78180407267752L68.3340625,62.489630985061524L68.56023437500001,52.76123938380256L68.650703125,45.35828119765489L69.02765625,55.29530807904976L69.359375,46.99035275569139L69.44984375,40.96730453423777L69.70617187500001,36.59154945956064L69.796640625,48.061857637767844L70.188671875,41.71579436809586L70.53546875,67.76470677065626L70.641015625,56.76909254143483L70.71640624999999,64.17061871227308L70.91242187499999,53.880242120587695L71.47031249999999,46.15105378554824L71.68140625000001,38.44719997478305L72.209140625,34.1599572355494L73.460625,31.266908547055607L73.596328125,44.729876426955514L73.73203125,54.511354738882716L73.8225,31.086864800728847L74.18437499999999,13.62095790703205L74.893046875,16.37517175343166L75.013671875,17.360642759247924L75.55648437500001,33.85940855514977L75.797734375,46.55115116489452L75.84296875,55.38843535869418L75.96359375,47.21432214037381L76.008828125,55.30828638229731L76.370703125,62.78070049439053L76.431015625,83.11043993136828L76.883359375,83.92523956943712L77.45632812500001,69.02928351505767L77.72773437500001,57.528917111043285L77.818203125,79.9254904114875L78.05945312499999,65.75205796815972L78.330859375,55.13050483120713L78.3459375,61.67199072763157L78.85859375,67.44301416328224L79.00937499999999,71.70202918545114L79.05460937500001,75.35288827160171L79.0696875,62.206950198704575L79.09984375,52.49874823000343L79.114921875,72.06632737941688L79.491875,90.88026937635355L79.989453125,73.4527757900883L80.592578125,45.31077757943896L81.06,39.74387638077002L81.467109375,35.31975867753482L81.5425,61.08167533001057L81.87421875000001,51.6605651722392L82.160703125,44.69264597489661L82.386875,54.604688882721035L82.62812500000001,62.22376824879569L83.065390625,83.34525730145842L83.110625,52.898523879185504L83.487578125,77.11714167134528L83.87960937499999,62.75212517938908L84.1359375,81.51557294772613L84.4375,82.52951801611387L84.70890625,82.24286680687109L84.7390625,98.60147219334063L84.76921875000001,92.72723616590483L84.85968749999999,78.97958079325801L85.281875,79.29594014824856L85.49296875,96.41677439766681L86.33734375,62.557680212371366L86.39765625000001,68.37335612387501L86.563515625,40.89406002911235L87.0309375,36.64940528099672L87.1515625,31.89837865148735L87.34757812500001,60.47747406663788L87.42296875000001,80.70692191079583L87.66421875,66.63082480130198L87.739609375,70.54467823629176L87.769765625,58.78840089776614L87.920546875,65.66083490309863L87.980859375,55.24967578673591L88.418125,46.46388558552087L88.59906249999999,40.67465039702333L89.38312499999999,50.88859357909642L89.54898437499999,75.76951921151245L89.8053125,78.3285844325717L90.22749999999999,80.68711547722131L90.61953125000001,66.437177540378L90.80046875,55.44249562821807L90.966328125,78.78120802353143L91.0115625,80.40513276576759L91.87101562500001,66.07536349128544L91.94640625000001,67.79281203957406L91.961484375,41.11192947507928L92.112265625,36.69546997203963L93.21296875,33.48225113038433L93.378828125,45.931628830807654L93.39390625,70.94453800258844L93.42406249999999,58.54188876998856L93.49945312499999,63.97147813823453L93.51453125,69.14166907996679L93.891484375,57.64728734285754L93.966875,78.32751633856815L94.01210937500001,64.87368778424323L94.132734375,70.35761019162058L94.434296875,88.94471866271827L94.47953125,87.90164382997368L94.49460937500001,71.97387452188032L94.72078124999999,68.83760756641325L95.0525,57.51782973803137L95.248515625,64.34874932309174L95.278671875,69.46787906455815L95.4746875,73.00897298051316L96.032578125,76.41963847927885L96.394453125,91.72244067657373L96.5,74.74873690421008L96.59046875,77.6703800291836L96.95234375,48.64835421746247L96.99757812499999,57.93585800739092L97.88718750000001,57.50793528266942L98.14351562499999,64.25074036316637L98.15859375000001,69.53597387562411L98.46015625,86.14793473463695L98.505390625,86.04049145207846L98.64109375000001,70.43638592183179L99.18390625,57.0145809805108L99.229140625,63.51706342779558L99.470390625,63.25375682282434L99.9378125,69.18709883084223L100.36,57.74626760078195L100.480625,48.55868778331407L100.54093750000001,26.752384712228235L100.6615625,40.33827843962774L100.827421875,51.51481806736585L101.219453125,65.18720247722715L101.29484375,86.07266766798041L101.53609375,100.94964860465724L101.77734375,81.64406027882418L101.89796875,82.70016150744577L102.03367187500001,83.33435352871824L102.169375,84.1699344213502L102.335234375,54.85478632783533L102.3503125,62.65074841966232L102.53125,67.58268555214089L102.56140625,41.05967528055092L103.134375,36.64690692809569L103.31531249999999,49.414171875731995L103.601796875,42.806464981670274L103.94859375,22.395955865333065L104.25015625,28.652860885035693L104.97390625,27.421935248105825L105.109609375,57.61846895159512L105.15484375,64.13180540778441L105.185,70.06737292584985L105.953984375,74.26185437338015L105.99921875,77.40176070561945L106.30078125,64.01218016418682L106.3309375,84.90345569407538L106.34601562499999,85.05196624977L106.45156250000001,85.12852821178159L106.72296874999999,69.86680448262933L107.14515625,74.01397570321163L107.44671875,45.88594684861698L107.476875,39.82092719325098L107.56734374999999,51.40670792282225L108.034765625,58.1109377646396L108.29109375,80.78130642523068L108.5625,98.02817744726114L108.683125,79.42637459430156L109.150546875,81.46795384465436L109.55765625000001,82.61343516569183L109.904453125,83.37884992314332L110.34171875,68.26312552130838L110.50757812500001,72.3508765718335L110.748828125,90.06670653500035L110.95992187499999,73.51970118790628L111.2765625,59.175365967743986L111.8796875,50.40375000111406L112.21140625,43.79637216377114L112.286796875,52.243469920134416L112.8446875,29.305644314124834L113.01054687499999,43.35155690049851L113.101015625,53.71239900204007L113.31210937499999,61.81761626462712L113.342265625,52.23691246713747L113.824765625,74.25296065598502L114.186640625,77.0228744140179L114.367578125,94.50226207569888L114.397734375,92.61547137447923L114.488203125,90.16721782080177L114.669140625,89.1342108902322L115.04609375,88.68317286122382L115.46828125,88.32522972895006L115.49843750000001,56.59805397387271L115.55874999999999,48.380293305907L115.784921875,42.02145886359355L116.403125,37.2592093329547L116.44835937500001,48.214560516521374L117.2475,72.89938971533324L117.292734375,60.48209369552859L117.443515625,65.93948450875571L117.714921875,55.44158571720723L117.72999999999999,63.0794511856633L117.986328125,37.51913093953749L118.03156249999999,65.02701049696331L118.54421875,53.997670974348935L118.574375,62.014715527259526L118.67992187499999,67.35815107812678L119.08703125,40.30983216787007L119.222734375,36.35963129545172L119.539375,33.23909043417157L119.90125,45.70015335907169L119.97664062499999,55.033649949867325L120.067109375,62.5118976323767L120.47421875,83.20040731617814L120.77578125000001,83.61329530628257L120.85117187499999,68.62989114041828L121.07734375,88.3687298121195L121.152734375,102.91954327653347L121.80109374999999,83.30739498081739L121.86140625,52.87686569679863L122.17804687499999,60.55803216010524L122.208203125,82.60670674132969L122.449453125,81.89348606578831L122.479609375,66.57996501011517L122.57007812500001,40.29153572872397L122.60023437500001,50.39770248058487L122.87164062500001,58.014424414727415L123.21843750000001,49.23878342899937L123.354140625,58.25916308223138L123.640625,64.92914008152799L123.806484375,54.58379034415229L123.836640625,31.2816803662175L123.927109375,29.43704771770652L124.123125,43.53865559535981L124.39453125,38.39067570161416L124.982578125,34.58335721432445L125.329375,47.3621025049124L125.38968750000001,41.461376524418796L125.404765625,21.15499639849918L125.5103125,21.50785922941043L125.76664062500001,6.275178373498022L125.9325,40.91037699079814L126.09835937499999,67.53553365251639L126.20390625,87.63986473676637L126.294375,87.31106371651691L126.65625,103.08348053735388L127.545859375,114.81692485363783L128.088671875,92.15186051567723L128.10375,103.7317895854148L128.1640625,99.50473055766065L128.465625,96.35638480054916L128.48070312500002,109.23156527700048L128.49578125,72.19803103590569L128.61640625,58.55911616720746L129.27984375,49.41206625480423L129.38539062499999,57.48642232049491L129.430625,64.79813054328956L129.717109375,38.63155749049383L130.53132812500002,50.807106848162036L130.66703125,43.77779142432652L130.6971875,38.46896605516153L130.7575,26.434259392859133L130.84796875,22.926026587294814L130.893203125,38.43377623139287L130.99875,46.38431417964108L131.119375,72.51559824133615L131.164609375,60.61429353715276L131.345546875,82.37562418040925L131.75265625,81.51025999938533L131.81296875,67.24122023132468L131.978828125,55.82497383478645L132.1446875,47.52102826471298L133.17,25.803056588244885L133.38109375,25.33745501442283L133.50171875,40.54477781139468L133.71281249999998,52.210317742965174L133.72789062500001,60.4759362578496L134.119921875,51.44718899644995L134.331015625,60.11108516771421L134.70796875,66.94293178090805L135.145234375,87.41777962836579L135.19046875,86.9747510230492L135.58249999999998,86.79501952961233L135.85390625,101.95896693500708L135.91421875,82.29214369906474L136.291171875,52.06634794802886L136.683203125,45.0311683278365L137.075234375,55.48916603449328L137.30140625,67.01205940281504L137.42203125,67.98196153959468L137.437109375,82.48622025437025L137.768828125,67.92634347362244L137.829140625,88.18718457194925L138.040234375,103.90787211715694L138.64335937500002,83.86222544542905L138.77906249999998,84.63428689382901L138.96,84.48125444715726L139.24648437500002,84.64551893976193L139.29171875,85.15310509252906L139.427421875,100.81302482361362L140.2265625,81.64812668169563L140.392421875,67.21934921268401L140.66382812499998,56.49277500597914L140.814609375,63.416051506924504L140.82968749999998,53.51193348243409L141.10109375,61.75523092853308L141.116171875,67.76211155984277L141.46296875000002,56.854174217871574L141.52328125000003,32.99793970331686L141.74945312499997,30.133111127856807L142.20179687499999,43.98505085955051L142.3375,67.96788245864697L142.382734375,88.18549587919163L142.48828125,85.10552520082966L142.6390625,85.46701662615921L142.684296875,79.18602993602296L142.7596875,80.98161850074018L142.91046875,81.23449342661809L143.27234374999998,51.326265055504564L143.408046875,60.11357348271457L143.69453125,35.4413680464566L143.950859375,32.55160312976105L144.88570312500002,45.917605369076114L145.41343750000001,38.83542981994779L145.669765625,50.62972844328459L145.820546875,59.41671144870773L145.8959375,64.46991267071868L146.061796875,85.72714138007726L146.15226562499998,85.88790578951813L146.2578125,85.5964493064225L146.52921874999998,70.21647173672135L146.604609375,43.046747920025695L146.67999999999998,37.8681142194134L146.95140625,49.63000325705832L147.117265625,59.04907620497903L147.16250000000002,66.13289932724204L147.4640625,55.08093944022963L147.5846875,73.80324154869807L147.73546875,61.385719698504815L147.91640625000002,52.026358512978575L148.263203125,60.78332975567528L148.33859375,67.40622511225925L149.258359375,72.45408753963235L149.2734375,44.70078245661426L149.75593750000002,50.896052449147405L150.404296875,59.66027407634135L150.52492187500002,50.09656611204626L150.64554687499998,59.01377909321191L150.660625,65.80509134294421L151.17328125,70.69974672883447L151.339140625,88.47041185064566L151.520078125,88.01619717821792L151.77640624999998,103.47296665688035L152.68109375,115.2107070111028L153.04296875,123.69222688940559L153.4953125,114.47941373834092L153.55562500000002,91.86447495322334L153.76671875,90.55935195521398L154.023046875,89.59742947411323L154.113515625,88.94488114350855L154.746796875,101.64822090291813L154.988046875,82.10035424189887L155.15390625,67.62809044640619L155.28960937500003,87.87661505675375L155.410234375,87.83259911219196L155.711796875,103.25716459709105L155.74195312499998,99.47513070710687L155.7871875,96.25865113598265L155.81734375,109.80529850793225L155.9078125,104.48551761903765L156.20937500000002,115.80949794110057L156.254609375,124.31809591964893L156.32999999999998,114.62679581557157L156.465703125,101.09522366803148L157.521171875,81.92095360648142L157.822734375,83.04623497360562L157.8378125,82.99158326708155L157.86796875,83.92975342947248L158.0790625,84.3148407471762L158.139375,68.91337175119965L158.27507812500002,57.75992381455187L158.29015625,81.05275933940237L158.365546875,82.48988661876585L158.4409375,67.93375778141493L158.667109375,64.75805225138903L159.13453125,70.23990659932407L159.31546874999998,70.00681225394332L159.421015625,87.52154864262754L159.49640625,83.33511732250643L159.7075,99.75462223956093L159.843203125,96.78719298805363L160.23523437499998,94.27150966961888L160.34078125,107.85753924008469L160.355859375,118.49855049049762L160.49156250000001,110.32122200028223L161.06453125,88.80808794354085L161.18515625,88.30017174930097L161.200234375,87.85487268727367L161.260546875,84.91006773423881L161.743046875,100.9527414278112L162.45171875,97.44693440324203L162.51203124999998,94.563921882618L162.7834375,105.93716702196919L162.858828125,85.35133482530821L163.13023437500001,85.67913422317667L163.17546875,101.32383685597961L163.49210937499998,113.46297364752954L163.65796874999998,107.05901681488498L164.01984374999998,107.7587403281482L164.12539062500002,102.66261424402514L164.38171875,83.06403076230137L164.41187499999998,83.95470926351491L164.457109375,84.39591287037464L164.77375,100.80638183588258L164.80390625,97.33547657385193L164.87929687500002,79.16040027392259L165.04515625000002,81.25770228892334L165.22609375,69.45569789061851L165.48242187500003,89.48207423012184L165.753828125,104.73517438940593L165.844296875,83.32513795329766L165.995078125,68.52374866415356L166.266484375,56.06991789309767L166.2815625,63.10994725318329L166.68867187499998,68.8807584117101L166.809296875,88.92288803243889L166.960078125,87.87862222570737L167.1259375,87.70131138919072L167.44257812499998,87.35202134546265L167.713984375,71.55990721927348L168.19648437499998,75.51106605734418L168.30203125,62.794887670021296L169.08609375,68.90985808662778L169.11624999999998,73.64300839438972L169.26703125,92.60725616641713L169.37257812500002,107.35911513260366L169.7796875,70.96181729664707L170.09632812499999,59.09362394584407L170.247109375,65.70806894361813L170.488359375,86.94999318027692L170.51851562500002,102.68260622105554L170.6240625,67.46102522593073L171.1065625,86.62555554051758L171.18195312499998,102.28830208513887L171.3478125,82.72470801485161L171.42320312500001,83.68300287475446L172.0715625,68.3849480269531L172.116796875,57.25690453458539L172.41835937500002,48.753109281032806L172.508828125,42.24093562832144L172.52390625,53.376294059136924L172.91593749999998,61.53611395837835L173.021484375,67.54284459334256L173.97140625,72.31777895564036L174.107109375,74.39802056606406L174.21265624999998,54.468457453508776L174.25789062500002,77.7867884272544L174.3634375,64.4518445434694L174.408671875,53.298377473860825L174.740390625,45.92507156159658L174.90625,56.128920395538074L175.07210937500003,63.20975004593768L175.253046875,68.9647349616895L175.268125,72.9383734854817L175.313359375,90.69218750772428L175.67523437499997,105.39579543160517L175.76570312500002,99.80380182715967L176.11249999999998,112.76537068984946L176.26328125,90.58199163789685L176.38390625,89.49940825910747L176.56484375,88.89474591037988L177.303671875,104.01158870884638L177.439375,114.09566572007441L177.57507812499998,107.2399730546879L178.1028125,70.45694657514815L178.525,89.53896216781382L178.570234375,57.57831891487086L179.173359375,65.09126504853123L179.535234375,54.65455468494946L179.68601562499998,62.86923856798251L180.5153125,53.11705070835458L180.71132812500002,77.64281107311233L181.14859374999997,95.77241770716743L181.69140625,77.8153846025046L181.766796875,78.83407180643094L181.781875,80.82153825019084L181.81203125,82.69484643150192L182.023125,76.24618872331216L182.2040625,80.47128309175997L182.55085937500002,82.09199629023624L182.641328125,83.22273929220243L182.8675,83.75798466669478L182.95796875,68.91196753927026L183.10875,42.06556307957234L183.470625,53.30796929887552L183.726953125,62.0364871420075L184.05867187500002,36.896039070586625L184.52609375,49.276084918170184L184.631640625,42.60135706876568L184.79749999999999,37.856835472249685L185.03875000000002,18.713208469711844L185.0990625,35.17893048714424L185.20460937500002,63.98917975803515L185.28,85.22554787996197L185.807734375,53.95556654344098L185.91328125,46.39581730605357L186.45609375,25.06572878712592L186.87828125000001,8.580271406276438L186.9084375,43.693020437165245L186.923515625,38.76241576414418L186.953671875,50.61934146624125L187.044140625,75.3111804229485L187.17984375,77.92342818294517L187.2703125,93.94616891991042L187.345703125,92.30494568576724L187.78296875,90.9251690123915L187.99406249999998,74.15825881843351L188.159921875,61.779786035438434L188.310703125,52.33733664061138L188.37101562499998,60.85323552560155L188.38609375000001,51.72323162790191L188.80828125,44.68489059090524L188.943984375,39.40479130445411L189.06460937499997,51.037840799368084L189.29078124999998,60.03015000734652L189.305859375,66.67545390611559L189.486796875,87.55155942580325L189.95421875,70.16730392358106L190.089921875,58.58064815806165L190.28593750000002,67.8780218452009L190.34625,72.6304514570558L190.42164062499998,76.34313407148618L190.55734375,78.92281695595868L190.67796875000002,65.0937905277252L190.783515625,70.61433534999796L190.79859374999998,59.07973063905479L191.05492187500002,66.29435931193251L191.507265625,54.77434829644025L191.65804687500003,62.45844451161511L192.2159375,52.57120352552691L192.35164062500002,76.71931501795751L192.36671875,79.08257117124958L192.4571875,80.66364311438727L192.69843749999998,62.34025945747864L192.803984375,52.63174256083069L193.226171875,61.06700631628749L193.24124999999998,50.90036996945777L193.376953125,59.57963307746519L193.45234374999998,66.31968179611663L193.61820312499998,55.623721621451395L193.75390625,62.78123356810933L193.965,53.17588861685611L194.130859375,61.840175224840806L194.53796874999998,68.02332478673472L194.583203125,56.77572700402372L194.71890625,80.08912672424283L195.095859375,50.47092632829769L195.156171875,28.189015938733803L195.29187499999998,27.12327743455654L195.50296875,55.756246824517206L195.5934375,79.24329938498107L195.62359375,80.95193161111314L196.13625,81.56130784804635L196.22671875,67.20774427613982L196.31718750000002,71.79145630890281L196.34734375,75.5870641385118L196.362421875,78.59648500058843L196.513203125,95.79958204558186L196.58859375,62.28585155266802L196.7996875,68.48861920842157L196.935390625,57.38076282952714L197.176640625,48.939226141370284L197.55359375,42.79297355727286L197.840078125,53.78770547168236L197.97578125,77.60165779648918L198.2471875,79.36596992307646L198.654296875,65.56733903544838L199.00109375,70.8831140268821L199.03125,43.53560883210818L199.046328125,54.73426734560583L199.8153125,78.44858350503144L199.9359375,64.87210372494725L199.981171875,86.2568500334632L200.116875,84.5012011462001L200.68984375,100.6351221003163L201.15726562499998,97.211695308538L201.458828125,108.30570622265228L201.564375,87.25440079991894L201.669921875,55.79977932900893L201.74531249999998,31.841738123662196L202.212734375,45.56234783763006L202.33335937500001,54.31164148222808L202.363515625,46.768003495892856L202.876171875,56.853164227183115L202.92140625000002,48.71355002585483L203.1325,47.6498800832083L203.177734375,41.74289887451866L203.34359375,21.635993286971342L203.43406249999998,37.47251464009591L203.85625,65.64683551896006L203.90148437500002,70.85143166088967L203.9165625,73.85958722198546L204.00703125,76.6467397574319L204.0371875,62.84500335676745L204.293515625,68.81126524259153L204.414140625,41.479298656897015L204.54984375,53.07016058999163L204.77601562499999,53.934621011603596L205.017265625,62.6466778040452L205.6053125,68.65769979455406L205.78625,57.00628835608509L205.81640625,80.21966958181818L205.9671875,97.27488031807387L206.133046875,94.94645147970098L206.23859374999998,77.47869034706541L206.34414062500002,48.37326701746818L206.374296875,39.28668856247626L206.63062499999998,50.974679939642755L206.917109375,44.296360239929754L207.459921875,55.228441663117394L207.610703125,63.28494615831319L207.86703125,53.413382959919346L207.9575,46.02175966851212L208.093203125,40.399907055180535L208.545546875,67.25331052122147L208.89234375,40.786844507686084L208.90742187499998,36.707844067638604L209.178828125,52.6269461343161L209.60101562499997,76.47877213761834L209.67640624999999,63.40145143986774L209.872421875,53.595790209561756L210.08351562500002,62.02542910262645L210.20414062499998,51.937130802215094L210.27953125,60.6253540332639L210.3096875,51.52529369438432L210.324765625,44.50701660669691L210.62632812500001,39.37909924341389L210.70171875,51.27598048362701L210.9128125,44.152931999260204L211.06359375,39.17732492099475L211.138984375,51.08294768611316L211.24453125,28.641674238132964L211.531015625,41.87683218083882L211.71195312499998,52.867098986310765L212.2396875,61.3262599509961L212.375390625,51.694985583455264L213.099140625,76.2742117819222L213.17453124999997,63.293746374003916L213.40070312499998,53.443722798534765L213.5665625,61.992636489917444L213.62687499999998,84.30915816654097L213.86812500000002,85.07983326298054L214.064140625,69.51889758474933L214.365703125,74.19231283424115L214.50140625,61.73725764220829L214.62203125000002,83.83817537697097L214.92359374999998,81.69606596364676L215.16484375000002,67.36950971735362L215.46640625,56.75495291717587L215.51164062499998,32.92494164236129L215.752890625,15.002889351750042L215.994140625,32.89913237897741L216.16,46.48253180026765L217.06468750000002,40.67838115559715L217.20039062499998,52.50555849649665L217.21546875,61.03415959535812L217.66781250000003,67.44580706668891L217.95429687499998,72.03207552679554L217.99953125,75.92251144149527L218.33124999999998,63.04628016790318L218.9946875,53.0585139397473L219.311328125,29.6019025821264L219.401796875,43.63532862282187L219.431953125,38.83681046631662L219.74859375,66.56310626226046L220.0803125,71.69623059984794L220.517578125,44.04354423697271L221.211171875,54.74043172860583L221.452421875,47.07598794594267L221.633359375,57.245636771433894L222.52296875,64.66173057341142L222.76421875000003,54.49742486753901L223.231640625,46.81606282455212L223.352265625,41.08119220195405L223.66890625,68.0169746769166L224.045859375,57.26572562751247L224.12125,48.8311240988354L224.317265625,74.25560028285481L224.51328125,75.5146934232303L224.60375000000002,62.936389596201366L225.23703125,68.85408528032394L225.252109375,89.27620834334327L225.3275,57.29637512596619L225.553671875,64.82836295390322L226.428203125,54.72476060319538L226.68453125,75.45799377171896L227.091640625,78.24171977275353L227.10671875,64.79113882582759L227.22734375,54.73785143926375L227.40828125000002,62.685871654864584L227.453515625,68.78504457828956L227.58921875000001,57.70776113217755L227.815390625,49.348084412931954L227.875703125,58.798937670663506L227.905859375,65.78014184501885L228.13203124999998,39.71186045916156L228.4034375,50.59325904929318L228.67484374999998,59.30414281564282L228.90101562499999,65.71893014892487L229.051796875,85.7986164086777L229.09703125000001,86.48266370917122L229.27796874999999,86.27027634871224L229.293046875,70.48124775001753L229.353359375,58.90615684085519L229.775546875,66.05538471536497L230.167578125,55.55240660664926L230.66515625,79.2037495947841L230.891328125,65.49199113705518L231.43414062500003,55.12451931580891L231.50953124999998,47.32055804491276L232.23328125,57.20481006875531L232.29359375,64.8182414269479L232.59515625,86.51808690883874L233.31890625,71.00210582563615L233.33398437500003,74.88780467882455L233.726015625,77.77081926078971L233.77124999999998,64.4622670466637L234.40453125000002,52.23898921232535L234.64578125,45.30161181793093L235.17351562500002,55.83045317938446L235.3996875,79.46011615751495L235.5203125,65.69684914287578L235.595703125,70.8147476187106L235.61078124999997,75.07822382692582L236.108359375,78.27914256723277L236.3646875,64.87263218227434L236.409921875,69.75312441955887L236.45515625000002,90.17081959079607L236.651171875,89.21475457739074L237.05828125,72.67620956242692L237.3296875,60.71353151210289L237.435234375,51.6330702783239L237.54078125,59.390494925552844L237.8725,81.92775161346418L238.189140625,67.6252645209931L238.38515625,40.805029651496625L238.91289062500002,36.64188172699244L239.25968749999998,49.224273466621696L239.304921875,58.67476057032073L239.50093750000002,34.368125344897635L239.56125,60.60250034908469L239.65171875000001,67.036363819132L240.300078125,72.2755787539135L240.31515625,59.82882197742396L240.601640625,82.62629254438123L240.64687500000002,83.41420595956627L240.76749999999998,68.7421130263489L240.782578125,88.79674192430659L240.79765625000002,103.61268795198089L240.888125,99.37350713972992L241.18968750000002,95.23644614361812L241.21984375,77.63489706591372L241.49125,94.79153554693117L242.24515625,93.28774792696585L242.45624999999998,76.10064709997826L242.54671875000003,94.59777944539114L243.059375,76.9430920465698L243.677578125,94.85416354408864L244.099765625,93.02931779075261L244.50687499999998,107.31514499093436L244.582265625,101.98695588282762L244.672734375,66.86411353684821L245.01953125,87.54876168738299L245.396484375,90.833721924466L245.577421875,88.97016308857883L245.5925,72.75514411500814L245.68296875000001,60.54905389910874L245.818671875,67.1957107996621L246.075,56.35673157713714L246.2559375,69.39395923170558L246.34640625,89.83109028393366L246.64796875000002,57.79689455365401L246.70828125,65.13039531958218L247.07015625,70.7133830510218L247.10031249999997,74.81101751417165L247.236015625,93.50101837416356L247.989921875,60.5580061229537L248.351796875,67.1000483896988L248.366875,40.67773121632402L248.69859375,52.31497334794227L249.22632812499998,61.08636645281045L249.24140625,36.1819436802507L249.60328124999998,32.79639627447111L249.6334375,30.48434220469605L249.648515625,28.866665948181264L250.100859375,27.620567321637452L250.4778125,58.15708582231811L250.52304687499998,49.72517614834821L250.553203125,27.637851804072994L250.77937500000002,42.45680127604868L250.86984375,53.50496642319537L251.17140625,77.6076416175881L251.3221875,64.43303871991155L251.337265625,85.75387991707646L251.457890625,54.56906872786409L251.518203125,61.95933668907075L251.608671875,82.75746737154209L251.849921875,68.12130342815693L252.49828125,57.18003338242144L252.67921875000002,80.54456778498249L252.845078125,50.792323963513795L252.995859375,59.61541720554874L253.01093749999998,50.82756836943712L253.07125,49.8289759348942L253.1315625,75.11601343565356L253.191875,62.47043468288088L253.448203125,68.54331119304987L253.538671875,73.26183677577438L253.59898437500001,76.64022957048142L253.629140625,94.82554849080755L254.00609375,93.00766554329365L254.292578125,76.00804829186087L254.398125,78.72661421466455L254.41320312500002,65.26998263853764L254.503671875,86.57773044238486" style="fill: none;" fill="none"></path></g></g></g></g><g opacity="0.2"><g><g><g><path stroke="rgb(255, 112, 67)" stroke-width="2px" d="M32.538593750000004,-22.52590552965799L32.674296875,6.012420097986876L33.609140625,-70.3187952041626L34.001171875,-26.83643356959024L34.0765625,34.717201630274474L34.182109374999996,38.98864769935608L34.272578124999995,15.629867156346648L34.8003125,-15.897561073303194L34.83046875,10.643035809199034L34.95109375,17.766504526138306L35.388359375,69.81229567527771L35.689921875,33.16198770205179L36.504140625000005,49.53580959637961L36.51921875,-62.27967834472656L36.820781249999996,39.76726277669272L37.092187499999994,74.4429817199707L37.1525,34.22702415784201L37.303281250000005,31.717572450637817L38.238125000000004,-7.2283265590667725L38.99203125,-55.50168768564859L39.007109375,28.70418135325113L39.504687499999996,59.534651676813766L39.71578125,41.57774035135904L39.83640625,13.084920485814422L39.911796875,-53.4973241488139L39.941953125,-51.87341785430911L40.122890625000004,0.32642706235250785L40.273671875,-3.0451724529266357L40.92203125,19.10731856028241L41.04265625,-44.0641508102417L41.163281250000004,137.4052324295044L41.5553125,80.29254698753357L41.691015625,79.31725605328879L41.75132812499999,139.60723304748535L41.781484375,81.64306704203288L41.992578125,21.685556411743164L42.022734375,21.949658632278442L42.12828125,17.95185669263205L42.248906250000005,142.5741102695465L42.339375,20.63807988166809L42.761562500000004,79.80907464027405L43.862265625000006,36.96735723813376L44.35984375,-41.22258440653485L44.405078125,124.77690283457439L44.661406250000006,21.370532751083374L44.797109375000005,85.67732516924542L44.81218749999999,17.974457184473692L44.90265625,17.715465863545745L44.917734375,147.73180508613586L44.993125,146.5252342224121L45.26453125,82.64768703778586L45.309765625000004,85.47342840830485L45.44546875,21.598647673924773L46.184296875,83.15413498878479L46.22953125,80.27599517504375L46.32,22.759783109029144L46.41046875000001,148.84173774719238L46.485859375,22.88349970181784L46.636640625,83.19286529223125L46.727109375,86.41601427396138L46.8025,146.57205287615457L47.5865625,149.37296652793884L47.661953125,84.51279028256734L47.67703125,145.9216557343801L47.9484375,21.817619244257628L48.144453125000005,13.410423835118621L48.34046875,83.75389202435812L48.9134375,146.9011901219686L49.169765625000004,-42.652464071909606L49.471328125,146.33273148536682L49.66734375,139.9000313282013L49.9990625,21.588847875595093L50.044296875,20.79897944132489L50.255390625000004,-39.344961802164704L50.315703125,18.99942700068155L51.039453125,86.77954459190369L51.144999999999996,22.111027081807464L51.47671875,-30.310602744420407L51.657656249999995,143.16125416755676L51.8084375,21.412967284520477L52.26078125,82.11756014823915L52.426640625,-39.56130758921307L52.547265625,22.967337210973113L52.637734375,81.89933880170186L53.120234374999995,83.79881167411806L53.180546875000005,22.906428416570037L53.5575,140.0358218352L53.79875,84.08429527282716L53.813828125,134.28563777605694L54.04,82.02847107251485L54.1003125,85.59231543540956L54.356640625,82.39312672615053L54.884375,80.21442993481955L55.004999999999995,81.0174507300059L55.3065625,84.95106164614361L55.517656249999995,84.09046117464702L55.653359375,84.50073981285095L55.743828125,21.87904381752014L55.81921875,85.04465206464133L55.924765625,82.51494431495667L56.06046875,83.87036426862082L56.2715625,22.923519452412933L56.30171875,84.42496720949809L56.346953125,-40.40854469935101L56.48265625,83.78690187136333L57.010390625,87.08113455772401L57.372265625,18.974435170491546L57.68890625,86.28191177050273L57.9603125,149.35627404848734L58.096015625,136.4480640888214L58.29203125,71.9801611105601L58.337265625,21.844767967859894L58.457890625,83.93999441464743L59.061015625,85.3037137190501L59.31734375,85.02545102437338L59.468125,145.45485242207846L59.513359375,78.06217853228252L59.814921874999996,74.39196650187176L60.056171875,82.46625010172527L60.327578124999995,141.99840728441873L60.508515625,-43.421724796295166L60.76484375,85.30315105120341L60.8553125,22.15873662630716L61.2171875,55.94989482561749L61.413203124999995,22.7444269657135L61.4584375,83.78338519732159L61.473515625000005,83.97623960177106L61.594140625,83.14098262786865L61.654453124999996,22.51743737856546L61.760000000000005,122.39051127433777L62.498828125,82.64323258399963L62.559140625000005,82.3059600989024L62.6646875,83.99368230501811L62.800390625,23.479318062464415L63.132109375,83.23590938250224L63.192421875,145.84578935305277L63.313046875,22.244191805521638L63.433671875,143.88118767738342L63.493984375000004,83.93924419085185L63.795546875,-41.41736125946045L63.870937500000004,83.6707578500112L63.886015625,85.34047468503317L63.961406249999996,22.75586787859598L64.14234375,85.94923440615337L64.187578125,33.71490263938904L64.26296875,20.028124491373717L64.549453125,142.63778551419577L64.79070312500001,140.0054846604665L64.941484375,-41.061333179473905L65.122421875,85.79771264394125L65.514453125,22.252280155817687L65.65015625,21.800809542338072L66.177890625,22.50508213043213L66.19296874999999,-39.87837092081705L66.223125,84.87683637936911L66.8865625,-41.85722684860232L67.0071875,149.39209723472595L67.14289062499999,80.84689203898114L67.173046875,22.675148487091064L67.24843750000001,83.17092124621074L67.62539062500001,86.37660408020021L67.64046875,23.081347783406585L67.79124999999999,22.985061248143523L67.82140625,146.93225407600403L67.89679687499999,146.86060770352682L68.10789062500001,87.18112532297772L68.198359375,-42.08693599700928L68.3340625,79.79723517100017L68.56023437500001,23.262245496114105L68.650703125,22.91060153643292L69.02765625,85.42693797747295L69.359375,21.80758500099182L69.44984375,22.70386799176535L69.70617187500001,23.32313084602356L69.796640625,82.84279211362204L70.188671875,22.472892840703338L70.53546875,146.7517314751943L70.641015625,23.427552620569884L70.71640624999999,86.6139561335246L70.91242187499999,22.677164713541657L71.47031249999999,22.714160124460875L71.68140625000001,15.087127129236876L72.209140625,21.15993086496991L73.460625,22.49443833033243L73.596328125,85.55306935310365L73.73203125,84.17132123311362L73.8225,-39.94223372141522L74.18437499999999,-39.340179125467955L74.893046875,24.726658900578826L75.013671875,20.34884516398114L75.55648437500001,83.88792419433594L75.797734375,85.03579004605612L75.84296875,82.18536162376404L75.96359375,22.428301413853973L76.008828125,79.85127472877502L76.370703125,85.43898844718933L76.431015625,144.7554562886556L76.883359375,86.3959223429362L77.45632812500001,23.86090064048767L77.72773437500001,22.656838337580382L77.818203125,147.8376804192861L78.05945312499999,22.774553140004485L78.330859375,22.92321467399597L78.3459375,81.50746409098308L78.85859375,84.94224651654562L79.00937499999999,84.61646183331808L79.05460937500001,86.42323517799379L79.0696875,22.345073461532593L79.09984375,23.06097451845804L79.114921875,131.40027705828348L79.491875,147.92899672190347L79.989453125,20.608117818832397L80.592578125,-40.02302344640097L81.06,22.863595326741546L81.467109375,21.90469209353128L81.5425,139.19845485687256L81.87421875000001,23.09332791964215L82.160703125,23.564116795857757L82.386875,84.6605609258016L82.62812500000001,85.32678310076396L83.065390625,147.3910628159841L83.110625,-39.423829078674316L83.487578125,150.55424078305563L83.87960937499999,19.19368807474774L84.1359375,138.41118876139322L84.4375,85.60406112670898L84.70890625,81.37366636594138L84.7390625,148.20498530069986L84.76921875000001,74.91503659884137L84.85968749999999,37.2931419213613L85.281875,80.25522335370381L85.49296875,148.3315621217092L86.33734375,-40.11183118820193L86.39765625000001,86.00798630714418L86.563515625,-42.43025716145837L87.0309375,23.77851668993634L87.1515625,17.492039839426667L87.34757812500001,147.13666661580405L87.42296875000001,142.04782827695212L87.66421875,23.948465824127197L87.739609375,82.41249187787373L87.769765625,23.140334129333496L87.920546875,86.49982833862306L87.980859375,23.680354595184326L88.418125,19.823102394739806L88.59906249999999,23.120195309321105L89.38312499999999,81.85990516344708L89.54898437499999,151.214906613032L89.8053125,86.0883305867513L90.22749999999999,87.8387902577718L90.61953125000001,23.227688312530518L90.80046875,22.103782733281463L90.966328125,149.55020689964294L91.0115625,85.32929166158041L91.87101562500001,22.623805046081543L91.94640625000001,73.00055925051372L91.961484375,-39.79139184951782L92.112265625,23.303625027338654L93.21296875,23.73894238471985L93.378828125,83.68135476112366L93.39390625,146.7901335557302L93.42406249999999,20.933855613072723L93.49945312499999,80.43539428710938L93.51453125,84.81902225812277L93.891484375,22.79335562388104L93.966875,141.03530748685202L94.01210937500001,24.07820765177408L94.132734375,86.98627813657126L94.434296875,145.30562822024027L94.47953125,84.73877175649007L94.49460937500001,23.676767587661743L94.72078124999999,59.32763679822287L95.0525,23.193342129389464L95.248515625,85.06186032295228L95.278671875,84.99040150642395L95.4746875,83.74648356437685L96.032578125,86.76165644327801L96.394453125,138.12448604901633L96.5,23.280086755752563L96.59046875,86.52955595652264L96.95234375,-39.353917598724394L96.99757812499999,86.0979662736257L97.88718750000001,56.210363149642944L98.14351562499999,84.69666544596355L98.15859375000001,85.56216581662497L98.46015625,136.51968701680502L98.505390625,85.71469569206239L98.64109375000001,23.120711088180542L99.18390625,16.31620470682782L99.229140625,83.23426826794943L99.470390625,62.45534324645996L99.9378125,87.17852298418681L100.36,23.054714838663756L100.480625,20.699574788411468L100.54093750000001,-39.369953632354765L100.6615625,81.53421425819397L100.827421875,85.40497048695883L101.219453125,106.6454003651937L101.29484375,149.40278792381287L101.53609375,146.0604940255483L101.77734375,23.1045343875885L101.89796875,85.90253297487895L102.03367187500001,85.25738739967346L102.169375,86.70363132158917L102.335234375,-34.03630789120993L102.3503125,86.29011734326681L102.53125,82.53759169578552L102.56140625,-39.36493651072186L103.134375,23.266254504521697L103.31531249999999,88.12781397501628L103.601796875,22.770192464192718L103.94859375,-39.49397500356042L104.25015625,47.6254115899404L104.97390625,23.689451058705657L105.109609375,149.1821517944336L105.15484375,83.88192240397137L105.185,88.06554539998373L105.953984375,86.98060456911723L105.99921875,86.92276700337729L106.30078125,23.411516586939513L106.3309375,148.25119439760843L106.34601562499999,85.5022885799408L106.45156250000001,85.36068383852641L106.72296874999999,23.589319626490266L107.14515625,86.58926908175152L107.44671875,-39.40549548467001L107.476875,21.430222431818663L107.56734374999999,86.53778497378033L108.034765625,78.43989276885986L108.29109375,149.52371462186179L108.5625,150.32514119148254L108.683125,23.020907878875732L109.150546875,87.65854899088542L109.55765625000001,86.08683013916016L109.904453125,85.69978499412537L110.34171875,22.428348302841187L110.50757812500001,84.74599266052248L110.748828125,143.78567481040955L110.95992187499999,23.344910780588805L111.2765625,15.67963981628418L111.8796875,23.805946747461974L112.21140625,23.76109743118286L112.286796875,77.85725021362306L112.8446875,-40.24776236216229L113.01054687499999,85.94238861401877L113.101015625,85.12914601961774L113.31210937499999,86.39472667376202L113.342265625,23.185746113459288L113.824765625,141.01130032539368L114.186640625,85.42196774482727L114.367578125,147.50427627563477L114.397734375,86.8942350546519L114.488203125,82.74348123868307L114.669140625,86.00186729431154L115.04609375,87.3155091603597L115.46828125,87.2398537794749L115.49843750000001,-39.60693057378134L115.55874999999999,23.46192224820456L115.784921875,22.739831844965607L116.403125,22.81883978843689L116.44835937500001,81.43401249249777L117.2475,147.7501621246338L117.292734375,22.82964769999188L117.443515625,82.48770181337993L117.714921875,23.60924744606018L117.72999999999999,86.23943034807843L117.986328125,-39.986356258392334L118.03156249999999,148.4380001227061L118.54421875,20.55386726061502L118.574375,86.3244635264079L118.67992187499999,83.56082661946616L119.08703125,-41.707650979359954L119.222734375,24.381602843602508L119.539375,23.77680524190268L119.90125,83.48531190554301L119.97664062499999,83.33522025744122L120.067109375,85.18787447611491L120.47421875,145.93330764770508L120.77578125000001,84.86527824401855L120.85117187499999,23.196343024571746L121.07734375,148.22198255856833L121.152734375,147.04136474927267L121.80109374999999,23.838300148646027L121.86140625,-39.39635213216147L122.17804687499999,83.84931111335754L122.208203125,149.46397805213928L122.449453125,79.73081692059836L122.479609375,20.14541729291281L122.57007812500001,-39.42176596323648L122.60023437500001,81.04220811525981L122.87164062500001,81.11029092470805L123.21843750000001,22.628775278727232L123.354140625,85.61128203074139L123.640625,85.15423162778218L123.806484375,23.214020172754942L123.836640625,-39.376330534617125L123.927109375,23.843645493189513L124.123125,86.29836980501811L124.39453125,22.780672152837127L124.982578125,23.03858502705893L125.329375,86.11055596669516L125.38968750000001,23.568852583567292L125.404765625,-40.419188499450684L125.5103125,22.5778303941091L125.76664062500001,-39.91424099604288L125.9325,145.93323731422424L126.09835937499999,148.26987965901694L126.20390625,148.6013847986857L126.294375,86.31405417124431L126.65625,150.9095186392466L127.545859375,150.39575600624084L128.088671875,23.425536394119263L128.10375,138.84512289365134L128.1640625,86.6871967315674L128.465625,86.80978798866273L128.48070312500002,148.2724351088206L128.49578125,-40.09720182418823L128.61640625,17.202406565348326L129.27984375,21.67585039138794L129.38539062499999,81.96995361646017L129.430625,86.96911676724753L129.717109375,-40.712244669596345L130.53132812500002,87.7265145778656L130.66703125,22.463093042373657L130.6971875,22.3712375164032L130.7575,-10.058076937993349L130.84796875,12.288159370422363L130.893203125,85.45727515220644L130.99875,70.49239699045818L131.119375,151.75239507357279L131.164609375,24.526466369628906L131.345546875,148.36159451802573L131.75265625,78.88625248273213L131.81296875,23.973809321721404L131.978828125,21.207968632380158L132.1446875,22.341322342554747L133.17,-40.05143817265832L133.38109375,23.925630887349456L133.50171875,86.65730500221252L133.71281249999998,87.58324527740479L133.72789062500001,85.53942465782166L134.119921875,24.069697300593077L134.331015625,86.3822542031606L134.70796875,87.65885376930238L135.145234375,149.50280213356018L135.19046875,85.63137396176657L135.58249999999998,86.25002725919089L135.85390625,147.93996874491373L135.91421875,22.65726033846539L136.291171875,-39.58606497446698L136.683203125,23.69868818918866L137.075234375,87.20051391919453L137.30140625,101.95244574546814L137.42203125,70.9229551156362L137.437109375,126.46687571207683L137.768828125,23.777039686838805L137.829140625,149.62328338623047L138.040234375,151.57705370585123L138.64335937500002,23.078651666641235L138.77906249999998,86.97537644704182L138.96,84.01722057660422L139.24648437500002,85.14361127217612L139.29171875,86.69223729769391L139.427421875,148.2979427178701L140.2265625,23.535209735234588L140.392421875,23.467572371164948L140.66382812499998,23.967033863067627L140.814609375,84.40921250979108L140.82968749999998,23.4800917307536L141.10109375,86.75103608767192L141.116171875,85.97652379671734L141.46296875000002,23.778493245442718L141.52328125000003,-39.3403197924296L141.74945312499997,21.446211576461792L142.20179687499999,85.9877068201701L142.3375,140.69001698493958L142.382734375,149.49051721890768L142.48828125,75.76625927289328L142.6390625,86.56315191586813L142.684296875,60.14045739173889L142.7596875,86.4263064066569L142.91046875,82.00127545992535L143.27234374999998,-39.36320161819461L143.408046875,86.75896032651266L143.69453125,-39.37112585703531L143.950859375,23.789090156555176L144.88570312500002,86.44677344957988L145.41343750000001,17.360445896784483L145.669765625,86.3930855592092L145.820546875,86.06111152966817L145.8959375,79.79252282778424L146.061796875,150.18454456329346L146.15226562499998,86.3753849665324L146.2578125,84.71267803510031L146.52921874999998,23.580410718917847L146.604609375,-39.338866233825684L146.67999999999998,22.165160417556763L146.95140625,85.295086145401L147.117265625,87.61013611157736L147.16250000000002,87.61287911732992L147.4640625,21.56854494412741L147.5846875,130.5740931034088L147.73546875,23.73258892695108L147.91640625000002,23.646360079447447L148.263203125,87.33672642707825L148.33859375,87.48855296770734L149.258359375,87.7605090936025L149.2734375,-39.45440069834393L149.75593750000002,69.68170984586081L150.404296875,86.23565578460695L150.52492187500002,21.096935510635376L150.64554687499998,86.05307006835938L150.660625,86.3981026808421L151.17328125,85.54160499572754L151.339140625,142.35565447807312L151.520078125,86.63890107472739L151.77640624999998,150.34188055992126L152.68109375,150.80256485939026L153.04296875,149.41038393974304L153.4953125,86.5437867641449L153.55562500000002,23.290144443511963L153.76671875,86.60188221931458L154.023046875,86.68063227335614L154.113515625,86.96618620554607L154.746796875,140.16802533467612L154.988046875,22.826177914937347L155.15390625,23.744451840718597L155.28960937500003,149.27536710103354L155.410234375,87.69913140932721L155.711796875,150.02842768033346L155.74195312499998,88.00702794392905L155.7871875,86.50545501708984L155.81734375,150.88222924868265L155.9078125,88.3545691172282L156.20937500000002,150.14672859509787L156.254609375,150.11836075782776L156.32999999999998,85.24027291933696L156.465703125,60.0640048980713L157.521171875,23.779618581136077L157.822734375,86.45837847391765L157.8378125,82.82586518923443L157.86796875,86.77452747027081L158.0790625,85.48252487182617L158.139375,22.212143182754517L158.27507812500002,23.939791361490876L158.29015625,151.68264770507812L158.365546875,86.84762740135193L158.4409375,23.79581872622174L158.667109375,55.12849354743959L159.13453125,86.86230365435284L159.31546874999998,69.30001004536948L159.421015625,140.63074930508932L159.49640625,70.64077719052632L159.7075,149.54279843966165L159.843203125,87.78918170928955L160.23523437499998,86.64330863952638L160.34078125,149.05388696988425L160.355859375,150.7648426691691L160.49156250000001,85.52545173962912L161.06453125,23.574713706970215L161.18515625,86.7600387732188L161.200234375,86.50461101531982L161.260546875,75.98065916697185L161.743046875,149.59826811154684L162.45171875,86.81642278035483L162.51203124999998,85.82188391685487L162.7834375,140.42378131548563L162.858828125,22.929779132207244L163.13023437500001,86.67310659090678L163.17546875,148.76261258125305L163.49210937499998,150.2719690799713L163.65796874999998,87.64056706428528L164.01984374999998,109.88048259417216L164.12539062500002,87.20984482765199L164.38171875,23.636067946751922L164.41187499999998,86.65547633171082L164.457109375,85.73375606536865L164.77375,150.56715869903564L164.80390625,86.81079610188802L164.87929687500002,24.0488785902659L165.04515625000002,87.61726323763531L165.22609375,33.66897487640381L165.48242187500003,150.20721538861594L165.753828125,150.9865103562673L165.844296875,18.404382308324188L165.995078125,23.64211662610373L166.266484375,18.306689103444427L166.2815625,84.45713305473329L166.68867187499998,86.37934708595277L166.809296875,149.6957972049713L166.960078125,84.71213881174724L167.1259375,87.16365917523703L167.44257812499998,86.29288379351298L167.713984375,23.67414180437723L168.19648437499998,87.49199930826823L168.30203125,24.23615320523581L169.08609375,87.45202644666035L169.11624999999998,87.99514158566792L169.26703125,150.11174941062927L169.37257812500002,152.09055844942728L169.7796875,-39.40418259302777L170.09632812499999,23.106198946634947L170.247109375,85.76477313041687L170.488359375,151.36098925272623L170.51851562500002,150.38794898986816L170.6240625,-39.33989779154459L171.1065625,144.7373571395874L171.18195312499998,149.78179160753885L171.3478125,23.40284212430319L171.42320312500001,86.58880019187927L172.0715625,21.997297843297332L172.116796875,23.51380491256714L172.41835937500002,22.96740754445395L172.508828125,22.494344552358L172.52390625,87.14157446225485L172.91593749999998,86.27879365285239L173.021484375,85.75680200258891L173.97140625,86.79661218325298L174.107109375,80.70584996541342L174.21265624999998,-5.963121016820281L174.25789062500002,148.49398557345071L174.3634375,24.0168534119924L174.408671875,19.47818700472513L174.740390625,23.56730524698895L174.90625,87.06962331136069L175.07210937500003,84.68065285682678L175.253046875,86.41533438364665L175.268125,84.9874709447225L175.313359375,144.5263332525889L175.67523437499997,149.98092913627625L175.76570312500002,82.84743412335715L176.11249999999998,152.06819240252176L176.26328125,23.316261609395355L176.38390625,86.21673607826233L176.56484375,87.06125362714131L177.303671875,149.84975719451904L177.439375,144.6731895605723L177.57507812499998,86.45174368222555L178.1028125,-41.07868210474652L178.525,147.40055783589682L178.570234375,-39.33459933598837L179.173359375,87.87245655059814L179.535234375,23.007755517959595L179.68601562499998,87.77828001976015L180.5153125,23.545900424321502L180.71132812500002,152.01124572753906L181.14859374999997,150.74606362978616L181.69140625,23.365026156107575L181.766796875,81.92299429575604L181.781875,86.84804940223694L181.81203125,88.37520027160646L182.023125,56.69219438234967L182.2040625,93.28285956382751L182.55085937500002,87.00641695658368L182.641328125,86.65144387880962L182.8675,85.38098676999411L182.95796875,23.895012378692627L183.10875,-39.33966334660849L183.470625,87.39784622192384L183.726953125,88.50360576311748L184.05867187500002,-39.33628733952841L184.52609375,86.81557877858481L184.631640625,22.361859718958556L184.79749999999999,23.470221598943084L185.03875000000002,-39.335208892822266L185.0990625,85.10724886258444L185.20460937500002,151.34929045041403L185.28,149.61969637870789L185.807734375,-40.86308654149374L185.91328125,23.47270671526593L186.45609375,-39.61260414123538L186.87828125000001,-41.40788968404135L186.9084375,150.1639368534088L186.923515625,23.81154998143515L186.953671875,86.57260004679364L187.044140625,150.1832082271576L187.17984375,85.84443751970929L187.2703125,142.5312537352244L187.345703125,87.32833329836528L187.78296875,86.7413300673167L187.99406249999998,23.316660165786743L188.159921875,24.245062112808228L188.310703125,23.705393314361572L188.37101562499998,86.67563859621684L188.38609375000001,24.038703680038452L188.80828125,23.34282422065735L188.943984375,23.39416766166687L189.06460937499997,86.31224894523622L189.29078124999998,87.29715212186177L189.305859375,86.82573024431865L189.486796875,150.8532987435659L189.95421875,17.453754981358856L190.089921875,23.44691777229309L190.28593750000002,96.07005818684897L190.34625,87.04104447364809L190.42164062499998,87.60094587008159L190.55734375,86.74508118629456L190.67796875000002,23.160613616307586L190.783515625,87.35405190785727L190.79859374999998,24.103832483291626L191.05492187500002,88.17097528775534L191.507265625,19.84270199139914L191.65804687500003,85.75860722859701L192.2159375,22.590537309646606L192.35164062500002,149.9426208337148L192.36671875,86.24857370058696L192.4571875,85.45786126454671L192.69843749999998,6.779031594594329L192.803984375,23.193013906478882L193.226171875,86.64490286509196L193.24124999999998,20.072504917780577L193.376953125,85.89739863077801L193.45234374999998,86.75724887847902L193.61820312499998,23.190810124079405L193.75390625,84.48465689023337L193.965,24.050003925959288L194.130859375,88.11252816518149L194.53796874999998,86.77222990989686L194.583203125,22.67010792096457L194.71890625,150.78137103716531L195.095859375,-39.33910067876184L195.156171875,-39.375486532847106L195.29187499999998,23.891683260599763L195.50296875,142.57879916826886L195.5934375,150.46210392316183L195.62359375,86.13294545809428L196.13625,83.40909385681154L196.22671875,23.684035380681365L196.31718750000002,85.69045408566794L196.34734375,87.09632658958436L196.362421875,87.72182567914328L196.513203125,147.96381179491678L196.58859375,-39.33642800649008L196.7996875,87.29701145490012L196.935390625,23.698875745137542L197.176640625,23.34230844179791L197.55359375,24.155949592590332L197.840078125,87.12656998634338L197.97578125,149.81170678138733L198.2471875,84.71581959724428L198.654296875,23.726329247156798L199.00109375,87.00191561381023L199.03125,-39.389084339141846L199.046328125,88.69148993492126L199.8153125,150.35650992393494L199.9359375,23.704713424046844L199.981171875,151.10091948509216L200.116875,79.17762064933777L200.68984375,149.5573340257009L201.15726562499998,86.83098181088766L201.458828125,141.9456102848053L201.564375,23.42141016324362L201.669921875,-39.578750292460114L201.74531249999998,-40.80522553126019L202.212734375,87.16677729288739L202.33335937500001,80.84175769488017L202.363515625,23.893746376037598L202.876171875,87.43397418657939L202.92140625000002,24.032139221827208L203.1325,44.42455832163492L203.177734375,23.83140746752423L203.34359375,-39.33333333333334L203.43406249999998,85.49293422698976L203.85625,151.0786472161611L203.90148437500002,86.6331102848053L203.9165625,82.98109118143718L204.00703125,85.09810551007588L204.0371875,20.994576851526915L204.293515625,86.90251096089682L204.414140625,-41.39827744166058L204.54984375,88.21664516131084L204.77601562499999,56.555888096491515L205.017265625,89.06388227144878L205.6053125,86.88466970125836L205.78625,21.676202058792114L205.81640625,150.60863200823465L205.9671875,148.9906806151072L206.133046875,87.8860543568929L206.23859374999998,24.51193078358969L206.34414062500002,-39.881887594858824L206.374296875,11.733837763468415L206.63062499999998,86.41568605105083L206.917109375,24.045971473058074L207.459921875,88.37733372052512L207.610703125,87.71434688568117L207.86703125,23.480255842208862L207.9575,23.608450333277403L208.093203125,23.352999130884797L208.545546875,148.67975974082947L208.89234375,-39.46631050109863L208.90742187499998,24.33926208813986L209.178828125,100.8977717558543L209.60101562499997,148.80366388956705L209.67640624999999,23.74764029184979L209.872421875,23.862494866053282L210.08351562500002,87.5862696170807L210.20414062499998,21.34680692354837L210.27953125,86.9702889919281L210.3096875,23.931562344233186L210.324765625,23.225789308547974L210.62632812500001,23.829930464426695L210.70171875,87.35039456685385L210.9128125,22.55401078859967L211.06359375,24.09000023206076L211.138984375,87.18386832873028L211.24453125,-39.40605815251669L211.531015625,82.0092465877533L211.71195312499998,86.19242413838705L212.2396875,86.97661900520325L212.375390625,22.490476210912078L213.099140625,150.80476864178976L213.17453124999997,23.93362545967102L213.40070312499998,23.57590937614441L213.5665625,87.91514897346497L213.62687499999998,151.97861099243164L213.86812500000002,87.41671903928122L214.064140625,22.33412488301596L214.365703125,88.36331391334534L214.50140625,23.970316092173277L214.62203125000002,150.85386141141257L214.92359374999998,75.20063742001852L215.16484375000002,23.92769400278729L215.46640625,24.568877458572388L215.51164062499998,-39.333802223205566L215.752890625,-39.34139823913574L215.994140625,87.16515962282817L216.16,87.67090423901877L217.06468750000002,23.07869855562845L217.20039062499998,88.36861236890157L217.21546875,86.89507905642192L217.66781250000003,86.88757681846619L217.95429687499998,85.93882505098979L217.99953125,87.71931711832683L218.33124999999998,24.00222404797873L218.9946875,22.773029247919737L219.311328125,-41.52459637324014L219.401796875,86.1882979075114L219.431953125,24.2864650885264L219.74859375,150.63639028867087L220.0803125,87.2611882686615L220.517578125,-39.80653699239096L221.211171875,87.17615509033203L221.452421875,23.835416475931822L221.633359375,88.08263643582663L222.52296875,87.14924081166585L222.76421875000003,23.676626920700073L223.231640625,23.52419082323712L223.352265625,23.691584507624327L223.66890625,149.69321831067404L224.045859375,24.66516399383545L224.12125,23.25523559252423L224.317265625,151.34917322794595L224.51328125,79.33258875211081L224.60375000000002,24.795726378758758L225.23703125,86.7980657418569L225.252109375,151.2013556957245L225.3275,-39.67473204930624L225.553671875,87.66729378700258L226.428203125,24.08803089459738L226.68453125,138.32650725046796L227.091640625,86.68269538879395L227.10671875,24.00550627708435L227.22734375,24.253689686457335L227.40828125000002,86.78632005055745L227.453515625,87.27931086222331L227.58921875000001,24.118579069773375L227.815390625,23.99938726425171L227.875703125,87.45636367797852L227.905859375,86.9489545027415L228.13203124999998,-39.33389600118002L228.4034375,83.5884676774343L228.67484374999998,85.71779036521912L228.90101562499999,85.17022077242534L229.051796875,146.68540700276694L229.09703125000001,88.55687165260315L229.27796874999999,85.62626306215924L229.293046875,22.604838450749725L229.353359375,23.807494084040314L229.775546875,87.73368859291077L230.167578125,23.70466653505963L230.66515625,150.920725107193L230.891328125,23.914400974909483L231.43414062500003,23.687669277191162L231.50953124999998,23.656933546066284L232.23328125,87.17641297976176L232.29359375,87.9041300614675L232.59515625,152.31761837005615L233.31890625,23.95364705721539L233.33398437500003,86.67024636268616L233.726015625,86.51286347707112L233.77124999999998,24.10730226834616L234.40453125000002,15.174856424331665L234.64578125,24.265693267186492L235.17351562500002,87.75661730766296L235.3996875,151.11135228474936L235.5203125,23.963071743647276L235.595703125,86.3335365454356L235.61078124999997,88.00618394215903L236.108359375,87.98515423138937L236.3646875,24.220632950464875L236.409921875,84.55203636487325L236.45515625000002,152.0825404326121L236.651171875,86.31571873029074L237.05828125,22.52707306543988L237.3296875,24.43960452079773L237.435234375,24.09876847267151L237.54078125,82.91300837198895L237.8725,150.2665299574534L238.189140625,24.2564326922099L238.38515625,-40.52084382375082L238.91289062500002,24.01814285914105L239.25968749999998,87.37733229001363L239.304921875,87.33107630411784L239.50093750000002,-39.3358653386434L239.56125,140.1518955230713L239.65171875000001,86.54549821217856L240.300078125,88.16223049163818L240.31515625,22.087043364842742L240.601640625,151.75410652160645L240.64687500000002,85.80336276690166L240.76749999999998,24.252540906270355L240.782578125,149.60755213101706L240.79765625000002,148.53845977783203L240.888125,86.5192169348399L241.18968750000002,82.69180957476298L241.21984375,24.262457927068084L241.49125,146.8148909409841L242.24515625,88.72787578900656L242.45624999999998,23.984922011693328L242.54671875000003,150.68585817019144L243.059375,23.409523804982513L243.677578125,149.16515453656515L244.099765625,87.49591453870137L244.50687499999998,150.6334597269694L244.582265625,85.83051149050397L244.672734375,-39.63740841547647L245.01953125,150.26995285352072L245.396484375,100.7945690949758L245.577421875,83.31937177975972L245.5925,23.587022066116333L245.68296875000001,23.537038405736297L245.818671875,87.35008978843689L246.075,23.49014941851297L246.2559375,108.92619792620341L246.34640625,151.80174573262533L246.64796875000002,-39.33905378977457L246.70828125,87.36746215820314L247.07015625,87.64244262377422L247.10031249999997,87.23610266049704L247.236015625,150.17392420768738L247.989921875,-39.33370844523114L248.351796875,86.93720881144208L248.366875,-39.44155311584473L248.69859375,87.60209465026857L249.22632812499998,87.68349393208821L249.24140625,-39.33469311396283L249.60328124999998,22.530542850494385L249.6334375,23.473597606023162L249.648515625,23.961454073588072L250.100859375,23.842074712117522L250.4778125,150.75169030825296L250.52304687499998,24.157450040181487L250.553203125,-39.33661556243899L250.77937500000002,87.39168032010396L250.86984375,87.00585428873698L251.17140625,150.69317285219827L251.3221875,24.484242836634337L251.337265625,150.40417257944742L251.457890625,-39.99132649103802L251.518203125,84.36853631337485L251.608671875,145.82276686032614L251.849921875,23.74067727724713L252.49828125,24.003279050191253L252.67921875000002,151.39186565081278L252.845078125,-39.4241573015849L252.995859375,86.36931284268698L253.01093749999998,24.180542866388947L253.07125,46.80098597208661L253.1315625,151.7928368250529L253.191875,24.125776529312134L253.448203125,86.95783996582031L253.538671875,87.56962402661642L253.59898437500001,86.884388367335L253.629140625,149.96812844276428L254.00609375,87.49537531534831L254.292578125,24.460821787516295L254.398125,86.97000765800476L254.41320312500002,24.46600302060446L254.503671875,151.1883205572764" style="fill: none;" fill="none"></path></g></g></g></g></g></g><g transform="translate(58, 177)" clip-path="url(#clip_1)"><clipPath id="clip_1"><rect width="271" height="22"></rect></clipPath><g><g><line x1="0" y1="0" x2="0" y2="5" style="visibility: inherit;" fill="rgb(0, 0, 0)" stroke="rgb(204, 204, 204)" stroke-width="1px"></line><line x1="30.15625" y1="0" x2="30.15625" y2="5" style="visibility: inherit;" fill="rgb(0, 0, 0)" stroke="rgb(204, 204, 204)" stroke-width="1px"></line><line x1="60.3125" y1="0" x2="60.3125" y2="5" style="visibility: inherit;" fill="rgb(0, 0, 0)" stroke="rgb(204, 204, 204)" stroke-width="1px"></line><line x1="90.46875" y1="0" x2="90.46875" y2="5" style="visibility: inherit;" fill="rgb(0, 0, 0)" stroke="rgb(204, 204, 204)" stroke-width="1px"></line><line x1="120.625" y1="0" x2="120.625" y2="5" style="visibility: inherit;" fill="rgb(0, 0, 0)" stroke="rgb(204, 204, 204)" stroke-width="1px"></line><line x1="150.78125" y1="0" x2="150.78125" y2="5" style="visibility: inherit;" fill="rgb(0, 0, 0)" stroke="rgb(204, 204, 204)" stroke-width="1px"></line><line x1="180.9375" y1="0" x2="180.9375" y2="5" style="visibility: inherit;" fill="rgb(0, 0, 0)" stroke="rgb(204, 204, 204)" stroke-width="1px"></line><line x1="211.09375" y1="0" x2="211.09375" y2="5" style="visibility: inherit;" fill="rgb(0, 0, 0)" stroke="rgb(204, 204, 204)" stroke-width="1px"></line><line x1="241.25" y1="0" x2="241.25" y2="5" style="visibility: inherit;" fill="rgb(0, 0, 0)" stroke="rgb(204, 204, 204)" stroke-width="1px"></line><line x1="271.40625" y1="0" x2="271.40625" y2="5" style="visibility: inherit;" fill="rgb(0, 0, 0)" stroke="rgb(204, 204, 204)" stroke-width="1px"></line></g><g transform="translate(0, 8)"><text x="0" y="0" dx="0em" dy="0.95em" style="text-anchor: middle; visibility: hidden; font-family: &quot;Helvetica Neue&quot;, sans-serif; font-size: 12px; font-weight: 200;" fill="rgb(50, 49, 63)" stroke="none" stroke-width="1px">-2k</text><text x="30.15625" y="0" dx="0em" dy="0.95em" style="text-anchor: middle; visibility: inherit; font-family: &quot;Helvetica Neue&quot;, sans-serif; font-size: 12px; font-weight: 200;" fill="rgb(50, 49, 63)" stroke="none" stroke-width="1px">0</text><text x="60.3125" y="0" dx="0em" dy="0.95em" style="text-anchor: middle; visibility: inherit; font-family: &quot;Helvetica Neue&quot;, sans-serif; font-size: 12px; font-weight: 200;" fill="rgb(50, 49, 63)" stroke="none" stroke-width="1px">2k</text><text x="90.46875" y="0" dx="0em" dy="0.95em" style="text-anchor: middle; visibility: inherit; font-family: &quot;Helvetica Neue&quot;, sans-serif; font-size: 12px; font-weight: 200;" fill="rgb(50, 49, 63)" stroke="none" stroke-width="1px">4k</text><text x="120.625" y="0" dx="0em" dy="0.95em" style="text-anchor: middle; visibility: inherit; font-family: &quot;Helvetica Neue&quot;, sans-serif; font-size: 12px; font-weight: 200;" fill="rgb(50, 49, 63)" stroke="none" stroke-width="1px">6k</text><text x="150.78125" y="0" dx="0em" dy="0.95em" style="text-anchor: middle; visibility: inherit; font-family: &quot;Helvetica Neue&quot;, sans-serif; font-size: 12px; font-weight: 200;" fill="rgb(50, 49, 63)" stroke="none" stroke-width="1px">8k</text><text x="180.9375" y="0" dx="0em" dy="0.95em" style="text-anchor: middle; visibility: inherit; font-family: &quot;Helvetica Neue&quot;, sans-serif; font-size: 12px; font-weight: 200;" fill="rgb(50, 49, 63)" stroke="none" stroke-width="1px">10k</text><text x="211.09375" y="0" dx="0em" dy="0.95em" style="text-anchor: middle; visibility: inherit; font-family: &quot;Helvetica Neue&quot;, sans-serif; font-size: 12px; font-weight: 200;" fill="rgb(50, 49, 63)" stroke="none" stroke-width="1px">12k</text><text x="241.25" y="0" dx="0em" dy="0.95em" style="text-anchor: middle; visibility: inherit; font-family: &quot;Helvetica Neue&quot;, sans-serif; font-size: 12px; font-weight: 200;" fill="rgb(50, 49, 63)" stroke="none" stroke-width="1px">14k</text><text x="271.40625" y="0" dx="0em" dy="0.95em" style="text-anchor: middle; visibility: hidden; font-family: &quot;Helvetica Neue&quot;, sans-serif; font-size: 12px; font-weight: 200;" fill="rgb(50, 49, 63)" stroke="none" stroke-width="1px">16k</text></g><line x1="0" y1="0" x2="271.40625" y2="0" fill="rgb(0, 0, 0)" stroke="rgb(204, 204, 204)" stroke-width="1px"></line></g></g></g></g></svg>