<svg viewBox="0 0 330 200" xmlns="http://www.w3.org/2000/svg"><g><g><g><g><g><line x1="58.59375" y1="177" x2="53.59375" y2="177" style="visibility: inherit;" fill="rgb(0, 0, 0)" stroke="rgb(204, 204, 204)" stroke-width="1px"></line><line x1="58.59375" y1="157.33333333333334" x2="53.59375" y2="157.33333333333334" style="visibility: inherit;" fill="rgb(0, 0, 0)" stroke="rgb(204, 204, 204)" stroke-width="1px"></line><line x1="58.59375" y1="137.66666666666666" x2="53.59375" y2="137.66666666666666" style="visibility: inherit;" fill="rgb(0, 0, 0)" stroke="rgb(204, 204, 204)" stroke-width="1px"></line><line x1="58.59375" y1="118" x2="53.59375" y2="118" style="visibility: inherit;" fill="rgb(0, 0, 0)" stroke="rgb(204, 204, 204)" stroke-width="1px"></line><line x1="58.59375" y1="98.33333333333333" x2="53.59375" y2="98.33333333333333" style="visibility: inherit;" fill="rgb(0, 0, 0)" stroke="rgb(204, 204, 204)" stroke-width="1px"></line><line x1="58.59375" y1="78.66666666666666" x2="53.59375" y2="78.66666666666666" style="visibility: inherit;" fill="rgb(0, 0, 0)" stroke="rgb(204, 204, 204)" stroke-width="1px"></line><line x1="58.59375" y1="59" x2="53.59375" y2="59" style="visibility: inherit;" fill="rgb(0, 0, 0)" stroke="rgb(204, 204, 204)" stroke-width="1px"></line><line x1="58.59375" y1="39.33333333333334" x2="53.59375" y2="39.33333333333334" style="visibility: inherit;" fill="rgb(0, 0, 0)" stroke="rgb(204, 204, 204)" stroke-width="1px"></line><line x1="58.59375" y1="19.666666666666686" x2="53.59375" y2="19.666666666666686" style="visibility: inherit;" fill="rgb(0, 0, 0)" stroke="rgb(204, 204, 204)" stroke-width="1px"></line><line x1="58.59375" y1="0" x2="53.59375" y2="0" style="visibility: inherit;" fill="rgb(0, 0, 0)" stroke="rgb(204, 204, 204)" stroke-width="1px"></line></g><g transform="translate(48.59375, 0)"><text x="0" y="177" dx="0em" dy="0.3em" style="text-anchor: end; visibility: hidden; font-family: &quot;Helvetica Neue&quot;, sans-serif; font-size: 12px; font-weight: 200;" fill="rgb(50, 49, 63)" stroke="none" stroke-width="1px">-0.05</text><text x="0" y="157.33333333333334" dx="0em" dy="0.3em" style="text-anchor: end; visibility: inherit; font-family: &quot;Helvetica Neue&quot;, sans-serif; font-size: 12px; font-weight: 200;" fill="rgb(50, 49, 63)" stroke="none" stroke-width="1px">0</text><text x="0" y="137.66666666666666" dx="0em" dy="0.3em" style="text-anchor: end; visibility: hidden; font-family: &quot;Helvetica Neue&quot;, sans-serif; font-size: 12px; font-weight: 200;" fill="rgb(50, 49, 63)" stroke="none" stroke-width="1px">0.05</text><text x="0" y="118" dx="0em" dy="0.3em" style="text-anchor: end; visibility: inherit; font-family: &quot;Helvetica Neue&quot;, sans-serif; font-size: 12px; font-weight: 200;" fill="rgb(50, 49, 63)" stroke="none" stroke-width="1px">0.1</text><text x="0" y="98.33333333333333" dx="0em" dy="0.3em" style="text-anchor: end; visibility: hidden; font-family: &quot;Helvetica Neue&quot;, sans-serif; font-size: 12px; font-weight: 200;" fill="rgb(50, 49, 63)" stroke="none" stroke-width="1px">0.15</text><text x="0" y="78.66666666666666" dx="0em" dy="0.3em" style="text-anchor: end; visibility: inherit; font-family: &quot;Helvetica Neue&quot;, sans-serif; font-size: 12px; font-weight: 200;" fill="rgb(50, 49, 63)" stroke="none" stroke-width="1px">0.2</text><text x="0" y="59" dx="0em" dy="0.3em" style="text-anchor: end; visibility: hidden; font-family: &quot;Helvetica Neue&quot;, sans-serif; font-size: 12px; font-weight: 200;" fill="rgb(50, 49, 63)" stroke="none" stroke-width="1px">0.25</text><text x="0" y="39.33333333333334" dx="0em" dy="0.3em" style="text-anchor: end; visibility: inherit; font-family: &quot;Helvetica Neue&quot;, sans-serif; font-size: 12px; font-weight: 200;" fill="rgb(50, 49, 63)" stroke="none" stroke-width="1px">0.3</text><text x="0" y="19.666666666666686" dx="0em" dy="0.3em" style="text-anchor: end; visibility: hidden; font-family: &quot;Helvetica Neue&quot;, sans-serif; font-size: 12px; font-weight: 200;" fill="rgb(50, 49, 63)" stroke="none" stroke-width="1px">0.35</text><text x="0" y="0" dx="0em" dy="0.3em" style="text-anchor: end; visibility: hidden; font-family: &quot;Helvetica Neue&quot;, sans-serif; font-size: 12px; font-weight: 200;" fill="rgb(50, 49, 63)" stroke="none" stroke-width="1px">0.4</text></g><line x1="58.59375" y1="0" x2="58.59375" y2="177" fill="rgb(0, 0, 0)" stroke="rgb(204, 204, 204)" stroke-width="1px"></line></g></g><g transform="translate(58, 0)" clip-path="url(#clip_0)"><clipPath id="clip_0"><rect width="271" height="176"></rect></clipPath><g><g><g><line x1="0" y1="0" x2="0" y2="177" fill="rgb(0, 0, 0)" stroke="rgb(60, 60, 60)" stroke-width="1px" opacity="0.25"></line><line x1="30.15625" y1="0" x2="30.15625" y2="177" fill="rgb(0, 0, 0)" stroke="rgb(60, 60, 60)" stroke-width="1px" opacity="0.25"></line><line x1="60.3125" y1="0" x2="60.3125" y2="177" fill="rgb(0, 0, 0)" stroke="rgb(60, 60, 60)" stroke-width="1px" opacity="0.25"></line><line x1="90.46875" y1="0" x2="90.46875" y2="177" fill="rgb(0, 0, 0)" stroke="rgb(60, 60, 60)" stroke-width="1px" opacity="0.25"></line><line x1="120.625" y1="0" x2="120.625" y2="177" fill="rgb(0, 0, 0)" stroke="rgb(60, 60, 60)" stroke-width="1px" opacity="0.25"></line><line x1="150.78125" y1="0" x2="150.78125" y2="177" fill="rgb(0, 0, 0)" stroke="rgb(60, 60, 60)" stroke-width="1px" opacity="0.25"></line><line x1="180.9375" y1="0" x2="180.9375" y2="177" fill="rgb(0, 0, 0)" stroke="rgb(60, 60, 60)" stroke-width="1px" opacity="0.25"></line><line x1="211.09375" y1="0" x2="211.09375" y2="177" fill="rgb(0, 0, 0)" stroke="rgb(60, 60, 60)" stroke-width="1px" opacity="0.25"></line><line x1="241.25" y1="0" x2="241.25" y2="177" fill="rgb(0, 0, 0)" stroke="rgb(60, 60, 60)" stroke-width="1px" opacity="0.25"></line><line x1="271.40625" y1="0" x2="271.40625" y2="177" fill="rgb(0, 0, 0)" stroke="rgb(60, 60, 60)" stroke-width="1px" opacity="0.25"></line></g><g><line x1="0" y1="177" x2="271.40625" y2="177" fill="rgb(0, 0, 0)" stroke="rgb(60, 60, 60)" stroke-width="1px" opacity="0.25"></line><line x1="0" y1="157.33333333333334" x2="271.40625" y2="157.33333333333334" fill="rgb(0, 0, 0)" stroke="rgb(60, 60, 60)" stroke-width="1px" opacity="0.25"></line><line x1="0" y1="137.66666666666666" x2="271.40625" y2="137.66666666666666" fill="rgb(0, 0, 0)" stroke="rgb(60, 60, 60)" stroke-width="1px" opacity="0.25"></line><line x1="0" y1="118" x2="271.40625" y2="118" fill="rgb(0, 0, 0)" stroke="rgb(60, 60, 60)" stroke-width="1px" opacity="0.25"></line><line x1="0" y1="98.33333333333333" x2="271.40625" y2="98.33333333333333" fill="rgb(0, 0, 0)" stroke="rgb(60, 60, 60)" stroke-width="1px" opacity="0.25"></line><line x1="0" y1="78.66666666666666" x2="271.40625" y2="78.66666666666666" fill="rgb(0, 0, 0)" stroke="rgb(60, 60, 60)" stroke-width="1px" opacity="0.25"></line><line x1="0" y1="59" x2="271.40625" y2="59" fill="rgb(0, 0, 0)" stroke="rgb(60, 60, 60)" stroke-width="1px" opacity="0.25"></line><line x1="0" y1="39.33333333333334" x2="271.40625" y2="39.33333333333334" fill="rgb(0, 0, 0)" stroke="rgb(60, 60, 60)" stroke-width="1px" opacity="0.25"></line><line x1="0" y1="19.666666666666686" x2="271.40625" y2="19.666666666666686" fill="rgb(0, 0, 0)" stroke="rgb(60, 60, 60)" stroke-width="1px" opacity="0.25"></line><line x1="0" y1="0" x2="271.40625" y2="0" fill="rgb(0, 0, 0)" stroke="rgb(60, 60, 60)" stroke-width="1px" opacity="0.25"></line></g></g></g><g><g><line x1="0" y1="157.33333333333334" x2="271.40625" y2="157.33333333333334" fill="rgb(0, 0, 0)" stroke="rgb(153, 153, 153)" stroke-width="1.5px"></line></g></g><g><g><line x1="30.15625" y1="0" x2="30.15625" y2="177" fill="rgb(0, 0, 0)" stroke="rgb(153, 153, 153)" stroke-width="1.5px"></line></g></g><g><g><g><g><g><path style="fill: none;" stroke="rgb(255, 112, 67)" stroke-width="2px" d="M36.504140625000005,-17.406559731783034L36.51921875,5.080392018531484L36.820781249999996,0.7268431058207341L37.092187499999994,-3.879202295106012L37.1525,6.0045886272355915L37.303281250000005,12.498734374624604L38.238125000000004,4.973704744776597L38.645234375,-6.05311604094814L38.886484375,12.41118851679795L38.99203125,20.11185117815816L39.007109375,8.129122703208367L39.504687499999996,-6.9687713734014665L39.83640625,-5.309365642812793L39.911796875,2.8186181296787822L39.941953125,-0.23930637173990021L40.122890625000004,-12.791209048840358L40.273671875,19.128103662304824L40.92203125,17.61911522973847L41.04265625,2.284476317110716L41.163281250000004,5.828980968397218L41.5553125,9.775785799539563L41.691015625,28.07468092961014L41.75132812499999,41.55214554595321L41.781484375,35.4980484517684L41.992578125,47.17166982468308L42.022734375,52.939919510386034L42.12828125,45.26958476456443L42.248906250000005,67.95820321398023L42.339375,72.33458160378207L42.761562500000004,90.86966167942472L43.862265625000006,89.43721065077007L44.35984375,72.53234427721233L44.405078125,59.92575769495561L44.661406250000006,65.57042520461607L44.797109375000005,51.550819166262755L44.81218749999999,74.54733242312551L44.90265625,76.29540552712082L44.917734375,47.25914583959684L44.993125,55.5541147517018L45.26453125,62.431915696338464L45.309765625000004,52.266489935709686L45.44546875,56.045357026833244L46.184296875,47.515684129166914L46.22953125,71.70550603234784L46.32,43.17144185876933L46.41046875000001,35.94021077076354L46.485859375,32.725380097139094L46.636640625,44.89945109669242L46.727109375,39.18237806712946L46.8025,19.22659777038291L47.5865625,51.117355367499584L47.661953125,59.68882675040899L47.67703125,65.37493187250553L47.9484375,80.34046918515432L48.144453125000005,49.79553361933344L48.34046875,41.04218479303606L48.9134375,66.84587664055782L49.169765625000004,36.1995148246009L49.471328125,32.265339290999464L49.66734375,59.83126182000139L49.9990625,65.49295054594512L50.044296875,38.80949897148028L50.255390625000004,50.44357504453026L50.315703125,58.58272544470306L51.039453125,48.589140277146214L51.144999999999996,57.23534394066796L51.47671875,79.54529707990174L51.657656249999995,95.06805960730311L51.8084375,76.95488318728968L52.26078125,47.099879678539736L52.426640625,56.9089117980823L52.547265625,62.26883442884858L52.637734375,61.93120960255406L53.120234374999995,66.9623792320027L53.180546875000005,57.08146671012558L53.5575,32.40557096338182L53.79875,60.228410362098245L53.813828125,50.849204042240046L54.04,43.9415072205546L54.1003125,53.793303185998525L54.356640625,46.03658612556413L54.884375,37.15236421638946L55.004999999999995,63.93330193743472L55.3065625,37.48392653778387L55.517656249999995,48.8362441461592L55.653359375,57.7705899099696L55.743828125,61.8436017235898L55.81921875,81.90788620541429L55.924765625,82.94035713545594L56.06046875,83.05430721975792L56.2715625,52.47040535031272L56.30171875,45.24173010315414L56.346953125,70.66958315078719L56.48265625,73.95275522812246L57.010390625,76.87644934663292L57.372265625,95.00190081666769L57.68890625,92.40150261054522L57.9603125,90.59765583580558L58.096015625,86.31319019450723L58.29203125,54.83154613732289L58.337265625,76.76357081144216L58.457890625,78.55175450493984L59.061015625,69.88279876380827L59.31734375,42.484415449090704L59.468125,48.76804310094883L59.513359375,49.87931926704148L59.814921874999996,43.02410990013516L60.056171875,53.699175930444454L60.327578124999995,60.92111805108277L60.508515625,82.51647396505246L60.76484375,82.50025082304596L60.8553125,67.63550199186044L61.2171875,56.58895560843408L61.413203124999995,47.81244748479605L61.4584375,40.497629997473496L61.473515625000005,34.53031237785103L61.594140625,13.80266298574L61.654453124999996,31.01175875487712L61.760000000000005,44.440533957492676L62.498828125,70.66449623546178L62.559140625000005,74.3834857480264L62.6646875,46.05909241202227L62.800390625,48.00817311306784L63.132109375,41.93051151204102L63.192421875,37.27020448129903L63.313046875,47.34960644388707L63.433671875,53.68508799749884L63.493984375000004,61.24830768812161L63.795546875,37.24993781224853L63.870937500000004,33.524797506788644L63.886015625,62.50341123358383L63.961406249999996,68.05740465080753L64.14234375,88.05300458776674L64.187578125,56.46075090151834L64.26296875,47.70583937803028L64.549453125,55.24693303318638L64.79070312500001,62.67058875458328L64.941484375,68.52300484783709L65.122421875,87.6593790694779L65.514453125,102.58330709250956L65.65015625,82.91311411826976L66.177890625,83.57380004948789L66.19296874999999,99.61504972245557L66.223125,95.96041469518572L66.8865625,93.11472328551272L67.0071875,98.1422898925527L67.14289062499999,93.70913473731304L67.173046875,91.67142979723664L67.24843750000001,79.31212232205951L67.62539062500001,49.8615945529307L67.64046875,73.52888337026302L67.79124999999999,45.20129312209485L67.82140625,38.98331943849141L67.89679687499999,19.4386557429429L68.10789062500001,18.711493655207363L68.198359375,19.74906990044343L68.3340625,52.151250467350025L68.56023437500001,59.86449608366566L68.650703125,35.15518497189859L69.02765625,47.52467963818967L69.359375,41.33890177361809L69.44984375,36.94533138481367L69.70617187500001,49.21572942659961L69.796640625,41.7962586134129L70.188671875,21.50305330900241L70.53546875,37.36561320923977L70.641015625,16.031104561337003L70.71640624999999,32.36572894481762L70.91242187499999,60.59121814160558L71.47031249999999,60.887117778632415L71.68140625000001,66.85875511014538L72.209140625,54.98581015851843L73.460625,30.4682244253122L73.596328125,44.37114974756602L73.73203125,23.11570464043291L73.8225,39.05395464261662L74.18437499999999,34.814478882397594L74.893046875,31.930099645416476L75.013671875,45.519575308490516L75.55648437500001,39.60162199917238L75.797734375,51.097190406956926L75.84296875,73.65406493172354L75.96359375,76.38667026897899L76.008828125,79.05574706392443L76.370703125,49.33187710289269L76.431015625,58.28962691673806L76.883359375,79.94172081793326L77.45632812500001,64.02936545497799L77.72773437500001,69.00416833939097L77.818203125,72.92615908348581L78.05945312499999,76.49464231750314L78.330859375,61.54596419127533L78.3459375,51.95973123687304L78.85859375,60.6127027788411L79.00937499999999,77.2806934432611L79.05460937500001,63.87774595144904L79.0696875,69.40162867428545L79.09984375,89.37998097860324L79.114921875,72.30113917875369L79.491875,90.79914353744819L79.989453125,73.73769866426179L80.592578125,61.71440901453835L81.06,52.09527426568516L81.467109375,60.16226142431398L81.5425,66.35261268804864L81.87421875000001,66.74025413312096L82.160703125,85.93296445006152L82.386875,70.44662304114009L82.62812500000001,57.82967295636544L83.065390625,63.41923987902341L83.110625,69.20431597800975L83.487578125,57.66179739781707L83.87960937499999,64.83847329479518L84.1359375,84.2326726717499L84.4375,84.46402175383426L84.70890625,100.2499831486325L84.7390625,112.46907200387842L84.76921875000001,89.87073863548774L84.85968749999999,73.32102270875434L85.281875,60.89288716536218L85.49296875,66.80596302159759L86.33734375,71.78378452170408L86.39765625000001,89.13528124006595L86.563515625,72.52303993687062L87.0309375,91.12563689920049L87.1515625,90.26349084687531L87.34757812500001,73.153169758523L87.42296875000001,75.24971617806771L87.66421875,62.23143948376885L87.739609375,68.33685876770869L87.769765625,72.14902665752896L87.920546875,91.57260595946634L87.980859375,74.59564645352187L88.418125,91.98067975001722L88.59906249999999,88.86536700788942L89.38312499999999,72.27015504604958L89.54898437499999,75.81420196091653L89.8053125,78.25488416398198L90.22749999999999,64.40087957860591L90.61953125000001,72.28893054406382L90.80046875,75.24301378526451L90.966328125,76.50700207330603L91.0115625,94.64639829533219L91.87101562500001,97.7483138812439L91.94640625000001,94.1292075279939L91.961484375,101.4296877407847L92.112265625,96.22445186665765L93.21296875,78.14349395187413L93.378828125,80.14271599660407L93.39390625,95.85453841442653L93.42406249999999,107.30938122426272L93.49945312499999,117.51008107542603L93.51453125,94.07163796792693L93.891484375,91.82792196537694L93.966875,89.2155795789854L94.01210937500001,71.90222276936137L94.132734375,58.96849539048476L94.434296875,34.583816004093364L94.47953125,31.792962683326493L94.49460937500001,29.570176852147824L94.72078124999999,43.93639936419885L95.0525,69.4191474926488L95.248515625,89.13916029956304L95.278671875,88.37574606228496L95.4746875,56.70163844921835L96.032578125,79.42112091894728L96.394453125,80.81166342205074L96.5,66.17629720868979L96.59046875,69.72599579410692L96.95234375,58.149494763580364L96.99757812499999,65.33238483475475L97.88718750000001,86.71498683982227L98.14351562499999,71.00305700031555L98.15859375000001,74.45137093340541L98.46015625,75.3276119162454L98.505390625,61.388043265503654L98.64109375000001,67.4539500056142L99.18390625,56.674509012518584L99.229140625,75.6126470187419L99.470390625,78.01223486534488L99.9378125,79.97403485234126L100.36,96.72361040700444L100.480625,109.98018362167383L100.54093750000001,103.80325353304808L100.6615625,83.79414580528457L100.827421875,68.2983506835989L101.219453125,72.4018787061725L101.29484375,60.00456507179106L101.53609375,63.28146376691332L101.77734375,84.34082260778067L101.89796875,84.93632288477808L102.03367187500001,69.33389847469226L102.169375,65.63745548353499L102.335234375,60.71811534614841L102.3503125,67.2860641609223L102.53125,40.64044372516915L102.56140625,20.749897746573794L103.134375,21.3582150899816L103.31531249999999,6.298431611191575L103.601796875,25.663951498002575L103.94859375,22.73590757403926L104.25015625,38.24094385907577L104.97390625,33.966612416785495L105.109609375,46.90314204596254L105.15484375,56.757697498612444L105.185,64.1254955482992L105.953984375,84.00455154572819L105.99921875,68.86217097901662L106.30078125,41.95770568748759L106.3309375,37.461779048557446L106.34601562499999,64.92629769729332L106.45156250000001,70.16721987509369L106.72296874999999,88.37901891546743L107.14515625,71.9385275796307L107.44671875,59.816783950005984L107.476875,81.30315319900394L107.56734374999999,82.33456736145338L108.034765625,83.10513824190811L108.29109375,84.18984707203029L108.5625,69.12371097951035L108.683125,73.26524160744324L109.150546875,76.45119935143056L109.55765625000001,63.306015420881735L109.904453125,53.3644564739801L110.34171875,76.20820632206768L110.50757812500001,78.81746737980626L110.748828125,80.67442893770819L110.95992187499999,66.57462692292718L111.2765625,71.0557813780328L111.8796875,87.0266486073026L112.21140625,102.6694860551055L112.286796875,67.43670467437886L112.8446875,68.04618362035343L113.01054687499999,71.37823784732207L113.101015625,59.45538501390125L113.31210937499999,50.570182656140375L113.342265625,56.72402600765051L113.824765625,63.79877630345527L114.186640625,53.88769445343141L114.367578125,77.08395458469332L114.397734375,79.58758197480017L114.488203125,80.98671663886991L114.669140625,66.93440354332515L115.04609375,70.97699093593977L115.46828125,74.75374992646688L115.49843750000001,77.9222025047973L115.55874999999999,80.20479261247006L115.784921875,82.1166237644007L116.403125,67.09815939653326L116.44835937500001,71.86409666860187L117.2475,60.07085595512899L117.292734375,50.90461525110754L117.443515625,44.022777200230365L117.714921875,38.866560318993834L117.72999999999999,50.45708840830457L117.986328125,43.83491861692056L118.03156249999999,53.25915569018308L118.54421875,76.70619918309788L118.574375,78.95096380900503L118.67992187499999,65.14157452637107L119.08703125,70.62454092969021L119.222734375,58.48075964451911L119.539375,34.221538940564926L119.90125,47.38823887469482L119.97664062499999,41.439767452847065L120.067109375,67.29470324580257L120.47421875,71.91524181032594L120.77578125000001,59.89259732809505L120.85117187499999,38.60552349491144L121.07734375,66.2128327299359L121.152734375,83.95119719764791L121.80109374999999,84.59640370462363L121.86140625,69.47483329530387L122.17804687499999,68.62869996931137L122.208203125,41.7694139432877L122.449453125,49.84542837610654L122.479609375,43.28236440387218L122.57007812500001,53.69133285707507L122.60023437500001,76.22695987975355L122.87164062500001,92.6987633344524L123.21843750000001,91.04535789384629L123.354140625,88.13032320871778L123.640625,71.52555563029242L123.806484375,59.57798832526204L123.836640625,50.14406460506261L123.927109375,27.52725396429372L124.123125,39.89629107222859L124.39453125,51.209718140725684L124.982578125,71.52724754174434L125.329375,59.58350503379735L125.38968750000001,66.1664406135762L125.404765625,71.4636505094035L125.5103125,74.25697856617386L125.76664062500001,61.83951095663761L125.9325,83.80313422845094L126.09835937499999,84.3933059184735L126.20390625,69.5576965386427L126.294375,73.58015633458069L126.65625,90.3885667329162L127.545859375,58.19442974891837L128.088671875,65.01309493036732L128.10375,85.65238178857616L128.1640625,70.19611134261406L128.465625,74.3030641390696L128.48070312500002,72.41915355547158L128.49578125,59.9935836699681L128.61640625,66.78284625885102L129.27984375,40.4305552615848L129.38539062499999,51.58372765602104L129.430625,44.706350174841475L129.717109375,39.39219496509182L130.53132812500002,66.60352787644943L130.66703125,56.01768840976561L130.6971875,63.35243429573636L130.7575,61.18917008179285L130.84796875,82.99537644530605L130.893203125,99.45585593891585L130.99875,96.1804964576856L131.119375,62.27328474303992L131.164609375,84.0059773184622L131.345546875,84.71743360823781L131.75265625,85.31209696901962L131.81296875,76.60950451563787L131.978828125,77.59629794393166L132.1446875,64.21799829934547L133.17,69.18132426972737L133.38109375,73.22360339416994L133.50171875,60.85072818068424L133.71281249999998,83.31776810286597L133.72789062500001,68.42379499818695L134.119921875,88.51333556989881L134.331015625,87.84273913029709L134.70796875,102.53770824855522L135.145234375,83.06486184621494L135.19046875,68.27757673383682L135.58249999999998,72.2932812734101L135.85390625,75.80630096418341L135.91421875,78.60754133626077L136.291171875,80.82946920651115L136.683203125,82.45717664593414L137.075234375,83.08049756901993L137.30140625,84.05235804987338L137.42203125,84.6513302949273L137.437109375,84.86990319741336L137.768828125,84.27549498613213L137.829140625,69.1368889914783L138.040234375,57.71970801706492L138.64335937500002,80.39062024916056L138.77906249999998,82.19492713212135L138.96,83.11359938830704L139.24648437500002,52.70465338770181L139.29171875,76.75079970765918L139.427421875,95.09397362785563L140.2265625,77.48211599389714L140.392421875,64.34309715445836L140.66382812499998,67.88197081717684L140.814609375,40.44819738059729L140.82968749999998,51.838168973081295L141.10109375,60.470337820284996L141.116171875,66.40239944259281L141.46296875000002,55.759138131363855L141.52328125000003,63.53504014553246L141.74945312499997,68.96754492147066L142.20179687499999,42.08394916322948L142.3375,69.20505725398932L142.382734375,89.21223970343239L142.48828125,88.90943420731381L142.6390625,72.539746865234L142.684296875,76.02538309154919L142.7596875,91.24219593205873L142.91046875,74.29494884515522L143.27234374999998,46.093436142050706L143.408046875,28.408469952765216L143.69453125,56.735572684737605L143.950859375,79.84461799557735L144.88570312500002,97.16612315351158L145.41343750000001,94.52787656342129L145.669765625,92.44263697838652L145.820546875,91.11276343715441L145.8959375,74.15039821129733L146.061796875,92.68840344494177L146.15226562499998,105.93605455144927L146.2578125,85.47097499880476L146.52921874999998,54.5192739630579L146.604609375,31.24371106886457L146.67999999999998,60.042463324672184L146.95140625,66.50092557086455L147.117265625,71.44634462637165L147.16250000000002,75.56353411394686L147.4640625,62.73115261617684L147.5846875,84.08852549719795L147.73546875,84.011513428913L147.91640625000002,69.18927070395536L148.263203125,72.60646179614548L148.33859375,75.93963917589345L149.258359375,78.40637268818527L149.2734375,64.8765838710887L149.75593750000002,70.06033171958266L150.404296875,87.91199243387976L150.52492187500002,87.63934343959582L150.64554687499998,87.43700338642876L150.660625,102.80966936339232L151.17328125,98.81196478765754L151.339140625,95.75613622678006L151.520078125,77.7468591401094L151.77640624999998,80.28880529761054L152.68109375,81.82515626120687L153.04296875,67.34580652960169L153.4953125,86.48734463584539L153.55562500000002,86.43974047002945L153.76671875,86.75380206483116L154.023046875,70.54428061195104L154.113515625,58.96431388669822L154.746796875,80.76576932526267L154.988046875,97.91870975368212L155.15390625,95.18717503452788L155.28960937500003,77.52880697242593L155.410234375,79.78159255301671L155.711796875,81.47601872098265L155.74195312499998,67.01185048649397L155.7871875,56.09140434271421L155.81734375,63.74660597437179L155.9078125,69.53945888250624L156.20937500000002,57.325749936257864L156.254609375,63.536778873127105L156.32999999999998,69.41855440550339L156.465703125,57.864453214426774L157.521171875,80.78556385623513L157.822734375,66.50600698159435L157.8378125,55.86590704609809L157.86796875,63.647506342669075L158.0790625,69.56244648485132L158.139375,74.16495405172844L158.27507812500002,77.52005787709082L158.29015625,48.498728796145144L158.365546875,58.19899737615805L158.4409375,64.73023688342296L158.667109375,85.8019691121845L159.13453125,54.76841410569608L159.31546874999998,62.75134520513157L159.421015625,65.8224200472466L159.49640625,39.73651378737435L159.7075,35.67498943856043L159.843203125,63.787606930666286L160.23523437499998,69.63239343943368L160.34078125,89.43535921019905L160.355859375,72.93321329959264L160.49156250000001,60.78524593775707L161.06453125,82.90482183654566L161.18515625,83.91834283016438L161.200234375,99.99174459881603L161.260546875,65.43912527164298L161.743046875,71.09305510209758L162.45171875,59.21729854082706L162.51203124999998,50.23717488682671L162.7834375,59.45164340437428L162.858828125,66.09094460232193L163.13023437500001,55.82501998661158L163.17546875,46.35950103355336L163.49210937499998,53.57693738536605L163.65796874999998,45.47676683289825L164.01984374999998,55.713535644321766L164.12539062500002,47.83823449313368L164.38171875,63.34136882150763L164.41187499999998,62.18712420973078L164.457109375,52.766015510957416L164.77375,44.99491325436347L164.80390625,38.449731402184284L164.87929687500002,50.62768552067327L165.04515625000002,28.122517849609864L165.22609375,11.233296226556519L165.48242187500003,14.228354126318067L165.753828125,16.537024112302106L165.844296875,18.34188563525879L165.995078125,34.83359949879801L166.266484375,31.42880808438761L166.2815625,29.537512851543028L166.68867187499998,43.66287051806418L166.809296875,54.64889543103689L166.960078125,31.147874746931905L167.1259375,60.692975835291946L167.44257812499998,83.10237784998506L167.713984375,68.1583921119998L168.19648437499998,57.26196738156514L168.30203125,64.43297047605884L169.08609375,70.053046724632L169.11624999999998,74.48900535658878L169.26703125,77.7021193877739L169.37257812500002,95.51079927582178L169.7796875,77.64160795384022L170.09632812499999,79.9608943860608L170.247109375,65.9410907669723L170.488359375,70.65584262825874L170.51851562500002,73.47139378246274L170.6240625,76.67693850600888L171.1065625,93.98064052273367L171.18195312499998,92.1778958236135L171.3478125,90.97480894941167L171.42320312500001,89.74779879211579L172.0715625,88.9725070674391L172.116796875,83.44695236956446L172.41835937500002,81.74988307726261L172.508828125,83.33374376393607L172.52390625,52.86627153570984L172.91593749999998,59.603159134027166L173.021484375,65.95663406417415L173.97140625,85.33634459438092L174.107109375,70.03100138961821L174.21265624999998,90.15680718243898L174.25789062500002,73.71286991112656L174.3634375,61.059486120071696L174.408671875,35.76852462496686L174.740390625,48.316374698781544L174.90625,41.98791602860558L175.07210937500003,21.777744133266054L175.253046875,24.37414185448702L175.268125,53.291639301852896L175.313359375,61.45014436344776L175.67523437499997,83.66404727985417L175.76570312500002,84.04549729328599L176.11249999999998,84.84772144199351L176.26328125,69.8439550302385L176.38390625,71.59867704485585L176.56484375,90.77164876604274L177.303671875,104.8677428269032L177.439375,100.4699785729587L177.57507812499998,96.30416138737355L178.1028125,78.30481250272449L178.525,90.0595822356151L178.570234375,104.82579845592865L179.173359375,100.23427537871329L179.535234375,112.36071439842662L179.68601562499998,122.0296196187708L180.5153125,112.99263327173097L180.71132812500002,106.81516336886565L181.14859374999997,96.44315024120944L181.69140625,94.3290548050335L181.766796875,92.53955352755348L181.781875,59.806285497227066L181.81203125,66.64364346128944L182.023125,55.96288029357997L182.2040625,47.93333022757287L182.55085937500002,73.18926015747451L182.641328125,76.81647705982283L182.8675,79.50991577238356L182.95796875,65.82467491301448L183.10875,71.28045440848824L183.470625,75.37921783850976L183.726953125,76.77926712286317L184.05867187500002,63.725934242476896L184.52609375,69.57213118613059L184.631640625,58.04317856696349L184.79749999999999,49.67774648360472L185.03875000000002,43.20082791327266L185.0990625,38.1737473571944L185.20460937500002,66.55849504556409L185.28,39.817112358736836L185.807734375,51.42684027861608L185.91328125,44.40686209704393L186.45609375,54.49688341874726L186.87828125000001,46.67773038625174L186.9084375,72.59610673658598L186.923515625,75.94862623739398L186.953671875,62.94661040420904L187.044140625,83.59243074605178L187.17984375,68.66437783413215L187.2703125,73.41068400842903L187.345703125,76.71550975568121L187.78296875,94.45142907609466L187.99406249999998,76.93358212460936L188.159921875,79.1928138558457L188.310703125,81.09988245287944L188.37101562499998,51.23116580632721L188.38609375000001,43.8556197877578L188.80828125,38.46108279896586L188.943984375,50.56868362408032L189.06460937499997,59.31318086737221L189.29078124999998,66.28468400361218L189.305859375,70.16858406380615L189.486796875,73.739459486841L189.95421875,61.41892811466576L190.089921875,68.00780570189764L190.28593750000002,57.00634742879686L190.34625,64.25330301791499L190.42164062499998,85.96490400051964L190.55734375,70.48305497356208L190.67796875000002,90.30430031840542L190.783515625,89.59743060813798L190.79859374999998,57.44568562585248L191.05492187500002,64.84040123425677L191.507265625,54.761710086747726L191.65804687500003,62.71402315340647L192.2159375,53.238212303476956L192.35164062500002,61.46101623883882L192.36671875,52.024472870384656L192.4571875,62.29032184384482L192.69843749999998,51.40162022590704L192.803984375,60.33794634834341L193.226171875,66.8055048778668L193.24124999999998,55.65305597204478L193.376953125,63.1643976566108L193.45234374999998,53.02708829507014L193.61820312499998,45.939113332437614L193.75390625,55.409892230026486L193.965,47.5084536977331L194.130859375,41.41364011361259L194.53796874999998,53.10434172822963L194.583203125,61.318820304055976L194.71890625,51.39913857269063L195.095859375,59.55093755809871L195.156171875,81.46379483110987L195.29187499999998,67.70510485224123L195.50296875,72.35701560072157L195.5934375,75.4912232668124L195.62359375,90.60829884976285L196.13625,103.99437324031136L196.22671875,68.07206053665882L196.31718750000002,41.41414973118867L196.34734375,21.36059815120882L196.362421875,37.27588893418513L196.513203125,64.51057058015111L196.58859375,68.95436935418704L196.7996875,57.74939736259958L196.935390625,49.362376594074576L197.176640625,27.330583014580696L197.55359375,25.91698203737218L197.840078125,41.07456341774781L197.97578125,52.66377150462489L198.2471875,59.83906065718044L198.654296875,82.46312912478419L199.00109375,67.96974350805212L199.03125,72.23283383566077L199.046328125,60.2098605534145L199.8153125,66.89189086235892L199.9359375,72.02918424864363L199.981171875,75.88025968249771L200.116875,94.71190465257618L200.68984375,87.1622700964617L201.15726562499998,87.40944628164726L201.458828125,102.06595218524L201.564375,110.43915037794098L201.669921875,88.9765006800826L201.74531249999998,72.7244547823521L202.212734375,76.48209531261804L202.33335937500001,78.99491308089118L202.363515625,80.90532630219982L202.876171875,82.23669614476229L202.92140625000002,83.14548645303513L203.1325,68.3791502769209L203.177734375,73.02370780723032L203.34359375,92.49724535795633L203.43406249999998,106.46506873427575L203.85625,117.63623555373525L203.90148437500002,110.21212443764284L203.9165625,104.72865698649055L204.00703125,115.63843792501095L204.0371875,92.88313220114408L204.293515625,60.05802843253328L204.414140625,66.71223319946672L204.54984375,71.89508173446822L204.77601562499999,90.93349563126651L205.017265625,74.24876869251088L205.6053125,77.44394022892293L205.78625,79.9250909184627L205.81640625,95.8823936088482L205.9671875,77.98689891126821L206.133046875,80.36693816593048L206.23859374999998,50.640606078609736L206.34414062500002,59.904007603262755L206.374296875,66.72788100446286L206.63062499999998,55.92405919889387L206.917109375,48.04092244323246L207.459921875,57.63768744226445L207.610703125,65.04641167077045L207.86703125,86.50481897741528L207.9575,86.69799185515225L208.093203125,70.99623636211976L208.545546875,43.63299137669932L208.89234375,69.65675719085567L208.90742187499998,42.578700768892276L209.178828125,37.737298796230675L209.60101562499997,65.82126596504442L209.67640624999999,55.465214065217594L209.872421875,63.179456234942606L210.08351562500002,53.16103454980251L210.20414062499998,61.60980832894498L210.27953125,36.57557197110384L210.3096875,33.36788899004253L210.324765625,31.030587099089644L210.62632812500001,44.907988030090934L210.70171875,55.11669534816146L210.9128125,63.202215317975444L211.06359375,53.45859316304963L211.138984375,61.59308985643945L211.24453125,68.00155939950116L211.531015625,86.42900810238483L211.71195312499998,102.17584895691041L212.2396875,98.43987177677727L212.375390625,79.95122913086979L213.099140625,81.25440576545951L213.17453124999997,82.83455731376175L213.40070312499998,83.54079054538339L213.5665625,100.10998424672519L213.62687499999998,95.64868869158768L213.86812500000002,93.55366926119133L214.064140625,76.33844735242431L214.365703125,78.76984346180322L214.50140625,96.53743044863553L214.62203125000002,95.35340656590927L214.92359374999998,92.08934777742482L215.16484375000002,90.91454670572206L215.46640625,90.03984672259719L215.51164062499998,89.39303216716087L215.752890625,88.6868204893876L215.994140625,88.33692085209499L216.16,87.89088051013334L217.06468750000002,72.0327488573603L217.20039062499998,75.82949582550361L217.21546875,78.14717008769217L217.66781250000003,64.73632313325976L217.95429687499998,54.55888501091067L217.99953125,64.93168879863633L218.33124999999998,54.275953640921855L218.9946875,60.7589133044568L219.311328125,67.07770360603794L219.401796875,72.23084865688621L219.431953125,75.96748960017028L219.74859375,78.63567511176214L220.0803125,65.20785254938632L220.517578125,86.45580730741052L221.211171875,70.75177336081299L221.452421875,43.44263162870223L221.633359375,38.60072350263178L222.52296875,50.872284423939405L222.76421875000003,59.755237368690246L223.231640625,50.54460135640339L223.352265625,59.31922914607635L223.66890625,34.851114471291794L224.045859375,24.822868829380013L224.12125,24.468643967537815L224.317265625,55.49502303471169L224.51328125,47.43605849499545L224.60375000000002,72.9796918499767L225.23703125,76.08472022980065L225.252109375,78.67561509923485L225.3275,96.47746659527911L225.553671875,78.46997691168826L226.428203125,64.88449952789922L226.68453125,85.9464876264052L227.091640625,102.10307152820693L227.10671875,82.66337189108435L227.22734375,68.155141703991L227.40828125000002,72.98018962951139L227.453515625,45.125761483533665L227.58921875000001,55.635239754961404L227.815390625,62.34266429325396L227.875703125,37.10342271860148L227.905859375,33.77379830162971L228.13203124999998,31.443597736298045L228.4034375,61.28210980176817L228.67484374999998,51.71675244340179L228.90101562499999,60.306750027710166L229.051796875,35.586322839634846L229.09703125000001,32.59521643975782L229.27796874999999,46.18365803448236L229.293046875,40.48530403282325L229.353359375,52.211403814440686L229.775546875,77.0365879915846L230.167578125,63.83762162905781L230.66515625,83.68215826434243L230.891328125,100.24214285759456L231.43414062500003,97.03632025797707L231.50953124999998,110.19991626570041L232.23328125,88.46211535021189L232.29359375,104.02323774009905L232.59515625,99.8934368313103L233.31890625,96.82535161682003L233.33398437500003,94.73662720792733L233.726015625,77.06902404556946L233.77124999999998,95.36043080468545L234.40453125000002,93.67781696520483L234.64578125,91.9890755508272L235.17351562500002,90.8666549485757L235.3996875,99.60996486696592L235.5203125,80.72400605134814L235.595703125,97.00333082807454L235.61078124999997,78.96188496370672L236.108359375,96.59902770304986L236.3646875,78.61039904662172L236.409921875,80.51101550478703L236.45515625000002,66.5040332457052L236.651171875,71.72226458404769L237.05828125,75.91702716253162L237.3296875,94.56909788719689L237.435234375,92.90916227124184L237.54078125,75.29416966194096L237.8725,46.866548919112915L238.189140625,56.999634346982305L238.38515625,48.72403957805892L238.91289062500002,42.60138438145438L239.25968749999998,68.39808167680194L239.304921875,57.298032549256035L239.50093750000002,80.65318202590935L239.56125,82.21867333506769L239.65171875000001,81.13815091972282L240.300078125,82.65604205917714L240.31515625,83.88682027937502L240.601640625,84.66146286093901L240.64687500000002,85.16412394410679L240.76749999999998,101.20765524845386L240.782578125,82.04013173513891L240.79765625000002,83.40635255407717L240.888125,68.73960277831985L241.18968750000002,57.67799027405299L241.21984375,49.40504358469319L241.49125,43.036251475996494L242.24515625,53.74432557769738L242.45624999999998,30.66106616776173L242.54671875000003,29.088130601260872L243.059375,59.16308985545871L243.677578125,66.22427158555158L244.099765625,39.88505918551064L244.50687499999998,47.522407963136544L244.582265625,57.62206752221118L244.672734375,49.07360941420487L245.01953125,42.685351091030924L245.396484375,48.66733802537877L245.577421875,74.31019174440634L245.5925,75.66851909304377L245.68296875000001,62.6225864463173L245.818671875,83.77955880027893L246.075,68.95114588519867L246.2559375,57.78960328065615L246.34640625,64.99002204384381L246.64796875000002,86.17296976028453L246.70828125,86.44022573064053L247.07015625,101.69422605139785L247.10031249999997,98.3276336608935L247.236015625,99.2062023520066L247.989921875,111.84276697391017L248.351796875,74.3510940977138L248.366875,77.47679377982692L248.69859375,48.30467476293481L249.22632812499998,42.34683311823477L249.24140625,53.192672065678124L249.60328124999998,29.925800268074596L249.6334375,59.91423260400096L249.648515625,61.54281930602103L250.100859375,36.51162580273882L250.4778125,33.45952333867547L250.52304687499998,15.406429745264035L250.553203125,1.8304452206744486L250.77937500000002,39.004164031004166L250.86984375,50.68428749386783L251.17140625,75.47394394486473L251.3221875,78.69990446625364L251.337265625,81.01870532346345L251.457890625,98.21995787319996L251.518203125,95.37287443786946L251.608671875,108.98003557805605L251.849921875,87.95647682631274L252.49828125,103.29320159921012L252.67921875000002,114.16329356485069L252.845078125,122.00841239886483L252.995859375,81.85943194492008L253.01093749999998,83.31789302196141L253.07125,68.60158356955905L253.1315625,47.76126057939041L253.191875,57.66622465621735L253.448203125,65.06708091978254L253.538671875,39.15825408248094L253.59898437500001,51.13622596180524L253.629140625,44.27237070351538L254.00609375,39.01644466705892L254.292578125,35.247718095179465L254.398125,63.24649756259305L254.41320312500002,53.58274663798163L254.503671875,45.978961770005384" fill="none"></path></g></g></g></g><g opacity="0.2"><g><g><g><path style="fill: none;" stroke="rgb(255, 112, 67)" stroke-width="2px" d="M33.609140625,-39.06918422381082L33.68453125,4.596747795740754L34.001171875,30.542675097783416L34.0765625,12.530247211456299L34.182109374999996,-28.96348214149475L34.8003125,-30.76500391960144L34.83046875,9.748769044876099L34.95109375,0.46664857864379883L35.388359375,-57.828553676605225L36.504140625000005,-15.226274887720734L36.51921875,73.13766264915466L36.820781249999996,-12.455463965733827L37.092187499999994,-17.830981572469057L37.1525,35.9506867726644L37.303281250000005,32.178749084472656L38.238125000000004,-17.83374802271527L38.645234375,-39.477845191955566L38.886484375,68.38532312711081L38.99203125,43.45773084958395L39.007109375,-28.20031698544821L39.71578125,-10.719211657841981L39.83640625,2.542400598526001L39.911796875,27.463615973790496L39.941953125,-9.511398235956818L40.122890625000004,-50.850815931955964L40.273671875,115.91378235816956L40.92203125,13.043540954589844L41.04265625,-44.21358601252237L41.163281250000004,16.576743364334106L41.5553125,21.743440866470337L41.691015625,83.56138928731282L41.75132812499999,82.41915011405945L41.781484375,17.140513102213532L41.992578125,82.56903076171875L42.022734375,70.43071452776591L42.12828125,22.01117698351544L42.248906250000005,136.7558902899424L42.339375,85.6048816839854L42.761562500000004,147.07278037071228L43.862265625000006,85.09365105628967L44.35984375,21.272440989812225L44.405078125,21.699341773986816L44.661406250000006,82.68651111920676L44.797109375000005,9.039760669072479L44.81218749999999,144.278689066569L44.90265625,81.5960139433543L44.917734375,-40.786282380421966L44.993125,80.706600189209L45.26453125,83.28718249003093L45.309765625000004,21.442296346028655L45.44546875,67.50385705629986L46.184296875,21.651515007019043L46.22953125,145.05528791745505L46.32,-43.35120375951132L46.41046875000001,14.013252099355071L46.485859375,22.977183898290008L46.636640625,81.81437595685324L46.727109375,21.846737305323302L46.8025,-41.28447786966959L47.5865625,147.81836215655008L47.661953125,85.6797399520874L47.67703125,82.61666997273764L47.9484375,125.7198403676351L48.144453125000005,-42.82459354400635L48.34046875,14.499772230784117L48.9134375,145.08932932217917L49.169765625000004,-56.72816292444867L49.471328125,20.335903803507478L49.66734375,143.4182527065277L49.9990625,82.66065184275311L50.044296875,-42.10161225001019L50.255390625000004,85.72109603881836L50.315703125,83.26272988319397L51.039453125,18.28601106007895L51.144999999999996,83.45286472638449L51.47671875,147.19483240445456L51.657656249999995,142.13708146413168L51.8084375,22.031057914098113L52.26078125,-43.42819547653198L52.426640625,86.6524285475413L52.547265625,78.52150305112204L52.637734375,60.90744400024414L53.120234374999995,82.21818391482037L53.180546875000005,27.11999003092447L53.5575,-42.418112913767516L53.79875,144.59443950653076L53.813828125,22.409030040105193L54.04,22.995587825775146L54.1003125,83.66649095217389L54.356640625,22.516218264897674L54.884375,10.21311068534851L55.004999999999995,145.14001631736755L55.3065625,-42.71740531921387L55.517656249999995,83.25940076510112L55.653359375,84.86183190345766L55.743828125,74.19402464230855L55.81921875,142.74797463417053L55.924765625,86.07107543945314L56.06046875,83.39983328183493L56.2715625,-40.26787773768106L56.30171875,23.322521289189666L56.346953125,147.77339561780295L56.48265625,83.9081802368164L57.010390625,85.74184441566467L57.372265625,149.96294720967612L57.68890625,84.51642417907716L57.9603125,85.12792690594992L58.096015625,73.3215847015381L58.29203125,-40.62892293930054L58.337265625,143.26712950070697L58.457890625,83.97398893038432L59.061015625,43.596287806828826L59.31734375,-40.59455331166589L59.468125,67.82162372271222L59.513359375,53.248995383580535L59.814921874999996,22.237346013387054L60.056171875,86.06873099009198L60.327578124999995,82.81991028785706L60.508515625,147.99916609128317L60.76484375,82.45105806986491L60.8553125,22.561747471491486L61.2171875,23.092976252237975L61.413203124999995,21.19980994860333L61.4584375,18.31721568107605L61.473515625000005,16.43586540222168L61.594140625,-49.048919041951535L61.654453124999996,83.1941781838735L61.760000000000005,85.16004586219788L62.498828125,150.18231733640036L62.559140625000005,85.6604216893514L62.6646875,-39.82777770360315L62.800390625,53.91828878720602L63.132109375,23.501473108927428L63.192421875,23.138950904210418L63.313046875,77.91295433044435L63.433671875,72.8959030310313L63.493984375000004,84.18194158871968L63.795546875,-35.519312779108674L63.870937500000004,22.22921077410379L63.886015625,150.37404640515646L63.961406249999996,84.8985459804535L64.14234375,148.68482375144958L64.187578125,-39.33511511484784L64.26296875,21.15868830680847L64.549453125,78.11347508430481L64.79070312500001,85.1810286839803L64.941484375,86.26904074350993L65.122421875,145.68580412864685L65.514453125,147.8365081946055L65.65015625,23.26801284154257L66.177890625,85.57717029253642L66.19296874999999,148.25625840822855L66.223125,84.87861816088359L66.8865625,84.48585255940756L67.0071875,113.38716928164165L67.14289062499999,80.26666426658632L67.173046875,85.49258255958557L67.24843750000001,41.8355125586192L67.62539062500001,-39.440005779266386L67.64046875,145.2942107518514L67.79124999999999,-40.695270856221526L67.82140625,20.12881859143576L67.89679687499999,-39.82580836613974L68.10789062500001,16.506550550460815L68.198359375,22.8952688376109L68.3340625,150.40302379926047L68.56023437500001,83.25304730733237L68.650703125,-39.76982291539511L69.02765625,85.03217959403992L69.359375,22.582026958465576L69.44984375,23.622892141342163L69.70617187500001,86.42274284362793L69.796640625,19.298508405685425L70.188671875,-40.031182130177854L70.53546875,85.46498839060466L70.641015625,-48.66063133875528L70.71640624999999,81.89652546246847L70.91242187499999,146.1781853834788L71.47031249999999,61.784361839294434L71.68140625000001,84.96630056699118L72.209140625,18.98397707939148L73.460625,-43.875422636667906L73.596328125,86.52840717633566L73.73203125,-41.33629020055136L73.8225,87.38284174601239L74.18437499999999,21.959294319152832L74.893046875,23.18391744295758L75.013671875,86.72637248039246L75.55648437500001,21.6568603515625L75.797734375,85.95472041765849L75.84296875,142.05232961972555L75.96359375,84.6726348400116L76.008828125,87.14907670021059L76.370703125,-40.79856729507446L76.431015625,85.45183602968852L76.883359375,145.59645716349283L77.45632812500001,15.778997580210387L77.72773437500001,84.08905450503032L77.818203125,84.81864714622498L78.05945312499999,87.31520438194275L78.330859375,16.217714389165252L78.3459375,22.891799052556365L78.85859375,86.85074551900229L79.00937499999999,127.8223425547282L79.05460937500001,23.236550331115723L79.0696875,86.1514666080475L79.09984375,149.9595008691152L79.114921875,20.513683398564666L79.491875,146.88986643155417L79.989453125,22.002994855244964L80.592578125,25.256692012151092L81.06,22.92757534980774L81.467109375,84.62344829241435L81.5425,85.12335522969565L81.87421875000001,67.91568303108215L82.160703125,144.1302150885264L82.386875,23.488039414087922L82.62812500000001,19.571824312210083L83.065390625,80.36824925740561L83.110625,86.7461596330007L83.487578125,22.6619023482005L83.87960937499999,86.60000665982564L84.1359375,143.04089013735455L84.4375,85.165531873703L84.70890625,148.11709189414978L84.7390625,149.52050272623697L84.76921875000001,21.346760034561157L84.85968749999999,23.138013124465942L85.281875,23.20757293701172L85.49296875,84.73593497276306L86.33734375,86.87782390912375L86.39765625000001,141.7494970957438L86.563515625,22.150437275568663L87.0309375,147.5335115591685L87.1515625,87.6492415269216L87.34757812500001,21.27026065190634L87.42296875000001,81.60698596636455L87.66421875,22.756664991378784L87.739609375,86.85006562868756L87.769765625,83.70850348472597L87.920546875,150.46991093953451L87.980859375,23.11712408065796L88.418125,144.69658716519675L88.59906249999999,79.41893482208252L89.38312499999999,21.94918974240622L89.54898437499999,86.56066679954529L89.8053125,85.65566245714824L90.22749999999999,22.39196244875592L90.61953125000001,96.2075366973877L90.80046875,84.20055651664735L90.966328125,80.33974075317383L91.0115625,149.6497287750244L91.87101562500001,107.15412243207297L91.94640625000001,83.1551431020101L91.961484375,123.56662774085999L92.112265625,80.44083340962729L93.21296875,23.317363500595093L93.378828125,86.20487316449484L93.39390625,143.49683864911398L93.42406249999999,142.0434207121531L93.49945312499999,148.4412354628245L93.51453125,23.000229835510254L93.891484375,85.02439602216086L93.966875,81.29428331057231L94.01210937500001,19.40365695953369L94.132734375,19.750096241633116L94.434296875,-39.35682471593225L94.47953125,23.33037519454956L94.49460937500001,22.830116589864105L94.72078124999999,87.49849343299867L95.0525,146.68941601117453L95.248515625,148.9353281656901L95.278671875,86.06087708473206L95.4746875,-39.342429796854645L96.032578125,148.31245485941568L96.394453125,85.02814714113872L96.5,21.7980899810791L96.59046875,80.48959795633952L96.95234375,23.0465561548869L96.99757812499999,87.11276117960614L97.88718750000001,151.55255421002707L98.14351562499999,23.36043103535971L98.15859375000001,84.90754866600037L98.46015625,77.98460070292155L98.505390625,19.11967380841574L98.64109375000001,85.84734463691711L99.18390625,23.988462130228697L99.229140625,133.03796871503195L99.470390625,85.28840446472168L99.9378125,85.9227186838786L100.36,147.51264595985413L100.480625,150.17753465970358L100.54093750000001,85.0732074578603L100.6615625,23.121367534001678L100.827421875,21.311100959777832L101.219453125,84.8448346455892L101.29484375,22.412710825602232L101.53609375,73.21786626180014L101.77734375,148.1982332865397L101.89796875,86.74203340212506L102.03367187500001,22.023321231206268L102.169375,54.42888641357422L102.335234375,45.80140654246014L102.3503125,87.20177992184956L102.53125,-40.155953725179046L102.56140625,-39.56337070465088L103.134375,23.20279026031494L103.31531249999999,-39.36671829223633L103.601796875,84.38520534833273L103.94859375,13.857322772343963L104.25015625,85.25621517499289L104.97390625,21.005736430486053L105.109609375,86.13003834088644L105.15484375,86.63925274213155L105.185,86.46656060218811L105.953984375,144.28297940889993L105.99921875,22.94656538963318L106.30078125,-39.623576164245634L106.3309375,23.8289692401886L106.34601562499999,148.2058058579763L106.45156250000001,86.05904841423036L106.72296874999999,143.6018934249878L107.14515625,22.08671514193219L107.44671875,23.060529073079437L107.476875,146.45536963144937L107.56734374999999,85.4620812733968L108.034765625,85.44170800844829L108.29109375,87.47896416982016L108.5625,23.439298311869294L108.683125,85.82343125343323L109.150546875,86.1118454138438L109.55765625000001,23.446425437927246L109.904453125,23.21908418337506L110.34171875,145.47635102272034L110.50757812500001,86.72942026456198L110.748828125,86.30521559715271L110.95992187499999,23.820388555526733L111.2765625,84.64379811286926L111.8796875,135.4544395605723L112.21140625,150.10260605812073L112.286796875,-39.398180802663205L112.8446875,69.89428106943768L113.01054687499999,81.48188614845276L113.101015625,23.302218357721983L113.31210937499999,23.62795615196228L113.342265625,75.38406713803609L113.824765625,85.25124494234721L114.186640625,23.834736585617065L114.367578125,147.42100143432617L114.397734375,87.17922631899518L114.488203125,85.22925400733948L114.669140625,24.324163834253966L115.04609375,83.23515915870667L115.46828125,86.20585783322652L115.49843750000001,87.52976838747661L115.55874999999999,87.1261948744456L115.784921875,87.9137891928355L116.403125,21.558299700419127L116.44835937500001,86.3156483968099L117.2475,24.310706694920867L117.292734375,23.11020795504254L117.443515625,23.15526827176413L117.714921875,23.23158009847006L117.72999999999999,85.60256067911784L117.986328125,23.754790862401336L118.03156249999999,81.83587455749513L118.54421875,147.8036859035492L118.574375,85.75766944885254L118.67992187499999,23.267942508061736L119.08703125,87.25031002362569L119.222734375,21.657680908838927L119.539375,-39.33867867787683L119.90125,87.3130709330241L119.97664062499999,23.402467012405396L120.067109375,145.6935408115387L120.47421875,85.92590713500978L120.77578125000001,23.4368366400401L120.85117187499999,-25.94237780570984L121.07734375,149.9253187974294L121.152734375,137.73849590619403L121.80109374999999,86.552836338679L121.86140625,23.622329473495483L122.17804687499999,66.06300536791484L122.208203125,-39.67487271626791L122.449453125,74.33398826917013L122.479609375,23.381460746129363L122.57007812500001,85.25401139259338L122.60023437500001,144.56079665819803L122.87164062500001,142.6455221970876L123.21843750000001,86.03180591265362L123.354140625,79.29118577639264L123.640625,21.175615231196105L123.806484375,23.349881013234466L123.836640625,21.537973324457795L123.927109375,-41.05275249481201L124.123125,77.40240359306335L124.39453125,85.51494860649109L124.982578125,133.1352399190267L125.329375,23.366995493570982L125.38968750000001,86.12760011355084L125.404765625,87.52615793546042L125.5103125,82.72707009315491L125.76664062500001,24.18654465675354L125.9325,150.402508020401L126.09835937499999,86.18285878499348L126.20390625,24.572300354639708L126.294375,85.7772924900055L126.65625,141.35600471496582L127.545859375,-39.42650175094607L128.088671875,85.68904741605124L128.10375,148.2360258102417L128.1640625,23.328710635503143L128.465625,86.756404876709L128.48070312500002,66.70665049552917L128.49578125,22.316049178441375L128.61640625,87.36964249610901L129.27984375,-39.47639163335165L129.38539062499999,85.40302459398907L129.430625,23.852366844813048L129.717109375,23.27830497423807L130.53132812500002,149.11531154314676L130.66703125,23.918691317240388L130.6971875,85.59327665964763L130.7575,54.62959472338359L130.84796875,149.1174215475718L130.893203125,149.36827762921652L130.99875,86.24876125653586L131.119375,-40.542131423950195L131.164609375,149.90510964393616L131.345546875,86.87475268046063L131.75265625,87.11526974042256L131.81296875,50.22099836667378L131.978828125,80.58851027488708L132.1446875,23.651541312535613L133.17,84.23140947024028L133.38109375,85.48083686828613L133.50171875,23.332977533340454L133.71281249999998,151.4436310927073L133.72789062500001,23.261424938837678L134.119921875,149.430006980896L134.331015625,85.80931766827902L134.70796875,147.09664686520895L135.145234375,24.018166303634644L135.19046875,23.43871219952902L135.58249999999998,84.46993374824524L135.85390625,86.45868325233461L135.91421875,87.1016250451406L136.291171875,87.56692790985107L136.683203125,87.39280565579733L137.075234375,84.97056746482849L137.30140625,86.99928983052573L137.42203125,86.46756871541342L137.437109375,85.5326726436615L137.768828125,82.47309589385988L137.829140625,23.232728878657014L138.040234375,23.0998689333598L138.64335937500002,149.13467669487L138.77906249999998,87.66605122884116L138.96,85.89925074577332L139.24648437500002,-39.50311835606894L139.29171875,149.66492080688477L139.427421875,150.71521067619324L140.2265625,24.078418652216584L140.392421875,24.502201318740845L140.66382812499998,78.61274902025859L140.814609375,-42.738083362579346L140.82968749999998,86.37550218900044L141.10109375,86.64530142148337L141.116171875,84.38994113604228L141.46296875000002,23.48602318763733L141.52328125000003,87.11358173688252L141.74945312499997,85.44030133883159L142.20179687499999,-39.434050877889035L142.3375,151.44325598080954L142.382734375,149.87918003400168L142.48828125,87.9912497997284L142.6390625,22.90263040860495L142.684296875,86.59473164876302L142.7596875,137.3834993839264L142.91046875,22.906522194544465L143.27234374999998,-39.420828183492034L143.408046875,-25.216911395390838L143.69453125,142.63065838813782L143.950859375,149.91720700263977L144.88570312500002,149.68939685821533L145.41343750000001,86.52803206443787L145.669765625,86.11965243021648L145.820546875,87.08024366696675L145.8959375,22.716129461924254L146.061796875,148.90041931470236L146.15226562499998,146.1063514550527L146.2578125,23.41557248433432L146.52921874999998,-39.33427111307782L146.604609375,-39.333802223205566L146.67999999999998,147.3677121003469L146.95140625,86.08464980125427L147.117265625,86.44213143984477L147.16250000000002,88.04791514078778L147.4640625,23.82006033261618L147.5846875,148.84959165255228L147.73546875,83.7779929637909L147.91640625000002,24.24440566698712L148.263203125,82.9682670434316L148.33859375,86.04669316609701L149.258359375,85.8861452738444L149.2734375,23.850772619247437L149.75593750000002,85.77879293759663L150.404296875,142.04283459981283L150.52492187500002,86.81260132789612L150.64554687499998,86.82345612843831L150.660625,149.4235597451528L151.17328125,86.68989284833272L151.339140625,86.4900754292806L151.520078125,23.138083457946777L151.77640624999998,87.99664203325909L152.68109375,86.48376886049908L153.04296875,23.4406815369924L153.4953125,144.52942792574564L153.55562500000002,86.29539235432944L153.76671875,87.70611786842348L154.023046875,21.392828464508057L154.113515625,23.850866397221893L154.746796875,146.8734083970388L154.988046875,149.93085169792175L155.15390625,86.90445685386658L155.28960937500003,23.98407800992331L155.410234375,86.61261979738872L155.711796875,86.6139561335246L155.74195312499998,23.152759710947663L155.7871875,22.9777934551239L155.81734375,86.95915285746258L155.9078125,87.10488382975261L156.20937500000002,20.290632486343384L156.254609375,82.37022145589194L156.32999999999998,87.25361569722494L156.465703125,22.829436699549376L157.521171875,150.28828644752502L157.822734375,23.206705490748107L157.8378125,23.602378209431976L157.86796875,87.24332356452942L158.0790625,87.49807143211366L158.139375,88.12094473838808L158.27507812500002,87.69359850883484L158.29015625,-39.5014303525289L158.365546875,87.61271500587463L158.4409375,84.5346405506134L158.667109375,149.69689909617105L159.13453125,-39.33333333333334L159.31546874999998,86.95765240987141L159.421015625,75.13471150398256L159.49640625,-39.362685839335114L159.7075,23.359399477640807L159.843203125,149.0323180357615L160.23523437499998,87.35529446601868L160.34078125,149.48306186993918L160.355859375,22.894448280334473L160.49156250000001,23.949473937352508L161.06453125,149.97708423932394L161.18515625,86.9916000366211L161.200234375,148.73044673601785L161.260546875,-39.33333333333334L161.743046875,88.23722942670187L162.45171875,23.206939935684204L162.51203124999998,23.00712251663208L162.7834375,87.39228987693787L162.858828125,86.22301920255026L163.13023437500001,24.69608728090924L163.17546875,17.657604853312193L163.49210937499998,75.46206696828207L163.65796874999998,20.91495935122174L164.01984374999998,86.75406042734784L164.12539062500002,23.9582890669505L164.38171875,110.35087291399638L164.41187499999998,58.687156677246094L164.457109375,24.198782682418823L164.77375,21.430925766627013L164.80390625,18.60305094718933L164.87929687500002,87.55438510576886L165.04515625000002,-40.118958314259885L165.22609375,-39.97918224334717L165.48242187500003,23.310142596562713L165.753828125,23.53750729560852L165.844296875,23.8146915435791L165.995078125,84.84073185920717L166.266484375,21.104601860046387L166.2815625,23.80261762936911L166.68867187499998,86.49460021654765L166.809296875,87.96135807037354L166.960078125,-40.113284746805846L167.1259375,150.28134687741598L167.44257812499998,151.05346783002219L167.713984375,22.84437084197998L168.19648437499998,24.221195618311583L168.30203125,86.17730244000754L169.08609375,87.09456825256348L169.11624999999998,87.9399766921997L169.26703125,87.44511032104494L169.37257812500002,149.5113124847412L169.7796875,23.457608461380005L170.09632812499999,86.99356937408449L170.247109375,23.429428180058807L170.488359375,84.95218698183696L170.51851562500002,82.00887147585553L170.6240625,86.39697734514873L171.1065625,146.4499305089315L171.18195312499998,86.71150867144267L171.3478125,87.3267390727997L171.42320312500001,86.02718734741212L172.0715625,86.62162248293559L172.116796875,66.69204457600912L172.41835937500002,76.60393102963766L172.508828125,88.13641810417175L172.52390625,-39.518966833750426L172.91593749999998,80.03114088376363L173.021484375,85.22200965881349L173.97140625,144.1006281375885L174.107109375,23.621251026789366L174.21265624999998,151.1834441026052L174.25789062500002,23.850608507792174L174.3634375,22.691161076227843L174.408671875,-40.92019732793173L174.740390625,86.36469427744548L174.90625,22.798396190007537L175.07210937500003,-39.50471258163452L175.253046875,32.24708978335062L175.268125,140.9769541422526L175.313359375,86.18883713086447L175.67523437499997,151.0223335425059L175.76570312500002,85.20215217272442L176.11249999999998,87.28027208646138L176.26328125,24.348663330078125L176.38390625,76.9194470246633L176.56484375,148.90904688835144L177.303671875,147.61073772112528L177.439375,87.1348224480947L177.57507812499998,83.67232863108318L178.1028125,23.726141691207886L178.525,125.70307755470276L178.570234375,149.60077667236328L179.173359375,86.3115924994151L179.535234375,149.13120690981546L179.68601562499998,151.3482354482015L180.5153125,85.59015854199727L180.71132812500002,88.08348043759665L181.14859374999997,64.99252978960675L181.69140625,87.91857186953229L181.766796875,87.1133238474528L181.781875,-39.44943046569824L181.81203125,87.3762772878011L182.023125,23.57605004310608L182.2040625,23.585662285486876L182.55085937500002,149.77175736427307L182.641328125,87.81513476371765L182.8675,87.67711702982585L182.95796875,24.3274929523468L183.10875,87.82378578186035L183.470625,87.80772630373637L183.726953125,81.02457785606386L184.05867187500002,24.14486034711203L184.52609375,87.29930901527406L184.631640625,23.084419012069702L184.79749999999999,24.3115975856781L185.03875000000002,23.561139345169067L185.0990625,22.930341800053924L185.20460937500002,152.62837513287863L185.28,-41.26966094970703L185.807734375,86.63053139050803L185.91328125,23.120476643244416L186.45609375,85.09243194262189L186.87828125000001,22.968040545781463L186.9084375,151.18731244405112L186.923515625,86.11433053016664L186.953671875,23.521143039067596L187.044140625,146.1958859761556L187.17984375,23.398669004440308L187.2703125,87.80270918210347L187.345703125,86.73659427960715L187.78296875,148.23131346702576L187.99406249999998,23.81494943300885L188.159921875,86.04338749249776L188.310703125,86.88260658582053L188.37101562499998,-39.338491121927916L188.38609375000001,21.491060892740904L188.80828125,22.10345451037088L188.943984375,87.28205386797588L189.06460937499997,85.82875315348308L189.29078124999998,87.42408061027527L189.305859375,81.94557134310406L189.486796875,84.56727528572084L189.95421875,24.059897502263397L190.089921875,87.98698290189108L190.28593750000002,23.64708685874939L190.34625,86.22794254620871L190.42164062499998,151.8000811735789L190.55734375,23.53809340794882L190.67796875000002,150.40743136405945L190.783515625,87.45401922861735L190.79859374999998,-40.04670238494873L191.05492187500002,87.26308727264404L191.507265625,24.200517574946105L191.65804687500003,86.82748858133954L192.2159375,24.5051084359487L192.35164062500002,86.39467978477478L192.36671875,23.410438140233367L192.4571875,93.419025182724L192.69843749999998,18.38426693280539L192.803984375,87.4351933002472L193.226171875,86.41681138674419L193.24124999999998,21.83595283826193L193.376953125,85.94072405497234L193.45234374999998,22.288150231043517L193.61820312499998,24.446544090906798L193.75390625,84.12773791948956L193.965,23.54925298690796L194.130859375,22.932592471440643L194.53796874999998,88.5535659790039L194.583203125,86.22723921140036L194.71890625,21.320103645324707L195.095859375,84.2692957719167L195.156171875,147.90923301378885L195.29187499999998,25.985206206639617L195.50296875,86.46280948321025L195.5934375,84.99494973818463L195.62359375,136.44717319806415L196.13625,144.58440526326496L196.22671875,-40.85366185506189L196.34734375,-39.446945349375426L196.362421875,85.53515775998434L196.513203125,147.0931536356608L196.58859375,82.4291140238444L196.7996875,23.773030678431212L196.935390625,23.93076523145041L197.176640625,-39.47550074259442L197.55359375,21.630579074223846L197.840078125,87.0362617969513L197.97578125,87.80524118741353L198.2471875,81.59638905525209L198.654296875,151.0651431878408L199.00109375,24.022058089574188L199.03125,85.15962386131287L199.046328125,23.753102858861297L199.8153125,87.1535311539968L199.9359375,87.60678354899089L199.981171875,87.5577142238617L200.116875,151.81431198120117L200.68984375,64.26982982953389L201.15726562499998,88.15894826253256L201.458828125,146.50826040903726L201.564375,135.82884812355042L201.669921875,23.89620804786682L201.74531249999998,23.44405754407248L202.212734375,87.87623111406963L202.33335937500001,86.61442502339682L202.363515625,86.69819219907126L202.876171875,86.27375308672588L202.92140625000002,85.90117319424947L203.1325,23.603808323542296L203.177734375,87.10720483462016L203.34359375,151.546036640803L203.43406249999998,148.81911381085715L203.85625,151.51009623209634L203.90148437500002,87.70030363400778L203.9165625,88.10136858622234L204.00703125,148.71970915794373L204.0371875,23.88317290941876L204.293515625,-39.47615718841553L204.414140625,86.88949926694234L204.54984375,87.61081600189209L204.77601562499999,148.66287970542908L205.017265625,23.656370878219604L205.6053125,87.13252488772075L205.78625,87.44858010609946L205.81640625,144.2690533796946L205.9671875,23.723140796025604L206.133046875,87.58383138974509L206.23859374999998,-39.49730412165323L206.34414062500002,87.99303158124287L206.374296875,87.41962615648906L206.63062499999998,23.16408340136212L206.917109375,24.13721744219464L207.459921875,86.73755550384521L207.610703125,87.51157546043397L207.86703125,151.57224758466086L207.9575,87.28374187151591L208.093203125,23.384461641311646L208.545546875,-39.33942890167236L208.89234375,148.5675309499105L208.90742187499998,-39.52895418802896L209.178828125,23.056918621063232L209.60101562499997,150.979101896286L209.67640624999999,24.062992175420135L209.872421875,86.57102926572165L210.08351562500002,22.782594601313292L210.20414062499998,87.22867075602214L210.27953125,-39.33469311396283L210.3096875,23.641366402308165L210.324765625,23.94328459103903L210.62632812500001,86.98784891764325L210.70171875,86.07213044166566L210.9128125,87.71959845225018L211.06359375,23.913416306177766L211.138984375,86.25898305575053L211.24453125,87.43369285265607L211.531015625,142.30578804016113L211.71195312499998,149.92433412869772L212.2396875,87.11142484347026L212.375390625,23.888893365859985L213.099140625,85.20597362518312L213.17453124999997,87.62598458925883L213.40070312499998,85.68227195739746L213.5665625,150.3520554701487L213.62687499999998,82.12088926633199L213.86812500000002,87.201029698054L214.064140625,24.137451887130737L214.365703125,86.14246392250061L214.50140625,150.41333937644958L214.62203125000002,91.7631405989329L214.92359374999998,82.19187919298808L215.16484375000002,87.35224668184918L215.46640625,87.38753064473471L215.51164062499998,87.43172351519267L215.752890625,86.54540443420412L215.994140625,87.27593485514323L216.16,86.5383710861206L217.06468750000002,23.94680126508078L217.20039062499998,87.34221243858337L217.21546875,85.1749565601349L217.66781250000003,24.07117430369061L217.95429687499998,23.69826618830365L217.99953125,96.38470673561098L218.33124999999998,21.965014775594085L218.9946875,80.4169200261434L219.311328125,86.23790645599365L219.401796875,87.85651429494222L219.431953125,87.29794923464458L219.74859375,86.72630214691162L220.0803125,24.49122929573059L220.517578125,150.8850894769033L221.211171875,23.133089780807495L221.452421875,-39.36573362350467L221.633359375,23.918808539708465L222.52296875,88.08282399177551L222.76421875000003,86.6906430721283L223.231640625,22.615576028823853L223.352265625,85.9261650244395L223.66890625,-39.34252357482913L224.045859375,-5.585359891255678L224.12125,23.394542773564666L224.317265625,149.57501117388406L224.51328125,22.99919827779135L224.60375000000002,150.43458008766174L225.23703125,85.49996757507324L225.252109375,86.5318769613902L225.3275,150.45727435747781L225.553671875,23.866621096928924L226.428203125,23.689826170603453L226.68453125,149.81187089284262L227.091640625,151.09400335947672L227.10671875,23.717185894648225L227.22734375,24.16244371732077L227.40828125000002,87.61098011334738L227.453515625,-39.336052894592285L227.58921875000001,87.50268999735516L227.815390625,82.68130644162495L227.875703125,-39.428471088409424L227.905859375,23.677517811457307L228.13203124999998,24.377828280131013L228.4034375,151.76017864545187L228.67484374999998,22.71212045351666L228.90101562499999,86.35383947690329L229.051796875,-39.37239185969034L229.09703125000001,23.525409936904907L229.27796874999999,87.3873196442922L229.293046875,23.206424156824767L229.353359375,87.76796444257101L229.775546875,152.31295291582742L230.167578125,23.81494943300885L230.66515625,143.85591451327005L230.891328125,150.45628968874612L231.43414062500003,87.31543882687888L231.50953124999998,150.11533641815186L232.23328125,22.54749321937561L232.29359375,151.20857659975687L232.59515625,87.37081472078961L233.31890625,87.52212548255922L233.33398437500003,88.40307577451071L233.726015625,23.496291875839233L233.77124999999998,150.82469646135965L234.40453125000002,88.57569758097331L234.64578125,86.86837577819824L235.17351562500002,87.4631860256195L235.3996875,126.12193687756857L235.5203125,23.456905126571655L235.595703125,146.3664446671804L235.61078124999997,24.255565245946258L236.108359375,150.0793960094452L236.3646875,24.064234733581543L236.409921875,86.27417508761089L236.45515625000002,24.031248331069946L236.651171875,87.54528864224751L237.05828125,88.63662981987L237.3296875,151.1269897619883L237.435234375,87.87580911318462L237.54078125,21.880966265996307L237.8725,-39.33333333333334L238.189140625,87.72576435407004L238.38515625,23.630300601323455L238.91289062500002,24.035913785298675L239.25968749999998,146.62032508850098L239.304921875,23.639819065729796L239.50093750000002,151.47202237447104L239.56125,86.965646982193L239.65171875000001,77.86172811190288L240.300078125,87.25867970784506L240.31515625,87.6188574632009L240.601640625,87.01037907600403L240.64687500000002,86.68832206726074L240.76749999999998,149.85578242937723L240.782578125,23.919253985087096L240.79765625000002,87.5490866502126L240.888125,24.26623249053955L241.18968750000002,24.136326551437378L241.21984375,24.319334268569946L241.49125,23.724430243174254L242.24515625,86.21396962801616L242.45624999999998,-39.33333333333334L242.54671875000003,24.318584044774383L243.059375,150.35812759399414L243.677578125,87.6355968316396L244.099765625,-39.98223002751672L244.50687499999998,70.68082038561504L244.582265625,88.24684166908264L244.672734375,23.15247837702435L245.01953125,23.31450327237448L245.396484375,66.80626614888509L245.577421875,152.06594173113504L245.5925,79.78731815020244L245.68296875000001,23.06395196914673L245.818671875,147.93295884132385L246.075,23.987571239471436L246.2559375,23.944925705591857L246.34640625,86.82354990641277L246.64796875000002,150.40513380368552L246.70828125,87.25061480204265L247.07015625,147.94829154014587L247.10031249999997,88.11925673484804L247.236015625,101.87024935086569L247.989921875,150.1600919564565L248.351796875,-39.33333333333334L248.366875,86.95472184816998L248.69859375,-40.152718385060666L249.22632812499998,24.28111974398297L249.24140625,86.0800546805064L249.60328124999998,-40.625359376271604L249.6334375,150.8468983968099L249.648515625,66.48111446698506L250.100859375,-39.38941256205243L250.4778125,24.204761028289795L250.52304687499998,-39.335208892822266L250.553203125,-39.33544333775839L250.77937500000002,151.7244726816813L250.86984375,86.10143605868024L251.17140625,150.64257963498434L251.3221875,88.48184927304587L251.337265625,88.04990792274475L251.457890625,150.37859463691711L251.518203125,86.73978273073833L251.608671875,150.24045968055725L251.849921875,24.207621256510436L252.49828125,149.79810897509256L252.67921875000002,147.12421758969626L252.845078125,145.79683725039163L252.995859375,-39.882637818654416L253.01093749999998,87.74032338460287L253.07125,23.977935552597046L253.1315625,-15.431976874669402L253.191875,87.70063185691835L253.448203125,87.5083870093028L253.538671875,-39.40399503707886L253.59898437500001,87.4565277894338L253.629140625,23.4593902428945L254.00609375,23.07912055651346L254.292578125,23.819966554641724L254.398125,148.14602239926657L254.41320312500002,24.279759963353484L254.503671875,22.92232378323874" fill="none"></path></g></g></g></g></g></g><g transform="translate(58, 177)" clip-path="url(#clip_1)"><clipPath id="clip_1"><rect width="271" height="22"></rect></clipPath><g><g><line x1="0" y1="0" x2="0" y2="5" style="visibility: inherit;" fill="rgb(0, 0, 0)" stroke="rgb(204, 204, 204)" stroke-width="1px"></line><line x1="30.15625" y1="0" x2="30.15625" y2="5" style="visibility: inherit;" fill="rgb(0, 0, 0)" stroke="rgb(204, 204, 204)" stroke-width="1px"></line><line x1="60.3125" y1="0" x2="60.3125" y2="5" style="visibility: inherit;" fill="rgb(0, 0, 0)" stroke="rgb(204, 204, 204)" stroke-width="1px"></line><line x1="90.46875" y1="0" x2="90.46875" y2="5" style="visibility: inherit;" fill="rgb(0, 0, 0)" stroke="rgb(204, 204, 204)" stroke-width="1px"></line><line x1="120.625" y1="0" x2="120.625" y2="5" style="visibility: inherit;" fill="rgb(0, 0, 0)" stroke="rgb(204, 204, 204)" stroke-width="1px"></line><line x1="150.78125" y1="0" x2="150.78125" y2="5" style="visibility: inherit;" fill="rgb(0, 0, 0)" stroke="rgb(204, 204, 204)" stroke-width="1px"></line><line x1="180.9375" y1="0" x2="180.9375" y2="5" style="visibility: inherit;" fill="rgb(0, 0, 0)" stroke="rgb(204, 204, 204)" stroke-width="1px"></line><line x1="211.09375" y1="0" x2="211.09375" y2="5" style="visibility: inherit;" fill="rgb(0, 0, 0)" stroke="rgb(204, 204, 204)" stroke-width="1px"></line><line x1="241.25" y1="0" x2="241.25" y2="5" style="visibility: inherit;" fill="rgb(0, 0, 0)" stroke="rgb(204, 204, 204)" stroke-width="1px"></line><line x1="271.40625" y1="0" x2="271.40625" y2="5" style="visibility: inherit;" fill="rgb(0, 0, 0)" stroke="rgb(204, 204, 204)" stroke-width="1px"></line></g><g transform="translate(0, 8)"><text x="0" y="0" dx="0em" dy="0.95em" style="text-anchor: middle; visibility: hidden; font-family: &quot;Helvetica Neue&quot;, sans-serif; font-size: 12px; font-weight: 200;" fill="rgb(50, 49, 63)" stroke="none" stroke-width="1px">-2k</text><text x="30.15625" y="0" dx="0em" dy="0.95em" style="text-anchor: middle; visibility: inherit; font-family: &quot;Helvetica Neue&quot;, sans-serif; font-size: 12px; font-weight: 200;" fill="rgb(50, 49, 63)" stroke="none" stroke-width="1px">0</text><text x="60.3125" y="0" dx="0em" dy="0.95em" style="text-anchor: middle; visibility: inherit; font-family: &quot;Helvetica Neue&quot;, sans-serif; font-size: 12px; font-weight: 200;" fill="rgb(50, 49, 63)" stroke="none" stroke-width="1px">2k</text><text x="90.46875" y="0" dx="0em" dy="0.95em" style="text-anchor: middle; visibility: inherit; font-family: &quot;Helvetica Neue&quot;, sans-serif; font-size: 12px; font-weight: 200;" fill="rgb(50, 49, 63)" stroke="none" stroke-width="1px">4k</text><text x="120.625" y="0" dx="0em" dy="0.95em" style="text-anchor: middle; visibility: inherit; font-family: &quot;Helvetica Neue&quot;, sans-serif; font-size: 12px; font-weight: 200;" fill="rgb(50, 49, 63)" stroke="none" stroke-width="1px">6k</text><text x="150.78125" y="0" dx="0em" dy="0.95em" style="text-anchor: middle; visibility: inherit; font-family: &quot;Helvetica Neue&quot;, sans-serif; font-size: 12px; font-weight: 200;" fill="rgb(50, 49, 63)" stroke="none" stroke-width="1px">8k</text><text x="180.9375" y="0" dx="0em" dy="0.95em" style="text-anchor: middle; visibility: inherit; font-family: &quot;Helvetica Neue&quot;, sans-serif; font-size: 12px; font-weight: 200;" fill="rgb(50, 49, 63)" stroke="none" stroke-width="1px">10k</text><text x="211.09375" y="0" dx="0em" dy="0.95em" style="text-anchor: middle; visibility: inherit; font-family: &quot;Helvetica Neue&quot;, sans-serif; font-size: 12px; font-weight: 200;" fill="rgb(50, 49, 63)" stroke="none" stroke-width="1px">12k</text><text x="241.25" y="0" dx="0em" dy="0.95em" style="text-anchor: middle; visibility: inherit; font-family: &quot;Helvetica Neue&quot;, sans-serif; font-size: 12px; font-weight: 200;" fill="rgb(50, 49, 63)" stroke="none" stroke-width="1px">14k</text><text x="271.40625" y="0" dx="0em" dy="0.95em" style="text-anchor: middle; visibility: hidden; font-family: &quot;Helvetica Neue&quot;, sans-serif; font-size: 12px; font-weight: 200;" fill="rgb(50, 49, 63)" stroke="none" stroke-width="1px">16k</text></g><line x1="0" y1="0" x2="271.40625" y2="0" fill="rgb(0, 0, 0)" stroke="rgb(204, 204, 204)" stroke-width="1px"></line></g></g></g></g></svg>