<svg viewBox="0 0 329.99725341796875 200" xmlns="http://www.w3.org/2000/svg"><g><g><g><g><g><line x1="60" y1="178" x2="55" y2="178" style="visibility: inherit;" fill="rgb(0, 0, 0)" stroke="rgb(204, 204, 204)" stroke-width="1px"></line><line x1="60" y1="160.2" x2="55" y2="160.2" style="visibility: inherit;" fill="rgb(0, 0, 0)" stroke="rgb(204, 204, 204)" stroke-width="1px"></line><line x1="60" y1="142.4" x2="55" y2="142.4" style="visibility: inherit;" fill="rgb(0, 0, 0)" stroke="rgb(204, 204, 204)" stroke-width="1px"></line><line x1="60" y1="124.6" x2="55" y2="124.6" style="visibility: inherit;" fill="rgb(0, 0, 0)" stroke="rgb(204, 204, 204)" stroke-width="1px"></line><line x1="60" y1="106.8" x2="55" y2="106.8" style="visibility: inherit;" fill="rgb(0, 0, 0)" stroke="rgb(204, 204, 204)" stroke-width="1px"></line><line x1="60" y1="89" x2="55" y2="89" style="visibility: inherit;" fill="rgb(0, 0, 0)" stroke="rgb(204, 204, 204)" stroke-width="1px"></line><line x1="60" y1="71.2" x2="55" y2="71.2" style="visibility: inherit;" fill="rgb(0, 0, 0)" stroke="rgb(204, 204, 204)" stroke-width="1px"></line><line x1="60" y1="53.400000000000006" x2="55" y2="53.400000000000006" style="visibility: inherit;" fill="rgb(0, 0, 0)" stroke="rgb(204, 204, 204)" stroke-width="1px"></line><line x1="60" y1="35.60000000000002" x2="55" y2="35.60000000000002" style="visibility: inherit;" fill="rgb(0, 0, 0)" stroke="rgb(204, 204, 204)" stroke-width="1px"></line><line x1="60" y1="17.799999999999983" x2="55" y2="17.799999999999983" style="visibility: inherit;" fill="rgb(0, 0, 0)" stroke="rgb(204, 204, 204)" stroke-width="1px"></line><line x1="60" y1="0" x2="55" y2="0" style="visibility: inherit;" fill="rgb(0, 0, 0)" stroke="rgb(204, 204, 204)" stroke-width="1px"></line></g><g transform="translate(50, 0)"><text x="0" y="178" dx="0em" dy="0.3em" style="text-anchor: end; visibility: hidden; font-family: &quot;Helvetica Neue&quot;, sans-serif; font-size: 12px; font-weight: 200;" fill="rgb(50, 49, 63)" stroke="none" stroke-width="1px">-0.05</text><text x="0" y="160.2" dx="0em" dy="0.3em" style="text-anchor: end; visibility: inherit; font-family: &quot;Helvetica Neue&quot;, sans-serif; font-size: 12px; font-weight: 200;" fill="rgb(50, 49, 63)" stroke="none" stroke-width="1px">0</text><text x="0" y="142.4" dx="0em" dy="0.3em" style="text-anchor: end; visibility: hidden; font-family: &quot;Helvetica Neue&quot;, sans-serif; font-size: 12px; font-weight: 200;" fill="rgb(50, 49, 63)" stroke="none" stroke-width="1px">0.05</text><text x="0" y="124.6" dx="0em" dy="0.3em" style="text-anchor: end; visibility: inherit; font-family: &quot;Helvetica Neue&quot;, sans-serif; font-size: 12px; font-weight: 200;" fill="rgb(50, 49, 63)" stroke="none" stroke-width="1px">0.1</text><text x="0" y="106.8" dx="0em" dy="0.3em" style="text-anchor: end; visibility: hidden; font-family: &quot;Helvetica Neue&quot;, sans-serif; font-size: 12px; font-weight: 200;" fill="rgb(50, 49, 63)" stroke="none" stroke-width="1px">0.15</text><text x="0" y="89" dx="0em" dy="0.3em" style="text-anchor: end; visibility: inherit; font-family: &quot;Helvetica Neue&quot;, sans-serif; font-size: 12px; font-weight: 200;" fill="rgb(50, 49, 63)" stroke="none" stroke-width="1px">0.2</text><text x="0" y="71.2" dx="0em" dy="0.3em" style="text-anchor: end; visibility: hidden; font-family: &quot;Helvetica Neue&quot;, sans-serif; font-size: 12px; font-weight: 200;" fill="rgb(50, 49, 63)" stroke="none" stroke-width="1px">0.25</text><text x="0" y="53.400000000000006" dx="0em" dy="0.3em" style="text-anchor: end; visibility: inherit; font-family: &quot;Helvetica Neue&quot;, sans-serif; font-size: 12px; font-weight: 200;" fill="rgb(50, 49, 63)" stroke="none" stroke-width="1px">0.3</text><text x="0" y="35.60000000000002" dx="0em" dy="0.3em" style="text-anchor: end; visibility: hidden; font-family: &quot;Helvetica Neue&quot;, sans-serif; font-size: 12px; font-weight: 200;" fill="rgb(50, 49, 63)" stroke="none" stroke-width="1px">0.35</text><text x="0" y="17.799999999999983" dx="0em" dy="0.3em" style="text-anchor: end; visibility: inherit; font-family: &quot;Helvetica Neue&quot;, sans-serif; font-size: 12px; font-weight: 200;" fill="rgb(50, 49, 63)" stroke="none" stroke-width="1px">0.4</text><text x="0" y="0" dx="0em" dy="0.3em" style="text-anchor: end; visibility: hidden; font-family: &quot;Helvetica Neue&quot;, sans-serif; font-size: 12px; font-weight: 200;" fill="rgb(50, 49, 63)" stroke="none" stroke-width="1px">0.45</text></g><line x1="60" y1="0" x2="60" y2="178" fill="rgb(0, 0, 0)" stroke="rgb(204, 204, 204)" stroke-width="1px"></line></g></g><g transform="translate(60, 0)" clip-path="url(#clip_0)"><clipPath id="clip_0"><rect width="269" height="177"></rect></clipPath><g><g><g><line x1="0" y1="0" x2="0" y2="178" fill="rgb(0, 0, 0)" stroke="rgb(60, 60, 60)" stroke-width="1px" opacity="0.25"></line><line x1="20.769000000000002" y1="0" x2="20.769000000000002" y2="178" fill="rgb(0, 0, 0)" stroke="rgb(60, 60, 60)" stroke-width="1px" opacity="0.25"></line><line x1="41.538000000000004" y1="0" x2="41.538000000000004" y2="178" fill="rgb(0, 0, 0)" stroke="rgb(60, 60, 60)" stroke-width="1px" opacity="0.25"></line><line x1="62.30700000000001" y1="0" x2="62.30700000000001" y2="178" fill="rgb(0, 0, 0)" stroke="rgb(60, 60, 60)" stroke-width="1px" opacity="0.25"></line><line x1="83.07600000000001" y1="0" x2="83.07600000000001" y2="178" fill="rgb(0, 0, 0)" stroke="rgb(60, 60, 60)" stroke-width="1px" opacity="0.25"></line><line x1="103.84500000000001" y1="0" x2="103.84500000000001" y2="178" fill="rgb(0, 0, 0)" stroke="rgb(60, 60, 60)" stroke-width="1px" opacity="0.25"></line><line x1="124.61400000000002" y1="0" x2="124.61400000000002" y2="178" fill="rgb(0, 0, 0)" stroke="rgb(60, 60, 60)" stroke-width="1px" opacity="0.25"></line><line x1="145.383" y1="0" x2="145.383" y2="178" fill="rgb(0, 0, 0)" stroke="rgb(60, 60, 60)" stroke-width="1px" opacity="0.25"></line><line x1="166.15200000000002" y1="0" x2="166.15200000000002" y2="178" fill="rgb(0, 0, 0)" stroke="rgb(60, 60, 60)" stroke-width="1px" opacity="0.25"></line><line x1="186.921" y1="0" x2="186.921" y2="178" fill="rgb(0, 0, 0)" stroke="rgb(60, 60, 60)" stroke-width="1px" opacity="0.25"></line><line x1="207.69000000000003" y1="0" x2="207.69000000000003" y2="178" fill="rgb(0, 0, 0)" stroke="rgb(60, 60, 60)" stroke-width="1px" opacity="0.25"></line><line x1="228.459" y1="0" x2="228.459" y2="178" fill="rgb(0, 0, 0)" stroke="rgb(60, 60, 60)" stroke-width="1px" opacity="0.25"></line><line x1="249.22800000000004" y1="0" x2="249.22800000000004" y2="178" fill="rgb(0, 0, 0)" stroke="rgb(60, 60, 60)" stroke-width="1px" opacity="0.25"></line><line x1="269.997" y1="0" x2="269.997" y2="178" fill="rgb(0, 0, 0)" stroke="rgb(60, 60, 60)" stroke-width="1px" opacity="0.25"></line></g><g><line x1="0" y1="178" x2="269.997" y2="178" fill="rgb(0, 0, 0)" stroke="rgb(60, 60, 60)" stroke-width="1px" opacity="0.25"></line><line x1="0" y1="160.2" x2="269.997" y2="160.2" fill="rgb(0, 0, 0)" stroke="rgb(60, 60, 60)" stroke-width="1px" opacity="0.25"></line><line x1="0" y1="142.4" x2="269.997" y2="142.4" fill="rgb(0, 0, 0)" stroke="rgb(60, 60, 60)" stroke-width="1px" opacity="0.25"></line><line x1="0" y1="124.6" x2="269.997" y2="124.6" fill="rgb(0, 0, 0)" stroke="rgb(60, 60, 60)" stroke-width="1px" opacity="0.25"></line><line x1="0" y1="106.8" x2="269.997" y2="106.8" fill="rgb(0, 0, 0)" stroke="rgb(60, 60, 60)" stroke-width="1px" opacity="0.25"></line><line x1="0" y1="89" x2="269.997" y2="89" fill="rgb(0, 0, 0)" stroke="rgb(60, 60, 60)" stroke-width="1px" opacity="0.25"></line><line x1="0" y1="71.2" x2="269.997" y2="71.2" fill="rgb(0, 0, 0)" stroke="rgb(60, 60, 60)" stroke-width="1px" opacity="0.25"></line><line x1="0" y1="53.400000000000006" x2="269.997" y2="53.400000000000006" fill="rgb(0, 0, 0)" stroke="rgb(60, 60, 60)" stroke-width="1px" opacity="0.25"></line><line x1="0" y1="35.60000000000002" x2="269.997" y2="35.60000000000002" fill="rgb(0, 0, 0)" stroke="rgb(60, 60, 60)" stroke-width="1px" opacity="0.25"></line><line x1="0" y1="17.799999999999983" x2="269.997" y2="17.799999999999983" fill="rgb(0, 0, 0)" stroke="rgb(60, 60, 60)" stroke-width="1px" opacity="0.25"></line><line x1="0" y1="0" x2="269.997" y2="0" fill="rgb(0, 0, 0)" stroke="rgb(60, 60, 60)" stroke-width="1px" opacity="0.25"></line></g></g></g><g><g><line x1="0" y1="160.2" x2="269.997" y2="160.2" fill="rgb(0, 0, 0)" stroke="rgb(153, 153, 153)" stroke-width="1.5px"></line></g></g><g><g><line x1="20.769000000000002" y1="0" x2="20.769000000000002" y2="178" fill="rgb(0, 0, 0)" stroke="rgb(153, 153, 153)" stroke-width="1.5px"></line></g></g><g><g><g><g><g><path stroke="rgb(255, 112, 67)" stroke-width="2px" d="M24.3724215,-22.170963772096286L24.5801115,11.002555745639597L25.140874500000002,32.634158978785564L25.54587,21.590154360142293L25.691253000000003,12.690696391333631L26.335092,10.674909110161877L26.6154735,31.98875575074527L26.7816255,36.980521396722054L26.854317,50.221259830446456L26.864701500000002,72.56867996513593L27.352773000000003,90.79991724738511L27.4877715,86.23650086790956L27.633154500000003,84.99545042852107L27.736999500000003,84.83932460459606L28.183533,63.20590906503875L28.266609000000003,89.99073779233508L28.7131425,110.54550625011107L28.7546805,79.52571263155663L28.775449500000004,62.291646677085495L28.9208325,73.49681390788948L28.941601500000004,79.33233811317183L29.097369,36.9857287250675L29.159676,71.5756020494776L29.450442,78.70712156729398L30.582352500000002,105.32610479823471L30.852349500000003,78.21285280317692L30.862734,61.94426505173148L30.925041,72.15074404495321L31.174269000000002,34.23039552796138L31.2054225,11.007679184396721L31.298883,28.380104262321765L31.8077235,31.687470440289758L31.838877,46.27969158478825L32.1192585,87.40369692887758L32.181565500000005,66.09246380446987L32.233488,77.02155845244798L32.773482,83.24455736687862L32.825404500000005,87.44791333325587L32.835789,89.77714575081207L33.022710000000004,91.49096241920851L33.157708500000005,92.74445660191653L33.687318000000005,92.64650132702513L33.8638545,71.16836857346242L34.435002000000004,80.23013308255523L34.4661555,108.52909564619682L34.6115385,78.56094262865291L34.653076500000005,38.68231588999578L35.1515325,38.346765346527974L35.224224,82.52036025238137L35.45268300000001,61.54668354339644L35.577297,70.01228258697542L35.681142,101.82403956942774L35.99267700000001,121.04179587300433L36.1069065,110.20056626281627L36.2522895,81.3034133546441L36.584593500000004,63.50520702081256L36.885744,30.35778432296118L37.051896000000006,69.35334492925645L37.218048,100.85628336670302L37.259586000000006,97.17288407565536L37.4361225,95.1195699076735L37.799580000000006,93.01891609316367L38.235729,93.55788255384742L38.329189500000005,70.21292508513437L38.5161105,57.493517933313285L38.609570999999995,46.866920295968214L38.754954,58.653318662413696L38.775723,73.51151184258981L38.8068765,81.62553673278167L39.2637945,109.88644720370098L39.731097000000005,93.57582124504164L39.918018000000004,117.39045618315168L40.011478499999996,108.02494694673794L40.146477,102.2936631601082L40.1776305,51.63188549524706L40.260706500000005,91.89256511596537L40.676086500000004,67.11750154058753L40.852623,101.00808654523264L40.956468,98.59987925944549L40.9876215,114.15992038403644L41.548384500000004,82.64327162357984L41.672998500000006,86.65510090978633L41.911842,89.65834916586692L42.33760650000001,66.26643224808583L42.420682500000005,54.97956586511738L42.4622205,48.31737025637511L42.534912000000006,66.68874490773132L43.085290500000006,55.443295677396364L43.157982000000004,47.60381174557966L43.479901500000004,89.04639595314003L43.5214395,68.44436549165331L43.604515500000005,79.12987077127983L43.7291295,61.93812399322445L43.936819500000006,94.74415546664389L43.988742,72.24418689494607L43.9991265,57.79827689221668L44.2068165,72.4122921698759L44.258739,81.66770018061817L44.7260415,87.0672412021209L44.8506555,68.03605211873348L45.1206525,101.09916649996933L45.214113000000005,99.13044113838492L45.5775705,74.81475348307978L45.587955,59.959675835575396L45.608724,96.33164826333865L46.065642000000004,117.87023909151759L46.2421785,85.5792893174899L46.2629475,89.11555490992144L46.31487,68.81809496224926L46.5744825,78.22741701686981L46.584867,87.0096318202293L46.688712,109.99808988315321L46.709481,103.25384706343685L46.76140350000001,75.72380070022031L46.9067865,61.257521920986676L46.96909350000001,73.53181845044357L47.062554,81.62840120133914L47.2183215,84.84515193067286L47.280628500000006,58.502618025316565L48.6513825,93.13072242651806L48.8383035,70.41329280802266L49.222530000000006,101.60651353042518L49.367913,80.01380023861643L49.7313705,39.79876483860443L50.842512000000006,46.304820216791796L51.579811500000005,65.60459211176453L51.6628875,99.57436651888978L52.0367295,57.82344736876183L52.317111000000004,50.387108582389914L52.3482645,67.92967123158726L52.9505655,33.298040051269254L53.5944045,80.84739185989363L53.9474775,86.44056858074943L53.957862,50.715736164166216L54.310935,67.38299411625486L54.41478,77.34704698855175L54.456318,106.04786173423823L54.477087,100.99183500242648L54.4874715,73.8098172261263L55.0897725,82.33468725645214L55.5051525,64.7252571056108L55.827072,54.192853829253934L56.107453500000005,92.24430543720081L56.159376,92.38805977904413L56.387835,69.27035415889985L56.5851405,79.28181391669611L56.740908000000005,85.36084372111142L56.90706,88.56429540579308L58.153200000000005,89.40109496274464L58.340121,67.898868189805L58.36089,71.88714975986078L58.734732,58.14190878673311L58.880115,68.44173285367438L59.461647000000006,100.87249208570927L59.503185,51.1389255874241L59.6174145,69.0004654903939L60.1574085,56.440182343705345L60.375483,91.54411093210213L60.427405500000006,115.03942525753398L60.4481745,106.5960883210243L60.55201950000001,100.89703943670638L60.89470800000001,76.1860837885192L61.019322,82.8429860847265L61.559316,87.66338821989719L61.850082,85.8827849003221L62.140848000000005,111.23440515116128L62.535459,82.31954913088842L62.6496885,87.62291861503819L62.680842000000005,112.70601090031565L63.2727585,82.79305737637102L63.324681,87.61137994660508L63.438910500000006,68.10591820081217L64.196979,56.437848138810054L64.321593,48.827139291763814L64.34236200000001,66.83747351264984L64.3942845,100.63359790382404L64.404669,75.30036822639477L64.6642815,60.9770996360932L64.716204,97.21301299744572L64.7473575,73.01861168869571L65.03812350000001,59.40588564114712L65.069277,51.112182183485885L65.463888,91.09617176736691L65.5988865,115.47369806698143L65.61965550000001,84.6456190438937L66.4608,88.26638046335404L66.8034885,91.42071159023777L67.416174,115.44935438715657L67.5927105,107.37452174713158L67.81078500000001,56.315284718811185L68.309241,93.76465422972421L68.3403945,94.44186489501227L68.828466,91.8519308419146L69.202308,90.61752388066755L69.243846,92.66929951898281L69.326922,115.41553366417898L69.7111485,107.34586043974886L69.763071,57.10090566051679L70.095375,26.95496829255032L70.17845100000001,31.8470511239982L70.489986,57.02737795604564L70.61460000000001,49.841404057105166L70.63536900000001,45.37600559267983L71.02998000000001,87.45853571339599L71.154594,89.89897738125414L71.590743,90.77963652030523L72.29688900000001,115.36059061655935L72.3903495,130.19349687558136L72.421503,116.02081631458833L73.210725,84.99036462090632L73.231494,88.64799806941879L73.2418785,113.78866301935513L73.792257,127.21358904696464L74.08302300000001,92.1419735804615L74.76840000000001,92.31240981432305L75.17339550000001,70.72598871238533L76.1080005,79.75291155247392L76.2741525,63.64955927889646L76.4195355,76.6396867201394L77.05299000000001,55.75297133002674L77.28144900000001,48.666838053905934L78.0395175,67.49955006363628L78.0602865,56.03964357806825L78.39259050000001,49.21951481123915L78.64181850000001,67.58689704668612L78.78720150000001,56.11181113679464L79.233735,48.58173672174965L79.54527,67.83296516308519L79.586808,55.762446162517875L79.74257550000002,71.33101904715062L80.16834,102.95955959036922L80.1994935,77.30429274961338L80.749872,80.1532994504272L81.082176,108.43188252899046L81.2587125,103.47693774493332L81.289866,99.5891749035823L81.642939,119.67636459180758L81.663708,129.52553423588898L81.7363995,116.05911601272479L82.1102415,130.59438053063903L82.328316,116.84807584340783L82.577544,84.52666794333109L82.6294665,77.52320213242321L82.69177350000001,61.76872444107502L82.972155,74.43077781650048L83.179845,60.191938064412L83.23176750000002,72.95212818975193L83.387535,82.0881239330467L83.4394575,64.69505201790908L83.885991,76.85140752681599L84.3325245,61.57040498667067L84.43636950000001,98.05677592046919L84.9555945,118.71244964651979L85.1529,109.32061494858694L85.2878985,104.59440266055842L85.35020550000002,100.66953344203817L85.48520400000001,98.40647430335157L86.0771205,96.24655952402755L86.31596400000001,73.14973737686161L86.3678865,82.0520350378113L86.6171145,87.51770753391726L86.84557350000001,89.3222116442212L86.98057200000001,69.20587827513745L87.22980000000001,79.83178443044503L88.226712,62.81963662582683L88.26825000000001,98.14224563287524L88.47594,74.58885287670392L89.036703,82.67819669382632L89.140548,85.16347965798892L89.33785350000001,66.25022372008631L89.8986165,78.2707879376487L89.99207700000001,84.8748129077003L90.116691,66.57498862428939L90.1478445,55.37709593107388L90.30361200000002,71.07400629597954L90.3347655,81.24422227429181L90.45937950000001,110.36659378937978L90.739761,104.38517899472774L90.781299,55.34121756529366L90.8955285,94.49920273766253L91.71590400000001,72.11459807005723L91.861287,81.04629731325626L91.944363,83.54333184330653L92.1001305,65.68806554656621L92.77512300000001,55.03691691506741L93.107427,92.0140532442858L93.377424,70.15171100312055L93.605883,80.10890282639016L94.56125700000001,63.18402758984655L94.644333,75.77437680094773L94.88317650000002,61.25967992502052L95.0700975,98.0617555258131L95.703552,118.14261941656208L96.02547150000001,63.665993936924565L96.57585,98.79039567474629L96.69007950000001,97.34163087942663L96.87700050000001,96.73311418973483L96.9808455,90.84578680684017L96.99123,47.37474053198008L97.1885355,88.92889932330792L97.42737900000002,46.21949844560828L97.6246845,88.89328781248216L98.02968,113.58123767543485L98.0608335,128.46343699078946L98.133525,135.9131804691624L98.23737,118.72586703699062L98.2685235,109.35143788576859L98.42429100000001,124.0647389216467L98.76697950000002,89.94352444429661L98.964285,46.575289089795746L99.7846605,63.86728342015553L100.148118,53.610184982055486L100.32465450000001,68.63677261032704L100.480422,56.96324850653437L100.59465150000001,49.54286321601168L100.6569585,44.899276813274014L100.916571,65.57699358964288L101.02041600000001,54.3818468648453L101.207337,70.67752309311983L101.35272,33.54241004270051L101.56041,58.17296130348288L101.64348600000001,94.6941349249425L101.747331,70.23936654456512L102.11078850000001,79.46063269453082L102.162711,108.87344695375462L102.7961655,80.96832102564633L102.80655,109.57309893862998L103.13885400000001,127.18001676140187L103.7515395,115.16694110237336L104.11499700000002,130.52121395112738L104.22922650000001,93.65460686112442L104.3538405,94.24628019943832L104.530377,72.14296205887197L105.71421000000001,102.18368752508759L105.755748,76.66084182566047L105.901131,84.50255995455765L106.0776675,66.27565494932762L106.1399745,55.38908012245912L106.57612350000001,70.89643652638684L106.7422755,73.06533315301472L106.856505,82.08478416991551L107.2407315,87.04004561181259L107.29265400000001,68.17240304991837L107.31342300000001,78.95349493053696L107.37573,107.19815437333071L107.61457349999999,125.86881917200259L107.66649600000001,113.01730140615565L107.7599565,83.19883983951247L108.6945615,42.68769063008688L108.72571500000001,86.83875209243811L109.016481,112.76891209454368L109.06840350000002,122.01504406077284L109.120326,88.805349239961L109.722627,85.00940733984453L109.992624,88.72663780829515L110.08608450000001,91.21504465091948L110.42877299999999,70.2642975577636L110.4391575,57.399860787923544L110.53261800000001,49.76602481397117L110.92722900000001,45.28810188407974L111.010305,42.58437272331284L111.0622275,63.305168922073634L111.88260300000002,53.24858204324663L112.16298450000001,70.38969600558055L112.3499055,102.7643202850805L112.38105900000001,99.74494717059055L112.59913350000001,75.3826974054427L112.713363,105.17893425823755L112.96259100000002,95.83133857847159L113.03528250000001,95.12015093684735L113.211819,72.16467677426661L113.232588,81.54037565989688L113.2637415,109.43058905484317L113.48181600000001,104.3164654629352L113.5545075,61.60113166194691L113.793351,74.3508218003603L113.9698875,83.18572270591808L114.15680850000001,64.65038824391218L114.2191155,77.33213985628993L114.3229605,84.89598532597489L114.520266,89.31726418066184L114.80064750000001,46.333672564793574L114.8837235,66.37782669637735L115.10179800000002,78.3163865886577L115.83909750000001,107.73003178611089L116.57639700000001,57.48281208619291L116.6490885,49.97230880704413L116.92947000000001,90.94823759822184L117.1475445,92.75847405688843L117.4175415,93.82933806953955L117.51100200000002,93.75018966423349L117.843306,94.71271162645148L118.0613805,72.55226684937553L118.507914,59.02818158942269L118.5390675,95.06822157190923L118.7467575,117.72073429278544L118.819449,100.73002671153552L119.08944600000001,53.178664945073166L119.816361,47.30793117911057L119.9098215,43.644510199012956L119.98251300000001,62.98875306688703L120.1175115,76.03543254997109L120.3459705,107.43259879389866L120.46020000000001,79.98648663305917L120.7405815,63.301865200660714L120.9898095,53.526744883335894L121.05211650000001,69.6753071839078L121.29096,57.649297068981156L121.47788100000001,50.02606065181959L122.20479600000002,90.62806236689131L122.661714,69.76621308770682L122.95248000000001,56.68855025557819L122.98363350000001,72.4482278286704L123.39901350000001,81.29813131924203L123.64824150000001,39.177889716838195L124.32323400000001,60.289377892145154L125.13322500000001,74.4111137462429L125.1851475,52.16631506399939L125.216301,69.5903496463098L125.486298,57.34080568546044L125.7251415,95.11460283037415L125.78744850000001,95.7259146179938L125.943216,73.06083161152505L126.109368,81.38442813943091L126.35859600000002,105.94154105419076L126.5351325,101.25638932367656L127.27243200000001,75.77592944610414L127.48012200000001,107.01837003414809L127.55281350000001,117.14521866431821L127.604736,85.89434372300498L128.72626200000002,44.15703534909838L128.7574155,87.33277652638408L128.97549,90.72612101302893L129.02741250000003,92.90972883264035L129.473946,94.00131823754198L129.5881755,72.20410332045488L129.6920205,81.48150566674192L129.73355850000002,64.67368712578366L130.034709,54.312008353198465L130.1281695,69.9688601136952L130.36701300000001,57.940870053812816L130.3773975,50.215518412139986L130.82393100000002,22.877140560833794L130.9173915,51.65872335856449L131.093928,69.84327533975417L131.14585050000002,79.08830361327634L131.23931100000001,62.98105536437693L131.322387,75.95582508645454L131.405463,83.87888367415665L131.58199950000002,108.23382604265927L131.9973795,103.14305096235705L132.381606,54.72138897279997L132.4750665,48.309734228253944L132.485451,44.48867979705369L132.71391,87.80314896023296L132.78660150000002,91.08565045783533L133.0773675,93.53378132694729L133.18121250000002,48.92822518654924L133.233135,91.11703412239707L133.3473645,70.57028415980909L133.44082500000002,58.067387533086375L133.58620800000003,50.473405218063505L133.98081900000003,90.82009676929636L134.0119725,47.16433005712224L134.3650455,66.13062754858609L134.4065835,52.23348801367925L134.645427,67.46792768140702L134.70773400000002,78.91495458781759L134.72850300000002,85.01971896469618L135.143883,89.60833118426815L135.20619,92.18586251060971L135.226959,93.89750953746324L135.34118850000002,72.07164178510001L135.39311100000003,81.67969540965254L135.53849400000001,64.14252792007741L135.6319545,76.92840613726983L135.79810650000002,84.2217635309947L136.057719,66.14602530457095L136.2550245,77.49974103723476L136.348485,107.18178487273758L136.535406,93.81210206301634L136.8157875,78.87062589616552L137.054631,85.10516789609774L137.0754,89.07562971028437L137.0857845,91.67011630959959L137.69847000000001,93.35517626540452L137.7296235,117.4579036375081L137.823084,108.010211409342L138.21769500000002,80.1474196846555L138.7473045,40.72617886157457L139.34960550000002,39.54994565541517L139.7234475,62.75146338400229L139.89998400000002,75.47016750488869L140.107674,83.72251996704453L140.39844000000002,40.95133794610808L140.4295935,62.82657228747075L140.523054,76.28965072416702L140.69959050000003,83.77273908486032L140.7826665,66.07345740813055L140.876127,55.21707304488443L141.1980465,47.555679732387205L141.603042,41.9402601610571L141.72765600000002,62.60397741621435L141.85227,52.3902497424227L141.9664995,47.31388548693312L142.1118825,21.150725701339553L142.1326515,27.895050803951932L142.5064935,54.90018220432552L142.88033550000003,71.30314641289681L143.16071700000003,58.36069203551274L143.3164845,71.0267039175967L143.62801950000002,35.38350938058733L143.8772475,37.10466377196812L144.0641685,60.620878535855454L144.406857,51.93904111763753L144.6872385,68.01369024980617L144.822237,101.84794496577115L144.843006,96.32695791650494L145.0610805,96.81708508925844L145.113003,96.09478461144691L145.25838600000003,73.29522466777757L145.362231,59.10430839609501L145.4141535,51.13088354916212L145.48684500000002,23.401151169841512L145.68415050000002,34.54149596542419L145.80876450000002,40.717739376129515L146.81606100000002,62.96286606830466L146.9718285,99.2610007574684L147.086058,92.57202068153181L147.127596,93.89121778001284L147.293748,94.83975002759632L147.6364365,93.65407105919085L147.729897,94.27755843065L148.394505,117.2896915868629L148.42565850000003,85.78108269427472L148.5918105,90.04718944581899L149.49526200000003,59.11346703739494L149.58872250000002,51.00256163341719L149.910642,68.56420070685697L150.13910099999998,79.48069474433512L150.36756000000003,109.51428705534131L151.0425525,98.18417465019698L151.1256285,74.52215638237283L151.572162,59.93210064933946L151.8733125,75.7411865256205L152.3509995,60.62002775323242L152.6417655,52.03371173174294L153.25445100000002,69.64350983399817L153.420603,75.99353042661349L153.7425225,84.08583428990363L154.043673,110.86854815084648L154.30328550000002,104.95038702725716L154.355208,122.37445935868828L154.4902065,88.90999625959162L154.687512,68.87688038133481L155.123661,78.69811583866418L155.1340455,62.25505493944729L155.3417355,73.46662547389175L155.9440365,82.4750958859891L156.120573,88.46183182358565L156.4009545,91.34743350958719L156.411339,93.2394751966947L156.494415,71.55501417761765L156.619029,36.15328045633865L156.74364300000002,58.78553381411692L156.8994105,73.70935470848357L156.94094850000002,103.4557826744859L157.117485,54.665702575882946L157.491327,70.05186836864988L157.6470945,80.57818845359348L157.75093950000002,106.18503198771394L157.782093,56.53114694683978L157.90670699999998,49.169366306836764L157.9170915,88.8561684100481L157.9586295,111.52745167545392L158.2493955,127.6514678772206L158.5193925,137.62850659226865L158.86208100000002,98.44022916516953L159.01784849999999,51.77312729097183L159.3916905,69.66400042853816L159.942069,34.67057459641734L159.983607,36.33439019852423L160.19129700000002,82.53577528198684L160.7001375,109.62272781491355L161.00128800000002,80.93925108408973L161.437437,63.48376013455419L161.9670465,97.76999401103035L162.122814,94.17857248694048L162.20588999999998,71.49528853839843L162.26819700000001,81.68429821459178L162.787422,64.41757506446675L162.8185755,76.98682889411828L162.849729,84.79740737599124L162.98472750000002,89.58893406106228L163.265109,91.21141333885906L163.52472150000003,70.66874756996582L163.597413,101.43733861079664L163.825872,99.5101347376755L164.178945,96.9390738540799L164.5424025,73.73829323136272L164.781246,59.44983207513965L164.81239950000003,74.36403307992266L164.947398,105.97756833122995L165.49777650000001,98.12529992512957L165.508161,97.74204700143395L165.7054665,74.50635880083595L165.73662,59.30991191059802L165.8300805,74.53241185659442L165.84046500000002,83.17627330490512L165.90277200000003,65.56375842492918L166.110462,101.153133690364L166.131231,122.61994234800747L166.98276,112.02725532579667L167.045067,128.43973240690377L167.8239045,115.2298430337724L168.4469745,129.6680180677305L168.50928150000001,110.79744778445543L168.74812500000002,81.78349356157293L169.13235150000003,87.97578592957682L169.142736,68.5174702683784L169.205043,74.92845699546918L169.2985035,60.58335009907593L169.47504,70.11424925622289L169.59965400000002,57.086741062980565L169.66196100000002,27.245924127687033L169.869651,54.7842393521005L170.2746465,71.22825891277398L170.7938715,104.36804978430989L171.04309949999998,124.11782711255981L171.281943,90.28374403898974L171.655785,115.61746329656278L171.905013,107.40871619815252L171.9361665,102.99520843288076L172.715004,99.58079165137273L172.777311,97.89606875608243L173.08884600000002,51.15925445097612L173.18230649999998,69.09391557418064L173.2238445,79.60617537523957L173.28615150000002,61.92567439094576L173.89883700000001,51.11757330903646L174.2415255,69.15091506009838L174.25191,56.86444313624824L174.33498600000001,72.18072907983854L174.37652400000002,81.50598133599517L174.5530605,87.28421240923261L174.61536750000002,113.96519266770754L174.65690550000002,81.26659698490185L174.93728700000003,64.60435953142573L175.2176685,54.37022716523606L175.414974,71.0337400169456L175.74727800000002,81.5948199874928L175.7576625,58.210907228396565L175.76804700000002,95.10787147021664L176.017275,72.60906700215563L176.81688150000002,104.42642851306094L177.471105,101.34758043547329L177.90725400000002,99.59379757082377L177.94879200000003,98.3774181451554L178.40571,119.26688637293309L178.6030155,132.63781964037972L178.987242,94.94545850786065L179.29877700000003,73.03281501789388L179.3714685,82.29858322536646L179.4753135,110.04186554190933L179.901078,81.71785392902743L180.0776145,64.46076109017402L180.13992149999999,74.04881819966715L180.212613,80.39219277908376L180.7006845,63.47985719805939L180.752607,98.8403024909853L180.91875900000002,74.59400491225475L180.981066,60.53307243053766L181.084911,74.63711486258896L181.271832,83.05534486054654L181.44836850000002,87.90073619412944L181.46913750000002,68.42044476823547L181.8014415,33.65217271421278L182.12336100000002,35.35833546980572L182.6114325,36.597968734886365L182.73604650000001,60.075352457515066L182.850276,50.88706249913673L183.83680350000003,46.28879961801232L184.22103,66.13977984328663L184.470258,78.8156191381192L184.56371850000002,62.9597070427165L184.62602550000003,30.608734458173842L184.781793,56.71157396881911L185.1037125,72.22318965106685L185.13486600000002,100.52606770223068L185.33217150000002,121.63557592407278L185.52947699999999,88.72151792153961L186.70292550000002,91.20199966970233L186.78600150000003,70.4893306573817L186.8483085,80.50299111369783L187.0975365,64.02590830423554L187.107921,53.67700250207257L187.502532,70.97010424172207L187.7829135,57.41731013795928L187.9075275,50.15247413361786L188.12560200000001,42.24180050876569L188.7382875,73.67233934990662L188.873286,81.8798196064955L188.97713099999999,87.56997481748617L189.018669,90.69077542165016L189.50674050000003,93.33911657058653L190.25442450000003,94.22752940966758L190.4828835,69.92675104805274L190.52442150000002,80.43663389604356L190.55557500000003,54.85833499384562L190.65942,68.23222643347167L190.86711,79.26031638986815L191.137107,109.30752953652708L191.49018,80.95006841161353L191.58364050000003,64.03350586020053L192.1651725,58.94078697635592L192.7259355,74.21427046462216L192.9959325,81.88152894976328L193.047855,86.82285198213214L193.78515450000003,113.37192943955395L193.8266925,82.8709161285456L194.1589965,110.48519099258756L194.667837,82.18963352026567L194.875527,86.12741277207151L195.207831,90.15473076337108L195.311676,115.5046022023769L195.32206050000002,85.01895593202184L195.58167300000002,89.12168933985275L195.6751335,66.65592641137624L195.82051650000002,32.83030252040973L196.2566655,12.41073613871066L196.516278,68.83683339541511L197.2951155,78.72666895738458L197.990877,39.79828973502643L198.31279650000002,62.700117639843995L198.6658695,98.62790461787246L198.676254,97.49521942859091L198.904713,74.19340563252686L199.299324,60.11105907699539L199.35124650000003,97.02558032000705L199.40316900000002,97.20943739488509L199.7873955,74.16603211924306L199.8704715,82.7672970364384L200.0158545,87.79709924160792L200.130084,68.2322626692018L200.317005,55.90408507954844L200.337774,26.412588338683662L200.5766175,53.40291740216651L200.587002,47.53696774552964L200.5973865,67.01203248447598L200.62854000000002,55.60652576891435L200.8258455,71.47745656852635L201.18930300000002,58.57874172141976L201.3658395,50.82876738316314L201.50083800000002,68.97384598974286L201.51122250000003,57.06743411972462L201.729297,71.73220106097662L201.833142,81.70650601942899L201.91621800000001,64.51906150197722L202.02006300000002,54.30927051553569L202.5289035,70.2996382370558L202.61197950000002,57.75542121737996L202.6535175,72.74380065446974L202.9442835,82.10130719093014L203.08966650000002,64.98172355024535L203.15197350000003,98.97805541234325L203.2973565,75.07373680041498L203.39081700000003,83.15557638505855L203.4635085,111.09300191700315L203.473893,104.60942547500048L203.515431,77.59749930965849L203.7750435,107.2292954842326L203.87888850000002,126.27534935474854L203.92042650000002,95.56333505153931L204.0865785,118.12966179752513L204.2319615,109.24002783718208L204.6058035,81.05093005909026L204.6888795,86.9377969766468L204.803109,90.71513530879082L205.3119495,92.42397271435775L205.32233399999998,93.63850846076797L205.3742565,94.67737051835532L205.654638,93.31167131537721L206.04924900000003,117.50697623893336L207.2019285,109.38983607294986L207.295389,127.45067303659218L207.46154099999998,114.99947732735691L207.4926945,84.65650953560483L207.58615500000002,89.58924690788633L207.876921,92.21460121098546L208.22999400000003,70.87923296703927L208.24037850000002,81.05197900065204L208.333839,87.25272592501891L208.3649925,90.78625791905554L208.769988,92.9088045980825L209.02960050000002,110.83368348516787L209.185368,124.97553470276452L209.206137,113.0009562930027L209.28921300000002,129.08293402436732L209.455365,115.76956115390871L209.663055,85.1296362818838L209.912283,111.43025491366153L210.140742,105.47532879429677L210.431508,79.1925688738681L210.55612200000002,86.10623554200274L210.99227100000002,66.83082409268822L211.0234245,54.44534273365858L211.44918900000002,93.20518598687484L211.532265,71.52163271028897L212.3734095,77.26547594499053L212.383794,80.8229368235556L213.2872455,109.08155676042364L213.3703215,124.18878637024955L213.82723950000002,112.00360345285652L213.83762400000003,126.66978385592412L214.36723350000003,111.30982718077247L214.460694,128.83431404833166L214.9903035,111.29996241810422L215.09414850000002,105.34700795699656L215.16684,99.29712353640497L215.4679905,119.20359739836276L215.852217,64.39906891570223L216.0287535,77.10555308571895L216.46490250000002,84.19417518562936L216.9633585,111.82607693068304L217.3787385,127.7200058424003L217.638351,108.3273485066609L217.83565650000003,122.08817897093988L217.88757900000002,111.59851073415695L217.9395015,82.03430135245097L218.12642250000002,87.95630438324793L218.178345,91.37906720636477L218.2302675,116.06497702120656L218.3548815,107.90819176387139L218.572956,95.00031302661507L219.0610275,118.45857450420147L219.279102,132.6509672275453L219.6633285,94.66947588630134L219.82948050000002,72.53347204987773L220.29678300000003,82.02848069467885L220.4317815,87.06397989629949L220.816008,112.94594407104995L220.8886995,103.11174033179013L220.9302375,77.41322166260558L221.18985,82.7529741009264L221.459847,64.09642803431682L222.3009915,77.10170951224048L222.33214500000003,38.816320201973184L222.38406750000001,61.9499157364488L222.90329250000002,97.3142956599784L223.1109825,95.3431483379121L223.26675,72.72279238409492L223.2979035,81.730962589423L223.3186725,64.61605766000757L223.5263625,54.44909443487171L223.5886695,25.5221432377663L223.827513,58.84514646588366L224.0871255,28.181978283277743L224.10789450000001,32.781377044887336L224.242893,32.691431817752715L224.658273,35.017628351058136L224.72058,59.103136519912226L224.865963,27.21698986787996L224.98019250000002,31.200487232800754L225.073653,79.20233024632718L225.11519100000004,86.25106998846404L225.55134,67.33812061170025L225.62403150000003,78.53234488975575L225.66556950000003,80.54328081614715L225.717492,87.1919358396944L225.7278765,91.3501699152241L226.1432565,90.89322361127437L226.340562,92.9585209702009L226.6209435,71.35951865282978L226.859787,81.68317237715318L227.586702,87.37322909844157L227.690547,90.86711542613648L227.815161,92.75677169327344L227.99169750000001,117.31646858313326L228.1578495,108.67965240155843L228.2409255,125.83603849217405L228.33438600000002,113.72139627340503L228.4070775,61.061096736210985L228.8224575,75.58762972141409L228.957456,61.140247377068434L229.00937850000003,73.95150814074911L229.07168550000003,59.771331539265134L229.10283900000002,51.46674368292797L229.892061,46.411505999032926L229.90244550000003,66.53384835115925L229.92321450000003,54.94975521202002L230.3593635,48.55164498588513L230.39051700000002,67.14438170970125L230.71243650000002,78.71001367319013L230.9408955,85.45765567629569L230.99281800000003,111.96598895555158L231.02397150000002,59.68669469931973L231.075894,94.89214957105668L231.50165850000002,95.36233258931371L231.65742600000002,72.7255690901788L231.81319350000004,104.73524158533284L231.906654,76.9958486445896L231.927423,84.14207713414146L232.1247285,66.0297346914346L232.33241850000002,101.3180590918383L232.4362635,120.83711477105146L232.58164650000003,65.31896758547023L232.59203100000002,30.232316334668354L233.00741100000002,56.998227481617675L233.02818000000002,49.77089958940394L233.256639,45.449891056742956L233.4954825,44.09296794779701L233.92124700000002,65.50937724618674L234.05624550000002,54.87635024373867L234.06663,71.11482389441214L234.2639355,103.23849137110163L234.27432,77.6963891761461L234.295089,75.90889278989786L234.3470115,37.840872554431854L234.46124100000003,55.00252079752117L235.2193095,71.66385987154858L235.603536,81.19866075248848L235.6139205,86.86218139488298L235.79045700000003,90.59737435435532L235.83199500000003,116.01542351398038L236.21622150000002,62.32435504527787L236.53814100000002,76.24620221097409L236.5485255,84.72813684248412L236.57967900000003,88.60110337319067L236.5900635,68.89854271162804L236.9431365,51.126363728936056L236.995059,46.285636486110434L237.08851950000002,66.2407953438147L237.14044200000004,55.393822680532L237.3377475,71.65505245841685L237.68043600000001,52.68987555692877L237.92966400000003,47.12290969008379L237.94004850000002,43.268689509118644L238.3138905,63.60473985903562L238.7085015,76.96333713670434L239.1238815,39.05757789695181L239.18618850000001,61.96421438267183L239.20695750000002,52.89917928344221L239.217342,70.5443549821747L239.40426300000001,81.42463409602477L239.5392615,87.28969989120863L239.632722,56.747585098146814L239.67426,95.49883199226821L240.33886800000002,95.87072633082846L241.0138605,115.03997423157202L241.252704,84.71477545920077L241.41885600000003,43.49708014978805L241.62654600000002,18.777463025175564L242.12500200000002,67.93335334916296L242.1561555,56.52377169882884L242.20807800000003,72.63043092701214L242.9038395,105.0560396421753L243.0907605,78.56537215642945L243.86959800000002,40.01647327859888L244.2745935,16.88816945147329L244.28497800000002,49.00370701069721L244.63805100000002,22.273940209836297L244.93920150000002,28.891240556413237L245.07420000000002,73.08233390293974L245.1884295,81.91021584774529L245.406504,41.8477519756882L245.593425,40.83963985957675L245.73880800000003,63.13280859302266L245.9153445,53.81330921358338L246.050343,94.43479270283264L246.3514935,95.25734147634437L246.36187800000002,72.87878164056737L246.78764250000003,81.40529764416097L247.03687050000002,64.61647845221925L247.0991775,75.58447035380225L247.3068675,82.93096650259507L247.36917449999999,42.31311050305851L247.587249,41.25565974742227L247.649556,85.88266342657835L248.13762750000004,90.10822276221532L248.272626,115.01583219019662L248.88531150000003,107.85227826385552L249.21761550000002,126.42934999435457L249.290307,134.76340536099264L250.162605,118.51616821659557L250.370295,86.54952749474617L251.201055,90.696471105002" style="fill: none;" fill="none"></path></g></g></g></g><g opacity="0.2"><g><g><g><path stroke="rgb(255, 112, 67)" stroke-width="2px" d="M22.503211500000003,-40.32071523666383L23.147050500000002,10.623996448516863L23.198973000000002,-56.619690704345714L23.6039685,-21.751406955719006L23.967426,12.706093263626116L23.988195000000005,-1.1243403434753532L24.3724215,-47.01411657333375L24.5801115,60.739438486099246L25.140874500000002,65.07241005897522L25.54587,5.026951503753679L25.691253000000003,-0.6571348190307731L26.335092,7.6514124393463305L26.6154735,63.95835680961609L26.7816255,44.468005609512346L26.854317,70.08210606575012L26.864701500000002,106.08954544067383L27.352773000000003,118.14664359092713L27.4877715,79.39139575958252L27.633154500000003,83.13387794494629L27.736999500000003,84.60513610839844L28.183533,30.755805683136003L28.266609000000003,130.1679660797119L28.7131425,141.3776521205902L28.7546805,32.99602837562563L28.775449500000004,36.44054980278017L28.9208325,90.30456395149231L28.941601500000004,88.08562417030335L29.097369,-26.53418426513673L29.159676,123.46041150093079L29.450442,89.40440077781678L30.582352500000002,145.25457949638366L30.852349500000003,37.54297490119936L30.862734,37.541383457183855L30.925041,87.46046252250672L31.174269000000002,-22.65012722015382L31.2054225,-23.826395320892345L31.298883,54.43874187469483L31.8077235,36.64851970672609L31.838877,68.1680233001709L32.1192585,149.08970494270324L32.181565500000005,34.12561411857607L32.233488,93.41520042419434L32.773482,92.5790557384491L32.825404500000005,93.75294728279114L32.835789,93.27099437713623L33.022710000000004,94.06168742179871L33.157708500000005,94.62469787597657L33.687318000000005,92.49956841468811L33.8638545,38.95116944313051L34.435002000000004,93.82277984619141L34.4661555,150.97753949165343L34.6115385,33.608713102340715L34.653076500000005,-21.135624217987072L35.1515325,37.84343953132631L35.224224,148.78075261116027L35.45268300000001,30.08616847991945L35.577297,82.71068115234375L35.681142,149.54167504310607L35.99267700000001,149.86843032836913L36.1069065,93.93872184753418L36.2522895,37.95768399238588L36.584593500000004,36.807897520065325L36.885744,-19.36334972381593L37.051896000000006,127.84668583869934L37.218048,148.1106910228729L37.259586000000006,91.64778513908387L37.4361225,92.03959865570069L37.799580000000006,89.86793537139893L38.235729,94.36633224487305L38.329189500000005,35.195488882064836L38.5161105,38.41440720558168L38.609570999999995,30.92702383995058L38.754954,76.33291621208191L38.775723,95.798801612854L38.8068765,93.79657406806946L39.2637945,152.27781291007994L39.731097000000005,69.10988230705262L39.918018000000004,153.11240859031676L40.011478499999996,93.97668309211731L40.146477,93.69673748016358L40.1776305,-24.36078100204469L40.260706500000005,152.28358454704284L40.676086500000004,29.95490617752077L40.852623,151.8439640522003L40.956468,94.98756833076477L40.9876215,137.49998207092284L41.548384500000004,35.368298482894915L41.672998500000006,92.67284483909607L41.911842,94.1632215499878L42.33760650000001,31.1785568714142L42.420682500000005,38.04926629066469L42.4622205,38.324076843261736L42.534912000000006,94.24580688476563L43.085290500000006,38.57512183189394L43.157982000000004,35.84458584785463L43.479901500000004,151.21027226448058L43.5214395,37.541319799423235L43.604515500000005,95.15812869071961L43.7291295,36.150503826141374L43.936819500000006,143.95320267677306L43.988742,38.49423403739931L43.9991265,36.129411888122576L44.2068165,94.33331508636475L44.258739,95.55081219673157L44.7260415,95.166552734375L44.8506555,39.48926849365236L45.1206525,150.6938380718231L45.214113000000005,96.1773530960083L45.5775705,38.34122200012209L45.587955,37.677059364318865L45.608724,150.8896069049835L46.065642000000004,150.178125333786L46.2421785,37.14286465644838L46.2629475,94.41995329856873L46.31487,38.371905040740984L46.5744825,92.34140009880066L46.584867,100.18295402526856L46.688712,144.48077697753905L46.709481,93.13748283386231L46.76140350000001,34.428731155395525L46.9067865,39.55810375213625L46.96909350000001,91.94326324462891L47.062554,93.7732753276825L47.2183215,89.67027802467346L47.280628500000006,18.98881716728212L48.6513825,145.0728790283203L48.8383035,36.33714838027956L49.222530000000006,148.39634461402892L49.367913,47.62473030090334L49.7313705,-20.523788261413586L50.842512000000006,56.06390328407288L51.579811500000005,94.55424995422364L51.6628875,150.52902812957763L52.0367295,-4.802931356430065L52.317111000000004,39.23260040283205L52.3482645,94.2435152053833L52.9505655,-18.649406719207775L53.5944045,152.1714195728302L53.9474775,94.83033366203308L53.957862,-2.8715124607086295L54.310935,92.38388104438782L54.41478,92.29312629699707L54.456318,149.09908385276793L54.477087,93.40779490470887L54.4874715,33.03679056167604L55.0897725,95.12199230194092L55.5051525,38.31111187934877L55.827072,38.394248914718645L56.107453500000005,149.32148284912108L56.159376,92.60369129180908L56.387835,34.59379572868349L56.5851405,94.2990035533905L56.740908000000005,94.47938842773438L56.90706,93.36947293281555L58.153200000000005,90.656294298172L58.340121,35.645528030395525L58.36089,77.86957211494446L58.734732,37.52404732704164L58.880115,83.8914689540863L59.461647000000006,149.51863093376159L59.503185,-23.461424160003673L59.6174145,95.79277534484864L60.1574085,37.5997576236725L60.375483,144.20000381469725L60.427405500000006,150.28239674568175L60.4481745,93.93108291625977L60.55201950000001,92.3484661102295L60.89470800000001,39.11965031623842L61.019322,92.82833952903748L61.559316,94.8939914226532L61.850082,83.21187992095948L62.140848000000005,149.26183552742003L62.535459,38.94726510047914L62.6496885,95.57797284126282L62.680842000000005,150.3306493282318L63.2727585,37.92362709045412L63.324681,94.83886380195618L63.438910500000006,38.84772558212282L64.196979,38.9357430458069L64.321593,37.411076021194475L64.34236200000001,93.85297484397888L64.3942845,151.32778449058532L64.404669,37.30052371025087L64.6642815,39.492196750640886L64.716204,151.56688303947448L64.7473575,36.727009725570696L65.03812350000001,38.986796569824236L65.069277,38.671626996994036L65.463888,151.07215614318847L65.5988865,152.0399875164032L65.61965550000001,38.4035005092621L66.4608,93.69752259254456L66.8034885,96.15220828056336L67.416174,151.49231858253478L67.5927105,95.26227278709412L67.81078500000001,-20.273570823669445L68.309241,149.93870849609374L68.3403945,95.45768089294434L68.828466,87.96702976226807L69.202308,88.765913438797L69.243846,95.74696297645569L69.326922,149.53488488197326L69.7111485,95.24135060310364L69.763071,-18.26652650833131L70.095375,-18.263937759399425L70.17845100000001,39.18517537117006L70.489986,94.79786820411682L70.61460000000001,39.062443208694475L70.63536900000001,38.67790789604189L71.02998000000001,150.5823308944702L71.154594,93.55963988304138L71.590743,92.10062522888184L72.29688900000001,152.23202176094054L72.3903495,152.44285626411437L72.421503,94.76179547309876L73.210725,38.44468708038332L73.231494,94.1344482421875L73.2418785,151.49966044425963L73.792257,147.3509780883789L74.08302300000001,39.534550380706804L74.76840000000001,92.56806416511536L75.17339550000001,38.34635705947878L76.1080005,93.29329581260681L76.2741525,39.49453086853029L76.4195355,96.12487788200379L77.05299000000001,24.422898244857805L77.28144900000001,38.03763813972475L78.0395175,95.74861807823181L78.0602865,38.849783849716204L78.39259050000001,38.9893216609955L78.64181850000001,95.13797039985657L78.78720150000001,38.899182271957415L79.233735,37.286625099182146L79.54527,96.7098078250885L79.586808,37.65666766166689L79.74257550000002,94.68387837409973L80.16834,150.40237040519713L80.1994935,38.82139248847963L80.749872,84.42680950164795L81.082176,150.84975714683532L81.2587125,96.04452056884766L81.289866,93.75753064155579L81.642939,149.8071491241455L81.663708,144.2992887020111L81.7363995,95.85948867797852L82.1102415,152.39727730751036L82.328316,96.22861881256104L82.577544,36.04455609321596L82.6294665,67.0180034160614L82.69177350000001,38.13700790405275L82.972155,93.42385787963867L83.179845,38.833678436279314L83.23176750000002,92.09241337776184L83.387535,95.7921175479889L83.4394575,38.605444145202654L83.885991,95.0859407901764L84.3325245,38.648901176452654L84.43636950000001,152.78633232116698L84.9555945,149.6959602355957L85.1529,95.23286290168762L85.2878985,97.50508422851563L85.35020550000002,94.78222961425782L85.48520400000001,95.01188559532166L86.0771205,93.0066873550415L86.31596400000001,38.50450415611269L86.3678865,95.40548152923584L86.6171145,95.71621627807617L86.84557350000001,92.02896780967713L86.98057200000001,39.03137822151186L87.22980000000001,95.77064366340637L88.226712,37.30141491889955L88.26825000000001,151.12615914344786L88.47594,39.25876374244692L89.036703,94.81221241950989L89.140548,88.89140410423279L89.33785350000001,37.88033981323244L89.8986165,96.30163426399231L89.99207700000001,94.78085036277771L90.116691,39.12525219917299L90.1478445,38.58025689125063L90.30361200000002,94.61937184333802L90.3347655,96.49954624176026L90.45937950000001,154.0501510620117L90.739761,95.41305680274964L90.781299,-18.224724578857433L90.8955285,153.2361804962158L91.71590400000001,38.53769106864931L91.861287,94.44384617805481L91.944363,87.28888363838196L92.1001305,38.905166101455706L92.77512300000001,39.06019396781923L93.107427,147.4797577381134L93.377424,37.3581976413727L93.605883,95.04469056129456L94.56125700000001,37.796714735031145L94.644333,94.65990061759949L94.88317650000002,39.48763461112978L95.0700975,153.26486892700194L95.703552,148.26391525268554L96.02547150000001,-18.04894428253175L96.57585,151.47699828147887L96.69007950000001,95.16848368644715L96.87700050000001,95.82033915519715L96.9808455,82.01479573249817L96.99123,-17.83182888031007L97.1885355,151.26013751029967L97.42737900000002,-17.844602870941173L97.6246845,152.90397186279296L98.02968,150.61316246986388L98.0608335,150.7867359638214L98.133525,147.0877956867218L98.23737,92.94489688873291L98.2685235,95.28979415893555L98.42429100000001,146.13469047546386L98.76697950000002,38.7617027282715L98.964285,-18.477063941955578L99.7846605,89.8052749156952L100.148118,38.22453732490541L100.32465450000001,91.17665405273438L100.480422,39.452962350845354L100.59465150000001,38.41228528022768L100.6569585,37.9338972091675L100.916571,96.59356875419617L101.02041600000001,37.58912677764894L101.207337,95.12103743553162L101.35272,-22.160259532928478L101.56041,95.11878819465637L101.64348600000001,149.47589535713195L101.747331,33.55721397399904L102.11078850000001,93.29253191947937L102.162711,152.99266834259032L102.7961655,39.110632133483904L102.80655,152.48026580810546L103.13885400000001,153.59039349555968L103.7515395,97.14732761383057L104.11499700000002,153.5526232242584L104.22922650000001,38.35469622612001L104.3538405,95.13379020690918L104.530377,38.98798484802248L105.71421000000001,147.244775724411L105.755748,38.37657327651979L105.901131,96.26513714790345L106.0776675,38.93529744148256L106.1399745,39.05921788215639L106.57612350000001,94.15747113227845L106.7422755,76.31867809295655L106.856505,95.61396069526673L107.2407315,94.4729377746582L107.29265400000001,39.87093920707704L107.31342300000001,95.12513275146485L107.37573,149.56514353752135L107.61457349999999,153.87481637001036L107.66649600000001,93.74002475738526L107.7599565,38.47114748954775L108.6945615,-18.079033184051525L108.72571500000001,153.06534428596495L109.016481,151.66415209770201L109.06840350000002,135.88424201011657L109.120326,38.9908070087433L109.722627,79.3154944896698L109.992624,94.30248351097107L110.08608450000001,94.94765491485596L110.42877299999999,38.8381769180298L110.4391575,38.10320563316347L110.53261800000001,38.31527085304262L110.92722900000001,38.57121748924257L111.010305,38.52877898216249L111.0622275,94.38636322021485L111.88260300000002,38.16370172500612L112.16298450000001,96.10136694908142L112.3499055,151.32625670433043L112.38105900000001,95.2158874988556L112.59913350000001,38.839322757720964L112.713363,149.8732895374298L112.96259100000002,81.80994505882263L113.03528250000001,94.05336947441101L113.211819,37.731465530395525L113.232588,95.60392398834229L113.2637415,151.26590914726256L113.48181600000001,96.64528007507325L113.5545075,-2.471869039535534L113.793351,93.47535700798035L113.9698875,96.43807406425476L114.15680850000001,36.84738655090334L114.2191155,96.35476727485657L114.3229605,96.24175353050232L114.520266,95.94918246269226L114.80064750000001,-18.1417148590088L114.8837235,96.44405789375305L115.10179800000002,96.22422642707825L115.83909750000001,151.85049958229064L116.57639700000001,-17.888017463684093L116.6490885,38.70655388832094L116.92947000000001,152.4121307849884L117.1475445,95.47382874488831L117.4175415,95.43563408851624L117.51100200000002,93.63146705627442L117.843306,96.15649456977845L118.0613805,39.311599683761614L118.507914,38.742053699493425L118.5390675,149.12828154563903L118.7467575,151.69950337409972L118.819449,75.24396533966065L119.08944600000001,-18.148377704620373L119.816361,38.50183053016664L119.9098215,38.149378728866594L119.98251300000001,92.00511736869812L120.1175115,95.60545177459717L120.3459705,154.52834815979003L120.46020000000001,38.817318391799944L120.7405815,38.274933052063005L120.9898095,38.86406440734865L121.05211650000001,93.89815063476563L121.29096,39.610281896591204L121.47788100000001,38.59120602607729L122.20479600000002,151.5310649394989L122.661714,38.47343916893007L122.95248000000001,37.07205600738527L122.98363350000001,96.08774418830872L123.39901350000001,94.57298655509949L123.64824150000001,-24.00247268676759L124.32323400000001,91.9566101551056L125.13322500000001,95.59371752738953L125.1851475,18.799117040634172L125.216301,95.7264015197754L125.486298,38.96648974418642L125.7251415,151.77529854774474L125.78744850000001,96.64288229942322L125.943216,39.06320710182192L126.109368,93.86982293128968L126.35859600000002,142.77721042633056L126.5351325,94.22866172790528L127.27243200000001,37.5552396297455L127.48012200000001,153.88203091621398L127.55281350000001,132.33549160957335L127.604736,39.01803131103517L128.72626200000002,-18.448927211761486L128.7574155,152.0963882923126L128.97549,95.81613774299622L129.02741250000003,96.1851405620575L129.473946,95.63870234489441L129.5881755,39.508280944824236L129.6920205,95.39760918617249L129.73355850000002,39.46195931434633L130.034709,38.769490194320696L130.1281695,93.45413775444031L130.36701300000001,39.898884963989275L130.3773975,38.627490949630754L130.82393100000002,-18.1304262161255L130.9173915,94.83109755516053L131.093928,97.1201033115387L131.14585050000002,92.95584602355957L131.23931100000001,38.82018299102785L131.322387,95.41797966957093L131.405463,95.76347155570984L131.58199950000002,144.7662395954132L131.9973795,95.50688834190369L132.381606,-17.911104011535656L132.4750665,38.692252111434954L132.485451,38.75709815025331L132.71391,152.77485270500182L132.78660150000002,96.0094027042389L133.0773675,97.20597763061524L133.18121250000002,-17.980109024047863L133.233135,154.4002475261688L133.3473645,39.75015921592714L133.44082500000002,39.313042593002336L133.58620800000003,39.08243174552919L133.98081900000003,151.34013409614562L134.0119725,-18.319320011138927L134.3650455,94.58007378578186L134.4065835,31.387778711318987L134.645427,90.31958718299866L134.70773400000002,96.08549494743347L134.72850300000002,94.17686553001404L135.143883,96.4912495136261L135.20619,96.05215950012207L135.226959,96.46498007774353L135.34118850000002,39.33284015655519L135.39311100000003,96.09177584648133L135.53849400000001,37.83677668571474L135.6319545,96.10722346305847L135.79810650000002,95.16179962158203L136.057719,39.03241796493532L136.2550245,94.53031463623047L136.348485,151.7048506259918L136.535406,73.75757784843445L136.8157875,56.458411645889285L137.054631,94.4569808959961L137.0754,95.03132243156433L137.0857845,95.56184620857239L137.69847000000001,95.88276619911194L137.7296235,153.61199469566344L137.823084,93.8386730670929L138.21769500000002,38.35323209762575L138.7473045,-18.405682373046886L139.34960550000002,37.785595846176165L139.7234475,97.55373997688294L139.89998400000002,94.54822368621826L140.107674,96.10104866027832L140.39844000000002,-23.205435085296642L140.4295935,95.63942379951477L140.523054,96.48426837921143L140.69959050000003,94.99737162590027L140.7826665,39.524534893035906L140.876127,38.932496500015276L141.1980465,36.063589763641374L141.603042,33.51713080406191L141.72765600000002,93.5995532989502L141.85227,37.06965823173525L141.9664995,39.69933910369875L142.1118825,-18.094013977050793L142.1326515,38.0115384578705L142.5064935,95.40787930488587L142.88033550000003,95.90759272575379L143.16071700000003,38.94701046943666L143.3164845,90.02572174072266L143.62801950000002,-18.08128242492677L143.8772475,39.686395359039324L144.0641685,95.8952006816864L144.406857,38.916284990310686L144.6872385,92.12566394805908L144.822237,152.59932703971862L144.843006,88.0454773426056L145.0610805,97.55227584838867L145.113003,95.01133389472962L145.25838600000003,39.09588475227358L145.362231,37.817933988571184L145.4141535,39.170746278762834L145.48684500000002,-18.193447399139416L145.68415050000002,51.25201315879822L145.80876450000002,49.98210449218752L146.81606100000002,96.33055610656739L146.9718285,153.70820279121398L147.086058,82.53855056762696L147.127596,95.87001342773438L147.293748,96.26254839897156L147.6364365,91.87555260658264L147.729897,95.21278948783875L148.394505,151.80789132118224L148.42565850000003,38.51816935539247L148.5918105,96.44634957313538L149.49526200000003,12.712883424758928L149.58872250000002,38.83620352745058L149.910642,94.9066593170166L150.13910099999998,95.85543580055237L150.36756000000003,154.56467552185057L151.0425525,81.18900604248047L151.1256285,39.029128980636614L151.572162,38.047017049789446L151.8733125,99.45481534004212L152.3509995,37.938289594650286L152.6417655,39.154237699508684L153.25445100000002,96.05820698738098L153.420603,85.5185613155365L153.7425225,96.22429008483887L154.043673,151.04261894226073L154.30328550000002,96.07314534187317L154.355208,148.51056785583495L154.4902065,38.71330161094667L154.687512,38.8272065639496L155.123661,93.4299690246582L155.1340455,37.590463590621965L155.3417355,90.28398127555847L155.9440365,95.98780150413513L156.120573,97.44193572998047L156.4009545,95.67583603858948L156.411339,96.07753772735596L156.494415,39.02832264900209L156.619029,-16.949320125579845L156.74364300000002,92.7339138507843L156.8994105,96.09508605003357L156.94094850000002,148.07542462348937L157.117485,-18.519417572021496L157.491327,93.1311170578003L157.6470945,96.36766858100891L157.75093950000002,144.59529728889464L157.782093,-17.949680614471447L157.90670699999998,38.12669534683229L157.9170915,148.3863715648651L157.9586295,145.5343765735626L158.2493955,151.8374921798706L158.5193925,152.5940646648407L158.86208100000002,39.65781302452089L159.01784849999999,-18.22752552032472L159.3916905,96.5003101348877L159.942069,-17.819564151763927L159.983607,38.83011360168459L160.19129700000002,151.83785290718077L160.7001375,150.25315661430358L161.00128800000002,37.91403598785402L161.437437,37.30052371025087L161.9670465,149.19934482574462L162.122814,88.79144020080567L162.20588999999998,37.470362615585344L162.26819700000001,96.96781272888184L162.787422,38.51749033927919L162.8185755,95.84070963859558L162.849729,96.51327509880066L162.98472750000002,96.77622408866883L163.265109,93.6451322555542L163.52472150000003,39.854748916625994L163.597413,147.59022517204284L163.825872,96.61932892799378L164.178945,93.08248252868653L164.5424025,38.937122297287004L164.781246,38.01714034080507L164.81239950000003,96.73533458709717L164.947398,153.3978712081909L165.49777650000001,86.346897315979L165.508161,97.1671676158905L165.7054665,39.65282649993898L165.73662,36.515241575241106L165.8300805,97.36616177558899L165.84046500000002,96.14206547737122L165.90277200000003,39.14498610496523L166.110462,154.53719658851622L166.131231,154.82015533447264L166.98276,96.13822479248047L167.045067,153.05844802856444L167.8239045,95.41500897407532L168.4469745,151.3252806186676L168.50928150000001,82.49159235954285L168.74812500000002,38.26256222724916L169.13235150000003,97.26422448158264L169.142736,39.32999677658083L169.205043,84.54493708610535L169.2985035,39.0656897544861L169.47504,84.41059799194336L169.59965400000002,37.54547877311708L169.66196100000002,-17.515301275253307L169.869651,96.0917121887207L170.2746465,95.89428825378418L170.7938715,154.07773609161376L171.04309949999998,153.74249310493468L171.281943,39.53261942863466L171.655785,153.61804218292235L171.905013,95.09559555053711L171.9361665,96.37494678497315L172.715004,94.45916647911072L172.777311,95.36898441314698L173.08884600000002,-18.94596700668336L173.18230649999998,95.99590725898743L173.2238445,95.374565076828L173.28615150000002,35.40492291450502L173.89883700000001,34.9054216861725L174.2415255,96.20092768669129L174.25191,38.43473525047304L174.33498600000001,95.155157995224L174.37652400000002,95.4938597202301L174.5530605,95.95155901908875L174.61536750000002,153.9866630554199L174.65690550000002,32.218703460693376L174.93728700000003,39.611003351211565L175.2176685,39.019028615951555L175.414974,96.02900929450989L175.74727800000002,97.4364399433136L175.7576625,23.135038089752214L175.76804700000002,150.45331783294677L176.017275,38.860860300064104L176.81688150000002,152.15247077941893L177.471105,96.7293083190918L177.90725400000002,96.96312327384949L177.94879200000003,96.55284900665283L178.40571,150.6010887145996L178.6030155,152.69421954154967L178.987242,38.40691680908205L179.29877700000003,40.16384978294374L179.3714685,96.19723553657532L179.4753135,151.65678901672362L179.901078,39.23183650970461L180.0776145,38.57512183189394L180.13992149999999,88.43090386390686L180.212613,89.90725464820862L180.7006845,38.111353826522844L180.752607,151.88097043037413L180.91875900000002,38.22455854415895L180.981066,39.44167370796205L181.084911,95.7931785106659L181.271832,95.68268985748291L181.44836850000002,95.16882319450379L181.46913750000002,39.20000762939455L181.8014415,-18.5002353668213L182.12336100000002,37.91757960319521L182.6114325,38.45741863250734L182.73604650000001,95.29142804145813L182.850276,37.10462756156923L183.83680350000003,39.3914052963257L184.22103,95.91625018119812L184.470258,97.82937808036804L184.56371850000002,39.175838899612444L184.62602550000003,-17.917724418640148L184.781793,95.86583323478699L185.1037125,95.49061317443848L185.13486600000002,142.98038477897643L185.33217150000002,153.29983825683593L185.52947699999999,39.350430917739885L186.70292550000002,94.92272229194641L186.78600150000003,39.420327138900774L186.8483085,95.523481798172L187.0975365,39.31028409004213L187.107921,38.15364379882814L187.502532,96.90975685119629L187.7829135,37.08811898231508L187.9075275,39.25522012710573L188.12560200000001,30.375790071487444L188.7382875,120.81814761161804L188.873286,94.19103999137879L188.97713099999999,96.10520763397217L189.018669,95.37197632789612L189.50674050000003,97.31162829399109L190.25442450000003,95.56014866828919L190.4828835,33.47558350563051L190.52442150000002,96.20145816802979L190.55557500000003,16.490886640548723L190.65942,88.29306359291077L190.86711,95.8024513244629L191.137107,154.3783492565155L191.49018,38.41387672424318L191.58364050000003,38.65866203308107L192.1651725,51.30170865058899L192.7259355,97.12449569702149L192.9959325,93.38241667747498L193.047855,94.23483653068543L193.78515450000003,153.19554562568663L193.8266925,37.1193961620331L194.1589965,151.9066032886505L194.667837,39.746297311782854L194.875527,92.03408164978028L195.207831,96.19570775032044L195.311676,153.5294093608856L195.32206050000002,39.290486526489275L195.58167300000002,95.27578945159912L195.6751335,32.957282018661516L195.82051650000002,-17.90813331604005L196.2566655,-18.218613433837902L196.516278,153.4759792804718L197.2951155,93.56142230033875L197.990877,-18.594279098510754L198.31279650000002,97.05285949707032L198.6658695,152.51958508491515L198.676254,95.79619164466858L198.904713,39.2406849384308L199.299324,38.98753924369814L199.35124650000003,152.39736218452452L199.40316900000002,97.48522300720215L199.7873955,39.600924205780046L199.8704715,95.66919441223145L200.0158545,95.34180254936219L200.130084,38.88500781059267L200.317005,37.411818695068376L200.337774,-17.824656772613537L200.5766175,93.88841099739075L200.587002,38.73804326057436L200.5973865,96.22462959289551L200.62854000000002,38.49826569557192L200.8258455,95.28385276794434L201.18930300000002,39.230669450759905L201.3658395,39.203805875778215L201.50083800000002,96.19146389961243L201.51122250000003,39.20781631469728L201.729297,93.72935147285462L201.833142,96.66796345710755L201.91621800000001,38.73789472579958L202.02006300000002,38.99458403587343L202.5289035,94.28518981933594L202.61197950000002,38.93909568786623L202.6535175,95.22636981010437L202.9442835,96.13756699562073L203.08966650000002,39.30234808921816L203.15197350000003,149.9725532054901L203.2973565,39.2172588825226L203.39081700000003,95.27833576202393L203.4635085,152.99914021492003L203.473893,94.88406081199646L203.515431,37.079610061645525L203.7750435,151.67698974609374L203.87888850000002,154.84443016052245L203.92042650000002,49.49531359672548L204.0865785,151.9791519165039L204.2319615,95.90557689666748L204.6058035,38.76728339195253L204.6888795,95.76809735298157L204.803109,96.38114280700684L205.3119495,94.98722882270813L205.32233399999998,95.4603120803833L205.3742565,96.23566360473633L205.654638,91.26312251091004L206.04924900000003,153.79993362426757L207.2019285,97.21412582397461L207.295389,154.54192848205565L207.46154099999998,96.32268376350403L207.4926945,39.1420578479767L207.58615500000002,96.9883529663086L207.876921,96.15263266563416L208.22999400000003,38.87618060112001L208.24037850000002,96.31109805107117L208.333839,96.55384631156922L208.3649925,96.08655591011048L208.769988,96.09262461662293L209.02960050000002,137.7210018157959L209.185368,146.18831152915953L209.206137,95.03908867835999L209.28921300000002,153.20590062141417L209.455365,95.79950184822083L209.663055,39.16974897384645L209.912283,150.8811828613281L210.140742,96.54293961524964L210.431508,39.768428993225115L210.55612200000002,96.47673554420471L210.99227100000002,37.91770691871645L211.0234245,35.86712069511415L211.44918900000002,151.3449508666992L211.532265,38.99630279541017L212.3734095,85.88124079704285L212.383794,86.1591281414032L213.2872455,151.4694866657257L213.3703215,146.8496307849884L213.82723950000002,93.72582907676697L213.83762400000003,148.6690544605255L214.36723350000003,88.26989216804505L214.460694,155.1210443496704L214.9903035,84.99843497276306L215.09414850000002,96.41757626533509L215.16684,90.22229690551758L215.4679905,149.06330819129943L215.852217,-17.807723808288586L216.0287535,96.16527934074402L216.46490250000002,94.827108335495L216.9633585,153.27392954826354L217.3787385,151.56089920997618L217.638351,79.23836250305176L217.83565650000003,142.7294246673584L217.88757900000002,95.86400837898255L217.9395015,37.687987279891985L218.12642250000002,96.83930892944336L218.178345,96.51321144104004L218.2302675,153.09384174346923L218.3548815,95.67301387786866L218.572956,75.6384949207306L219.0610275,153.64596672058104L219.279102,153.93955631256102L219.6633285,37.69723887443544L219.82948050000002,39.32946629524233L220.29678300000003,96.2709936618805L220.4317815,94.61722869873047L220.816008,151.76889033317565L220.8886995,88.3604347229004L220.9302375,38.86544365882875L221.18985,90.7626027584076L221.459847,36.11160893440248L222.3009915,96.60963172912598L222.33214500000003,-18.611763763427746L222.38406750000001,96.65030903816223L222.90329250000002,150.36086554527282L223.1109825,92.38642735481262L223.26675,38.79225845336916L223.2979035,95.24321789741516L223.3186725,38.94370026588442L223.5263625,39.198649597167986L223.5886695,-17.868283557891857L223.827513,108.8296513080597L224.0871255,-17.812773990631115L224.10789450000001,39.68047518730165L224.242893,32.5565139770508L224.658273,38.50692315101625L224.72058,95.23139877319336L224.865963,-20.61223011016847L224.98019250000002,37.1757332801819L225.073653,151.2050947666168L225.11519100000004,96.82417960166931L225.55134,38.96869654655458L225.62403150000003,95.32368130683899L225.66556950000003,83.55968470573426L225.717492,97.16491837501526L225.7278765,97.58752102851868L226.1432565,90.20780415534973L226.340562,96.0564670085907L226.6209435,38.96101517677309L226.859787,97.16865296363831L227.586702,95.90831418037415L227.690547,96.10794491767884L227.815161,95.59125609397888L227.99169750000001,154.15601391792296L228.1578495,95.72442812919617L228.2409255,151.57061762809752L228.33438600000002,95.54943294525147L228.4070775,-17.92935256958009L228.8224575,97.37742919921875L228.957456,39.469173860549944L229.00937850000003,93.16839928627014L229.07168550000003,38.5010666370392L229.10283900000002,39.00986189842226L229.892061,38.828649473190325L229.90244550000003,96.71736187934876L229.92321450000003,37.573615503311174L230.3593635,38.954479646682756L230.39051700000002,95.03348679542542L230.71243650000002,96.05846161842346L230.9408955,95.57911868095398L230.99281800000003,151.7284888744354L231.02397150000002,-18.732246685028088L231.075894,147.7003318786621L231.50165850000002,96.06760711669922L231.65742600000002,38.77042384147646L231.81319350000004,152.74975032806395L231.906654,35.38675923347475L231.927423,94.86141986846924L232.1247285,38.861221027374285L232.33241850000002,154.25054569244384L232.4362635,150.1156982898712L232.58164650000003,-17.958253192901623L232.59203100000002,-22.397660541534435L233.00741100000002,97.14709420204163L233.02818000000002,38.92990775108339L233.256639,38.96837825775148L233.4954825,42.05758328437807L233.92124700000002,97.63399119377137L234.05624550000002,38.926809740066545L234.06663,95.47253437042237L234.2639355,151.42399258613585L234.27432,39.383235883712786L234.295089,73.22764821052552L234.3470115,-19.2611577987671L234.46124100000003,80.74499316215515L235.2193095,96.65586848258972L235.603536,95.50086207389832L235.6139205,95.35746235847473L235.79045700000003,96.20016379356385L235.83199500000003,154.14249725341796L236.21622150000002,-18.21224765777589L236.53814100000002,97.12897295951844L236.5485255,97.45103878974915L236.57967900000003,94.41055316925049L236.5900635,39.344701719284075L236.9431365,24.46809525489809L236.995059,39.024545621871965L237.08851950000002,96.1735336303711L237.14044200000004,39.12336368560793L237.3377475,96.04689712524414L237.68043600000001,24.242110204696672L237.92966400000003,38.7724608898163L237.94004850000002,37.487359237670915L238.3138905,94.10881538391114L238.7085015,97.0012330532074L239.1238815,-17.801060962677013L239.18618850000001,96.32416911125183L239.20695750000002,39.301626634597795L239.217342,97.01211853027344L239.40426300000001,97.74505276679993L239.5392615,96.08729858398438L239.632722,10.934412908554094L239.67426,153.6257023334503L240.33886800000002,96.42856783866883L241.0138605,143.79384608268737L241.252704,39.22697730064394L241.41885600000003,-18.329462814331066L241.62654600000002,-18.301962661743175L242.12500200000002,141.66718883514403L242.1561555,39.409399223327654L242.20807800000003,96.79041976928711L242.9038395,153.69445271492003L243.0907605,38.829370927810686L243.86959800000002,-17.806875038146984L244.2745935,-17.8042862892151L244.28497800000002,97.17701334953308L244.63805100000002,-17.82070999145509L244.93920150000002,38.817191076278704L245.07420000000002,139.36897392272948L245.1884295,95.15203876495362L245.406504,-18.245943832397472L245.593425,39.32747168540956L245.73880800000003,96.57256169319153L245.9153445,39.834060144424456L246.050343,155.36701793670653L246.3514935,96.49116463661194L246.36187800000002,39.31094188690187L246.78764250000003,94.1950716495514L247.03687050000002,39.43324966430666L247.0991775,92.03645820617676L247.3068675,93.9507107257843L247.36917449999999,-18.61367349624635L247.587249,39.66948361396791L247.649556,152.8231689453125L248.13762750000004,96.44656176567078L248.272626,152.37724633216857L248.88531150000003,97.10694737434387L249.21761550000002,154.29495759010314L249.290307,147.2644884109497L250.162605,94.1453125L250.370295,38.59956641197206L251.201055,96.91688652038575" style="fill: none;" fill="none"></path></g></g></g></g></g></g><g transform="translate(60, 178)" clip-path="url(#clip_1)"><clipPath id="clip_1"><rect width="269" height="21"></rect></clipPath><g><g><line x1="0" y1="0" x2="0" y2="5" style="visibility: inherit;" fill="rgb(0, 0, 0)" stroke="rgb(204, 204, 204)" stroke-width="1px"></line><line x1="20.769000000000002" y1="0" x2="20.769000000000002" y2="5" style="visibility: inherit;" fill="rgb(0, 0, 0)" stroke="rgb(204, 204, 204)" stroke-width="1px"></line><line x1="41.538000000000004" y1="0" x2="41.538000000000004" y2="5" style="visibility: inherit;" fill="rgb(0, 0, 0)" stroke="rgb(204, 204, 204)" stroke-width="1px"></line><line x1="62.30700000000001" y1="0" x2="62.30700000000001" y2="5" style="visibility: inherit;" fill="rgb(0, 0, 0)" stroke="rgb(204, 204, 204)" stroke-width="1px"></line><line x1="83.07600000000001" y1="0" x2="83.07600000000001" y2="5" style="visibility: inherit;" fill="rgb(0, 0, 0)" stroke="rgb(204, 204, 204)" stroke-width="1px"></line><line x1="103.84500000000001" y1="0" x2="103.84500000000001" y2="5" style="visibility: inherit;" fill="rgb(0, 0, 0)" stroke="rgb(204, 204, 204)" stroke-width="1px"></line><line x1="124.61400000000002" y1="0" x2="124.61400000000002" y2="5" style="visibility: inherit;" fill="rgb(0, 0, 0)" stroke="rgb(204, 204, 204)" stroke-width="1px"></line><line x1="145.383" y1="0" x2="145.383" y2="5" style="visibility: inherit;" fill="rgb(0, 0, 0)" stroke="rgb(204, 204, 204)" stroke-width="1px"></line><line x1="166.15200000000002" y1="0" x2="166.15200000000002" y2="5" style="visibility: inherit;" fill="rgb(0, 0, 0)" stroke="rgb(204, 204, 204)" stroke-width="1px"></line><line x1="186.921" y1="0" x2="186.921" y2="5" style="visibility: inherit;" fill="rgb(0, 0, 0)" stroke="rgb(204, 204, 204)" stroke-width="1px"></line><line x1="207.69000000000003" y1="0" x2="207.69000000000003" y2="5" style="visibility: inherit;" fill="rgb(0, 0, 0)" stroke="rgb(204, 204, 204)" stroke-width="1px"></line><line x1="228.459" y1="0" x2="228.459" y2="5" style="visibility: inherit;" fill="rgb(0, 0, 0)" stroke="rgb(204, 204, 204)" stroke-width="1px"></line><line x1="249.22800000000004" y1="0" x2="249.22800000000004" y2="5" style="visibility: inherit;" fill="rgb(0, 0, 0)" stroke="rgb(204, 204, 204)" stroke-width="1px"></line><line x1="269.997" y1="0" x2="269.997" y2="5" style="visibility: inherit;" fill="rgb(0, 0, 0)" stroke="rgb(204, 204, 204)" stroke-width="1px"></line></g><g transform="translate(0, 8)"><text x="0" y="0" dx="0em" dy="0.95em" style="text-anchor: middle; visibility: hidden; font-family: &quot;Helvetica Neue&quot;, sans-serif; font-size: 12px; font-weight: 200;" fill="rgb(50, 49, 63)" stroke="none" stroke-width="1px">-2k</text><text x="20.769000000000002" y="0" dx="0em" dy="0.95em" style="text-anchor: middle; visibility: inherit; font-family: &quot;Helvetica Neue&quot;, sans-serif; font-size: 12px; font-weight: 200;" fill="rgb(50, 49, 63)" stroke="none" stroke-width="1px">0</text><text x="41.538000000000004" y="0" dx="0em" dy="0.95em" style="text-anchor: middle; visibility: hidden; font-family: &quot;Helvetica Neue&quot;, sans-serif; font-size: 12px; font-weight: 200;" fill="rgb(50, 49, 63)" stroke="none" stroke-width="1px">2k</text><text x="62.30700000000001" y="0" dx="0em" dy="0.95em" style="text-anchor: middle; visibility: inherit; font-family: &quot;Helvetica Neue&quot;, sans-serif; font-size: 12px; font-weight: 200;" fill="rgb(50, 49, 63)" stroke="none" stroke-width="1px">4k</text><text x="83.07600000000001" y="0" dx="0em" dy="0.95em" style="text-anchor: middle; visibility: hidden; font-family: &quot;Helvetica Neue&quot;, sans-serif; font-size: 12px; font-weight: 200;" fill="rgb(50, 49, 63)" stroke="none" stroke-width="1px">6k</text><text x="103.84500000000001" y="0" dx="0em" dy="0.95em" style="text-anchor: middle; visibility: inherit; font-family: &quot;Helvetica Neue&quot;, sans-serif; font-size: 12px; font-weight: 200;" fill="rgb(50, 49, 63)" stroke="none" stroke-width="1px">8k</text><text x="124.61400000000002" y="0" dx="0em" dy="0.95em" style="text-anchor: middle; visibility: hidden; font-family: &quot;Helvetica Neue&quot;, sans-serif; font-size: 12px; font-weight: 200;" fill="rgb(50, 49, 63)" stroke="none" stroke-width="1px">10k</text><text x="145.383" y="0" dx="0em" dy="0.95em" style="text-anchor: middle; visibility: inherit; font-family: &quot;Helvetica Neue&quot;, sans-serif; font-size: 12px; font-weight: 200;" fill="rgb(50, 49, 63)" stroke="none" stroke-width="1px">12k</text><text x="166.15200000000002" y="0" dx="0em" dy="0.95em" style="text-anchor: middle; visibility: hidden; font-family: &quot;Helvetica Neue&quot;, sans-serif; font-size: 12px; font-weight: 200;" fill="rgb(50, 49, 63)" stroke="none" stroke-width="1px">14k</text><text x="186.921" y="0" dx="0em" dy="0.95em" style="text-anchor: middle; visibility: inherit; font-family: &quot;Helvetica Neue&quot;, sans-serif; font-size: 12px; font-weight: 200;" fill="rgb(50, 49, 63)" stroke="none" stroke-width="1px">16k</text><text x="207.69000000000003" y="0" dx="0em" dy="0.95em" style="text-anchor: middle; visibility: hidden; font-family: &quot;Helvetica Neue&quot;, sans-serif; font-size: 12px; font-weight: 200;" fill="rgb(50, 49, 63)" stroke="none" stroke-width="1px">18k</text><text x="228.459" y="0" dx="0em" dy="0.95em" style="text-anchor: middle; visibility: inherit; font-family: &quot;Helvetica Neue&quot;, sans-serif; font-size: 12px; font-weight: 200;" fill="rgb(50, 49, 63)" stroke="none" stroke-width="1px">20k</text><text x="249.22800000000004" y="0" dx="0em" dy="0.95em" style="text-anchor: middle; visibility: hidden; font-family: &quot;Helvetica Neue&quot;, sans-serif; font-size: 12px; font-weight: 200;" fill="rgb(50, 49, 63)" stroke="none" stroke-width="1px">22k</text><text x="269.997" y="0" dx="0em" dy="0.95em" style="text-anchor: middle; visibility: hidden; font-family: &quot;Helvetica Neue&quot;, sans-serif; font-size: 12px; font-weight: 200;" fill="rgb(50, 49, 63)" stroke="none" stroke-width="1px">24k</text></g><line x1="0" y1="0" x2="269.997" y2="0" fill="rgb(0, 0, 0)" stroke="rgb(204, 204, 204)" stroke-width="1px"></line></g></g></g></g></svg>